<svg xmlns="http://www.w3.org/2000/svg" viewBox="0 0 35.2 40"><defs><style>.cls-1{fill:#8c98a4;fill-rule:evenodd;}</style></defs><g id="Layer_2" data-name="Layer 2"><g id="Layer_1-2" data-name="Layer 1"><polygon class="cls-1" points="0 40 35.2 40 35.2 38.4 0 38.4 0 40"/><path class="cls-1" d="M14.4,0V9.6H4v24H0v1.6H35.2V33.6h-4V0ZM16,1.6H29.6v32H16V30.4h8.8V28.8H16V25.6h8.8V24H16V20.8h8.8V19.2H16V16h8.8V14.4H16V11.2h8.8V9.6H16V6.4h8.8V4.8H16ZM5.6,11.2h8.8V33.6H5.6V30.4h6.28V28.8H5.6V25.6h6.28V24H5.6V20.8h6.28V19.2H5.6V16h6.28V14.4H5.6Z"/></g></g></svg>