<svg xmlns="http://www.w3.org/2000/svg" viewBox="0 0 40 37.55"><defs><style>.cls-1{fill:#8c98a4;}</style></defs><g id="Layer_2" data-name="Layer 2"><g id="Layer_1-2" data-name="Layer 1"><path class="cls-1" d="M39.69,12.56a.58.58,0,0,0-.61.06L37.14,14.2l-.48-10h0L36.49.54A.56.56,0,0,0,35.92,0H33.26a.58.58,0,0,0-.57.54l-.86,18-4.77,3.89V13.07a.57.57,0,0,0-.57-.57.58.58,0,0,0-.36.12l-12,9.81V13.06a.57.57,0,0,0-.32-.52.59.59,0,0,0-.61.07L.21,23.19a.58.58,0,0,0-.21.44V37a.57.57,0,0,0,.57.57H39.43A.57.57,0,0,0,40,37V13.06A.56.56,0,0,0,39.69,12.56ZM35.37,1.13l.12,2.52H33.72l.12-2.52ZM33.65,4.79h1.89L36,15.11l-3,2.46ZM16.31,36.41V31.49h3.12v4.92Zm4.27,0V31.49h3.09v4.92Zm18.28,0h-14V30.92a.57.57,0,0,0-.58-.57h-8.5a.56.56,0,0,0-.57.57v5.49h-14V23.91l11.79-9.64v9.36a.58.58,0,0,0,.33.51.57.57,0,0,0,.61-.07l12-9.8v9.36a.59.59,0,0,0,.33.52.56.56,0,0,0,.66-.08l12-9.79Z"/><path class="cls-1" d="M28.28,28.76h2.36a.56.56,0,0,0,.57-.57V25.83a.57.57,0,0,0-.57-.57H28.28a.57.57,0,0,0-.57.57v2.36A.56.56,0,0,0,28.28,28.76Zm.57-2.36h1.22v1.22H28.85Z"/><path class="cls-1" d="M34.14,28.76H36.5a.57.57,0,0,0,.58-.57V25.83a.58.58,0,0,0-.58-.57H34.14a.57.57,0,0,0-.57.57v2.36A.56.56,0,0,0,34.14,28.76Zm.57-2.36h1.22v1.22H34.71Z"/><path class="cls-1" d="M11.76,25.26H9.39a.58.58,0,0,0-.57.57v2.36a.57.57,0,0,0,.57.57h2.37a.57.57,0,0,0,.57-.57V25.83A.58.58,0,0,0,11.76,25.26Zm-.57,2.36H10V26.4h1.23Z"/><path class="cls-1" d="M5.9,25.26H3.53a.57.57,0,0,0-.57.57v2.36a.56.56,0,0,0,.57.57H5.9a.57.57,0,0,0,.57-.57V25.83A.58.58,0,0,0,5.9,25.26Zm-.58,2.36H4.1V26.4H5.32Z"/><path class="cls-1" d="M24.12,25.26H21.75a.58.58,0,0,0-.57.57v2.36a.57.57,0,0,0,.57.57h2.37a.57.57,0,0,0,.57-.57V25.83A.58.58,0,0,0,24.12,25.26Zm-.57,2.36H22.33V26.4h1.22Z"/><path class="cls-1" d="M18.26,25.26H15.89a.58.58,0,0,0-.57.57v2.36a.57.57,0,0,0,.57.57h2.37a.57.57,0,0,0,.57-.57V25.83A.58.58,0,0,0,18.26,25.26Zm-.57,2.36H16.46V26.4h1.23Z"/></g></g></svg>