<svg xmlns="http://www.w3.org/2000/svg" viewBox="0 0 40 30.56"><defs><style>.cls-1{fill:#8c98a4;}</style></defs><g id="Layer_2" data-name="Layer 2"><g id="Layer_1-2" data-name="Layer 1"><path class="cls-1" d="M39.1,30.56H18.88a.9.9,0,0,1-.9-.9V.9a.9.9,0,0,1,.9-.9h9a.89.89,0,0,1,.89.9V18A10.45,10.45,0,0,0,39.1,28.76a.9.9,0,0,1,0,1.8Zm-19.32-1.8h13A12.55,12.55,0,0,1,27,18V1.8H19.78Z"/><path class="cls-1" d="M15.28,5.39a4.48,4.48,0,0,1-3.59-1.8,4.5,4.5,0,0,1-7.2,0A4.48,4.48,0,0,1,.9,5.39.9.9,0,1,1,.9,3.6,2.7,2.7,0,0,0,3.6.9.9.9,0,1,1,5.39.9a2.7,2.7,0,1,0,5.4,0,.9.9,0,1,1,1.79,0A2.7,2.7,0,0,0,18,.9a.9.9,0,0,1,1.8,0A4.5,4.5,0,0,1,15.28,5.39Z"/><path class="cls-1" d="M15.28,12.58a4.46,4.46,0,0,1-3.59-1.8,4.5,4.5,0,0,1-7.2,0A4.46,4.46,0,0,1,.9,12.58a.9.9,0,1,1,0-1.79,2.7,2.7,0,0,0,2.7-2.7.9.9,0,1,1,1.79,0,2.7,2.7,0,0,0,5.4,0,.9.9,0,1,1,1.79,0,2.7,2.7,0,0,0,5.4,0,.9.9,0,1,1,1.8,0A4.5,4.5,0,0,1,15.28,12.58Z"/><path class="cls-1" d="M15.28,19.78A4.48,4.48,0,0,1,11.69,18a4.5,4.5,0,0,1-7.2,0A4.48,4.48,0,0,1,.9,19.78.9.9,0,0,1,.9,18a2.7,2.7,0,0,0,2.7-2.7.9.9,0,1,1,1.79,0,2.7,2.7,0,1,0,5.4,0,.9.9,0,1,1,1.79,0,2.7,2.7,0,0,0,5.4,0,.9.9,0,1,1,1.8,0A4.51,4.51,0,0,1,15.28,19.78Z"/><path class="cls-1" d="M18,23.37H1.8a.9.9,0,0,1,0-1.8H18a.9.9,0,0,1,0,1.8Z"/><path class="cls-1" d="M21.57,30.56H1.8a.9.9,0,0,1,0-1.8H21.57a.9.9,0,0,1,0,1.8Z"/></g></g></svg>