<svg xmlns="http://www.w3.org/2000/svg" width="26.264" height="24.5" viewBox="0 0 26.264 24.5">
  <g id="Layer_2" data-name="Layer 2" transform="translate(0.26 0.25)">
    <g id="Layer_1" data-name="Layer 1" transform="translate(-0.01)">
      <path id="Path_47" data-name="Path 47" d="M4.04,0a.592.592,0,0,0-.534.586V2.93H2.862a.573.573,0,0,0-.528.586V5.854H1.69a.586.586,0,0,0-.528.586V8.783H.518a.586.586,0,0,0-.528.586V23.414A.586.586,0,0,0,.576,24H25.168a.586.586,0,0,0,.586-.586V9.369a.586.586,0,0,0-.586-.586h-.586V6.439A.586.586,0,0,0,24,5.854H23.41V3.516a.58.58,0,0,0-.586-.586h-.58V.586A.586.586,0,0,0,21.659,0Zm.644,1.172H21.073V2.93H4.678ZM3.506,4.1H22.245V5.854H3.506ZM2.34,7.025H23.41V8.783H2.34ZM1.168,9.955H24.582V22.834H1.168V9.955Z" transform="translate(0.01)" fill="#8c98a4" stroke="#8c98a4" stroke-width="0.5"/>
    </g>
  </g>
</svg>
