<svg xmlns="http://www.w3.org/2000/svg" viewBox="0 0 40 37.27"><defs><style>.cls-1{fill:#8c98a4;}</style></defs><g id="Layer_2" data-name="Layer 2"><g id="Layer_1-2" data-name="Layer 1"><path class="cls-1" d="M6.28,0a.92.92,0,0,0-.83.91V4.55h-1a.89.89,0,0,0-.82.91V9.09h-1a.91.91,0,0,0-.82.91v3.64h-1a.91.91,0,0,0-.82.91V36.36a.91.91,0,0,0,.91.91H39.09a.91.91,0,0,0,.91-.91V14.55a.91.91,0,0,0-.91-.91h-.91V10a.91.91,0,0,0-.91-.91h-.91V5.46a.9.9,0,0,0-.91-.91h-.9V.91A.91.91,0,0,0,33.64,0H6.28Zm1,1.82H32.73V4.55H7.27ZM5.45,6.36h29.1V9.09H5.45ZM3.64,10.91H36.36v2.73H3.64ZM1.82,15.46H38.18v20H1.82v-20Z"/></g></g></svg>