<svg xmlns="http://www.w3.org/2000/svg" viewBox="0 0 40 29.7"><defs><style>.cls-1{fill:#8c98a4;}</style></defs><g id="Layer_2" data-name="Layer 2"><g id="Layer_1-2" data-name="Layer 1"><path class="cls-1" d="M38.07,2.47C38.07.3,30.3,0,25.66,0S13.25.3,13.25,2.47V6.14c-3.19-.06-10,0-11.38,1.33a.92.92,0,0,0-.36.72v20.3H.6a.61.61,0,0,0,0,1.21H39.4a.61.61,0,0,0,0-1.21H38.07Zm-13.85,14V20.6H20.06V16.45Zm-4.1-1.21V11.08h4.1v4.16Zm4.1-5.3H20.06V5.78h4.16Zm-4.1,11.87h4.1v3.31H20.06V21.81Zm4.1-17.23H20.06V1.39c1.21-.12,2.59-.19,4.16-.19Zm-4.1,21.75h4.1v2.1H20.06v-2.1ZM36.87,2.47v26H25.42V1.14h.24C32.59,1.14,36.39,1.93,36.87,2.47Zm-22.41,0c.3-.36,1.81-.78,4.46-1v27H14.46ZM2.71,8.25c.72-.6,5.24-1.08,10.48-1V28.43H2.71Z"/></g></g></svg>