<?xml version="1.0" standalone="no"?>
<!DOCTYPE svg PUBLIC "-//W3C//DTD SVG 1.1//EN" "http://www.w3.org/Graphics/SVG/1.1/DTD/svg11.dtd" >
<svg xmlns="http://www.w3.org/2000/svg" xmlns:xlink="http://www.w3.org/1999/xlink" version="1.1">
<metadata>
Created by FontForge 20200314 at Sat Dec  6 07:20:03 2014
 By Unknown
Copyright (c) 2012 by Pedro Leal. All rights reserved.
</metadata>
<defs>
<font id="UserUprightW00-BoldCameo" horiz-adv-x="600" >
  <font-face 
    font-family="UserUprightW00-BoldCameo"
    font-weight="700"
    font-stretch="normal"
    units-per-em="1000"
    panose-1="1 0 0 0 0 0 0 0 0 0"
    ascent="800"
    descent="-200"
    x-height="950"
    cap-height="950"
    bbox="-20 -250 1201 950"
    underline-thickness="50"
    underline-position="-175"
    unicode-range="U+0020-FB02"
  />
<missing-glyph horiz-adv-x="500" 
 />
    <glyph glyph-name="uniFB01" unicode="fi" 
d="M601 950v-1200h-602v1200h602zM90 500h-60v-100h60v-424q0 -37 -19 -56t-71 -19v-101q103 0 156.5 41t53.5 128v431h180v-320q0 -49 27.5 -69.5t72.5 -20.5q21 0 42.5 3t37.5 7v100q-15 -5 -30 -5q-23 0 -26.5 10.5t-3.5 29.5v365h-300v14q0 18 6.5 32t23 23.5t43.5 14.5
t68 5q19 0 39.5 -1t39.5 -2.5t35 -3.5t26 -5l14 95q-12 4 -33.5 7t-46.5 5.5t-51 4t-47 1.5q-118 0 -177.5 -41t-59.5 -128v-21z" />
    <glyph glyph-name="uniFB02" unicode="fl" 
d="M601 950v-1200h-602v1200h602zM90 500h-60v-100h60v-424q0 -37 -19 -56t-71 -19v-101q103 0 156.5 41t53.5 128v431h100v100h-100v14q0 18 5 32t19.5 23.5t40 14.5t66.5 5q23 0 49 -3v-506q0 -49 27.5 -69.5t72.5 -20.5q21 0 42.5 3t37.5 7v100q-15 -5 -30 -5
q-23 0 -26.5 10.5t-3.5 29.5v537q-12 2 -36 5t-51 6t-53 5t-43 2q-118 0 -177.5 -41t-59.5 -128v-21z" />
    <glyph glyph-name="f_f.liga" unicode="ff" 
d="M601 950v-1200h-602v1200h602zM90 500h-70v-100h70v-424q0 -37 -19 -56t-71 -19v-101q103 0 156.5 41t53.5 128v431h180v-424q0 -37 -19 -56t-71 -19v-101q103 0 156.5 41t53.5 128v431h70v100h-70v14q0 75 90 75v101q-98 0 -154 -41t-56 -128v-21h-180v14q0 75 90 75
v101q-98 0 -154 -41t-56 -128v-21z" />
    <glyph glyph-name=".notdef" horiz-adv-x="500" 
 />
    <glyph glyph-name=".null" horiz-adv-x="0" 
 />
    <glyph glyph-name="nonmarkingreturn" horiz-adv-x="333" 
 />
    <glyph glyph-name="space" unicode=" " 
 />
    <glyph glyph-name="exclam" unicode="!" 
d="M601 950v-1200h-602v1200h602zM360 180v500h-120v-500h120zM360 0v120h-120v-120h120z" />
    <glyph glyph-name="quotedbl" unicode="&#x22;" 
d="M601 950v-1200h-602v1200h602zM140 680v-120l20 -110h80l20 110v120h-120zM340 680v-120l20 -110h80l20 110v120h-120z" />
    <glyph glyph-name="numbersign" unicode="#" 
d="M601 950v-1200h-602v1200h602zM560 370v100h-64l54 175v35h-110l-65 -210h-69l54 175v35h-110l-65 -210h-145v-100h114l-19 -60h-95v-100h64l-54 -175v-35h110l65 210h69l-54 -175v-35h110l65 210h145v100h-114l19 60h95zM325 310h-69l19 60h69z" />
    <glyph glyph-name="dollar" unicode="$" 
d="M601 950v-1200h-602v1200h602zM350 588q27 -3 43.5 -12t25.5 -26t12.5 -43.5t3.5 -66.5h120q0 59 -7.5 103.5t-30 75.5t-62.5 48t-105 21v87h-100v-87q-59 -5 -98.5 -22.5t-63 -43.5t-33.5 -60t-10 -72q0 -46 18 -78t47 -54.5t65.5 -37t74.5 -25.5v-203q-29 3 -46.5 11
t-27 25t-13 44t-3.5 68h-120q0 -60 7 -104.5t29.5 -75.5t64 -48t109.5 -21v-86h100v87q68 4 109.5 21t64 43t29.5 60.5t7 73.5q0 47 -18.5 79t-48 54.5t-67 36.5t-76.5 25v203zM250 413q-38 13 -61.5 30.5t-23.5 46.5q0 48 17 70t68 28v-175zM350 265q39 -14 64.5 -33.5
t25.5 -51.5q0 -22 -3.5 -37.5t-13 -26t-27.5 -16.5t-46 -8v173z" />
    <glyph glyph-name="percent" unicode="%" 
d="M601 950v-1200h-602v1200h602zM165 420q37 0 58.5 7t31.5 23t12.5 41.5t2.5 63.5q0 37 -2.5 63t-12.5 42t-31.5 23t-58.5 7q-38 0 -59 -7t-31 -23t-12.5 -42t-2.5 -63q0 -38 2.5 -63.5t12.5 -41.5t31 -23t59 -7zM150 0l370 645v35h-70l-370 -645v-35h70zM165 630
q11 0 18 -2t10.5 -9.5t5 -22.5t1.5 -41t-1.5 -41t-5 -22.5t-10.5 -9.5t-18 -2t-18 2t-11 9.5t-5 22.5t-1 41t1 41t5 22.5t11 9.5t18 2zM435 -10q37 0 58.5 7t31.5 23t12.5 41.5t2.5 63.5q0 37 -2.5 63t-12.5 42t-31.5 23t-58.5 7q-38 0 -59 -7t-31 -23t-12.5 -42t-2.5 -63
q0 -38 2.5 -63.5t12.5 -41.5t31 -23t59 -7zM435 200q11 0 18 -2t10.5 -9.5t5 -22.5t1.5 -41t-1.5 -41t-5 -22.5t-10.5 -9.5t-18 -2t-18 2t-11 9.5t-5 22.5t-1 41t1 41t5 22.5t11 9.5t18 2z" />
    <glyph glyph-name="ampersand" unicode="&#x26;" 
d="M601 950v-1200h-602v1200h602zM580 400h-80v60h-120v-60h-100q-29 0 -47 7t-27.5 19t-12.5 28.5t-3 35.5q0 29 5 48t19.5 30.5t41 16.5t69.5 5q16 0 43.5 -4t47.5 -9l14 95q-12 4 -29 7t-35 5.5t-35.5 4t-30.5 1.5q-129 0 -184.5 -45.5t-55.5 -144.5q0 -33 7 -57t19 -41
t27 -27.5t31 -15.5v-10q-51 -15 -77.5 -53.5t-26.5 -110.5q0 -39 8 -74.5t33 -62t70 -42.5t119 -16t119 14.5t70 45t33 78t8 112.5v60h80v100zM380 240q0 -48 -4.5 -77.5t-16.5 -45.5t-33.5 -21.5t-55.5 -5.5t-55.5 4.5t-33.5 16t-16.5 30.5t-4.5 49q0 19 3 38.5t12.5 35.5
t27.5 26t47 10h130v-60z" />
    <glyph glyph-name="quotesingle" unicode="'" 
d="M601 950v-1200h-602v1200h602zM240 680v-120l20 -110h80l20 110v120h-120z" />
    <glyph glyph-name="parenleft" unicode="(" 
d="M601 950v-1200h-302v241l-299 359l299 359v241h302z" />
    <glyph glyph-name="parenright" unicode=")" 
d="M0 950h302v-241l299 -359l-299 -359v-241h-302v1200z" />
    <glyph glyph-name="asterisk" unicode="*" 
d="M601 950v-1200h-602v1200h602zM452 548l-19 57l-103 -33v108h-60v-109l-104 33l-17 -57l103 -33l-64 -88l49 -34l63 87l64 -88l48 36l-64 87z" />
    <glyph glyph-name="plus" unicode="+" 
d="M601 950v-1200h-602v1200h602zM480 390h-130v130h-100v-130h-130v-100h130v-130h100v130h130v100z" />
    <glyph glyph-name="comma" unicode="," 
d="M601 950v-1200h-602v1200h602zM240 -110h80l40 110v120h-120v-230z" />
    <glyph glyph-name="hyphen" unicode="-" 
d="M601 950v-1200h-602v1200h602zM120 205h360v100h-360v-100z" />
    <glyph glyph-name="period" unicode="." 
d="M601 950v-1200h-602v1200h602zM360 0v120h-120v-120h120z" />
    <glyph glyph-name="slash" unicode="/" 
d="M301 950l-200 -200l200 -200l-200 -200l200 -200l-200 -200l200 -200h-302v1200h302zM601 -250h-102l-200 200l200 200l-200 200l200 200l-200 200l200 200h102v-1200z" />
    <glyph glyph-name="zero" unicode="0" 
d="M601 950v-1200h-602v1200h602zM300 -10q85 0 136.5 17.5t79 58.5t36 108t8.5 166q0 98 -8.5 165t-36 108t-79 59t-136.5 18t-136.5 -18t-79 -59t-36 -108t-8.5 -165q0 -99 8.5 -166t36 -108t79 -58.5t136.5 -17.5zM300 590q45 0 72.5 -7t42.5 -32.5t20 -75.5t5 -135
q0 -86 -5 -135.5t-20 -75t-42.5 -32.5t-72.5 -7t-72.5 7t-42.5 32.5t-20 75t-5 135.5q0 85 5 135t20 75.5t42.5 32.5t72.5 7zM240 280h120v120h-120v-120z" />
    <glyph glyph-name="one" unicode="1" 
d="M601 950v-1200h-602v1200h602zM280 685l-190 -45v-100l150 30v-470h-150v-100h420v100h-150v585h-80z" />
    <glyph glyph-name="two" unicode="2" 
d="M601 950v-1200h-602v1200h602zM160 150q0 30 17 50t44.5 35t63 26t73 23.5t73 28.5t63 39.5t44.5 56.5t17 81q0 42 -12 78.5t-41.5 63.5t-78.5 42.5t-123 15.5q-81 0 -131 -15t-77.5 -45.5t-37 -78t-9.5 -111.5h120q0 48 5 77t19.5 45.5t41 22t69.5 5.5q41 0 67.5 -5
t41.5 -16.5t20.5 -30.5t5.5 -48q0 -27 -17 -46t-44.5 -33t-63 -25.5t-73 -24.5t-73 -29t-63 -39.5t-44.5 -55.5t-17 -77v-160h520v200h-120v-100h-280v50z" />
    <glyph glyph-name="three" unicode="3" 
d="M601 950v-1200h-602v1200h602zM220 300h130q29 0 47 -10t27.5 -26t12.5 -35.5t3 -38.5q0 -30 -5 -49t-20 -30.5t-42.5 -16t-72.5 -4.5t-72.5 5.5t-42.5 21.5t-20 45.5t-5 77.5h-120q0 -65 8.5 -112.5t36 -78t79 -45t136.5 -14.5t136.5 16t79 42.5t36 62t8.5 74.5
q0 72 -29 110.5t-95 53.5v10q20 5 38.5 15.5t33 27.5t23.5 41t9 57q0 99 -55.5 144.5t-184.5 45.5q-81 0 -130.5 -17.5t-76 -50.5t-35 -79t-8.5 -103h120q0 48 7 77t22.5 45.5t40 22t60.5 5.5q32 0 53 -5t34 -16.5t18 -30.5t5 -48q0 -19 -3 -35.5t-12.5 -28.5t-27.5 -19
t-47 -7h-100v-100z" />
    <glyph glyph-name="four" unicode="4" 
d="M601 950v-1200h-602v1200h602zM571 245h-71v435h-120l-330 -435v-100h330v-145h120v145h71v100zM177 245l203 263v-263h-203z" />
    <glyph glyph-name="five" unicode="5" 
d="M601 950v-1200h-602v1200h602zM80 680v-345h220q41 0 67.5 -4.5t41.5 -17.5t20.5 -36.5t5.5 -61.5t-5.5 -62.5t-20.5 -38.5t-41.5 -19t-67.5 -5q-43 0 -69.5 5.5t-41 22t-19.5 45.5t-5 77h-120q0 -65 9.5 -112t37 -77.5t77.5 -45.5t131 -15q74 0 123 16t78.5 45t41.5 71
t12 93t-10.5 93t-37 71t-72 45t-115.5 16h-120v140h310v100h-430z" />
    <glyph glyph-name="six" unicode="6" 
d="M601 950v-1200h-602v1200h602zM161 410q3 67 12.5 103.5t26.5 53.5t41.5 20t58.5 3q43 0 69.5 -6t41 -21t19.5 -40t5 -63h120q0 55 -8.5 98t-35.5 72t-77.5 44.5t-133.5 15.5q-78 0 -128 -15t-79.5 -54t-41 -107t-11.5 -174q0 -99 8.5 -166t36 -108t79 -58.5t136.5 -17.5
q72 0 121.5 15.5t80.5 44t44.5 68t13.5 87.5q0 55 -14 94t-39.5 63.5t-61.5 36t-80 11.5h-204zM315 311q34 0 57.5 -5.5t38.5 -17.5t22 -32t7 -51q0 -35 -7 -57t-23.5 -35t-43.5 -18t-66 -5q-43 0 -70 6t-42.5 28.5t-21 66.5t-6.5 120h155z" />
    <glyph glyph-name="seven" unicode="7" 
d="M601 950v-1200h-602v1200h602zM325 0q0 90 20 166.5t52.5 146t75 134.5t87.5 133v100h-480v-200h120v100h240q-30 -43 -70.5 -106.5t-77 -139.5t-62 -161.5t-25.5 -172.5h120z" />
    <glyph glyph-name="eight" unicode="8" 
d="M601 950v-1200h-602v1200h602zM144 349q-51 -15 -77.5 -53.5t-26.5 -110.5q0 -39 8.5 -74.5t36 -62t79 -42.5t136.5 -16t136.5 16t79 42.5t36 62t8.5 74.5q0 72 -26.5 110.5t-77.5 53.5v10q16 5 31 15.5t27 27.5t19 41t7 57q0 99 -55.5 144.5t-184.5 45.5t-184.5 -45.5
t-55.5 -144.5q0 -33 7 -57t19 -41t27 -27.5t31 -15.5v-10zM280 400q-29 0 -47 7t-27.5 19t-12.5 28.5t-3 35.5q0 29 5 48t18 30.5t34 16.5t53 5t53 -5t34 -16.5t18 -30.5t5 -48q0 -19 -3 -35.5t-12.5 -28.5t-27.5 -19t-47 -7h-40zM350 300q29 0 47 -10t27.5 -26t12.5 -35.5
t3 -38.5q0 -30 -5 -49t-20 -30.5t-42.5 -16t-72.5 -4.5t-72.5 4.5t-42.5 16t-20 30.5t-5 49q0 19 3 38.5t12.5 35.5t27.5 26t47 10h100z" />
    <glyph glyph-name="nine" unicode="9" 
d="M601 950v-1200h-602v1200h602zM439 270q-3 -67 -12.5 -103.5t-26.5 -53.5t-41.5 -20t-58.5 -3q-43 0 -69.5 6t-41 21t-19.5 40t-5 63h-120q0 -55 8.5 -98t35.5 -72t77.5 -44.5t133.5 -15.5q78 0 128 15t79.5 54t41 107t11.5 174q0 99 -8.5 166t-36 108t-79 58.5
t-136.5 17.5q-72 0 -121.5 -15.5t-80.5 -44t-44.5 -68t-13.5 -87.5q0 -55 14 -94t39.5 -63.5t61.5 -36t80 -11.5h204zM285 369q-34 0 -57.5 5.5t-38.5 17.5t-22 32t-7 51q0 34 7 56.5t23.5 35.5t43.5 18t66 5q43 0 70 -6t42.5 -28.5t21 -66.5t6.5 -120h-155z" />
    <glyph glyph-name="colon" unicode=":" 
d="M601 950v-1200h-602v1200h602zM360 340v120h-120v-120h120zM360 40v120h-120v-120h120z" />
    <glyph glyph-name="semicolon" unicode=";" 
d="M601 950v-1200h-602v1200h602zM360 340v120h-120v-120h120zM240 -110h80l40 110v120h-120v-230z" />
    <glyph glyph-name="less" unicode="&#x3c;" 
d="M601 950v-1200h-602v1200h602zM230 340l250 80v100l-360 -130v-100l360 -130v100z" />
    <glyph glyph-name="equal" unicode="=" 
d="M601 950v-1200h-602v1200h602zM120 370h360v100h-360v-100zM120 210h360v100h-360v-100z" />
    <glyph glyph-name="greater" unicode="&#x3e;" 
d="M601 950v-1200h-602v1200h602zM120 160l360 130v100l-360 130v-100l250 -80l-250 -80v-100z" />
    <glyph glyph-name="question" unicode="?" 
d="M601 950v-1200h-602v1200h602zM170 440q0 48 5 77t19 45.5t39.5 22t66.5 5.5t67.5 -5t41.5 -16.5t20.5 -30.5t5.5 -48q0 -36 -15 -55t-38 -31.5t-49.5 -24t-49.5 -33t-38 -58t-15 -98.5h120q0 40 15 60t38 32.5t49.5 22.5t49.5 30t38 55.5t15 99.5q0 42 -12 78.5
t-41.5 63.5t-78.5 42.5t-123 15.5q-80 0 -129 -15t-76 -45.5t-36 -78t-9 -111.5h120zM230 0h120v120h-120v-120z" />
    <glyph glyph-name="at" unicode="@" 
d="M601 950v-1200h-602v1200h602zM300 50q-62 0 -100 14.5t-59 40.5t-28.5 63t-7.5 82t7.5 82t28.5 63t59 40.5t100 14.5q58 0 96 -13.5t60 -35t30.5 -48.5t8.5 -53q0 -45 -2.5 -71.5t-8.5 -41t-16.5 -18.5t-27.5 -4q-10 0 -12.5 5t-2.5 14v106q0 22 -4.5 41.5t-18 33.5
t-37 22t-60.5 8q-38 0 -61 -8t-36.5 -22t-18 -33.5t-4.5 -41.5h60q0 23 11 34t49 11t49 -11t11 -34v-15h-75q-23 0 -44 -2.5t-36.5 -11.5t-25 -26t-9.5 -45q0 -48 24.5 -66.5t70.5 -18.5q32 0 59.5 9.5t35.5 35.5h5v-2q0 -14 18.5 -28.5t50.5 -14.5t54 9.5t36 32t20 60
t6 93.5q0 37 -11.5 74.5t-41 67.5t-78.5 49t-124 19t-124 -19.5t-78.5 -54t-41 -82.5t-11.5 -104t11.5 -104t41 -82.5t78.5 -54t124 -19.5v60zM365 170q-24 -4 -36 -4.5t-29 -0.5q-41 0 -53 5t-12 20t10.5 20t44.5 5h75v-45z" />
    <glyph glyph-name="A" unicode="A" 
d="M601 950v-1200h-602v1200h602zM20 35v-35h110l46 140h248l46 -140h110v35l-215 650h-130zM305 545l25 -115l62 -190h-184l62 190l25 115h10z" />
    <glyph glyph-name="B" unicode="B" 
d="M601 950v-1200h-602v1200h602zM50 680v-680h295q61 0 102.5 14t66.5 38.5t35.5 58.5t10.5 74q0 72 -29 110.5t-95 53.5v10q40 10 67 43t27 98q0 40 -10 73t-34.5 57t-66 37t-104.5 13h-265zM170 580h150q29 0 47 -7t27.5 -19t12.5 -28.5t3 -35.5t-3 -35.5t-12.5 -28.5
t-27.5 -19t-47 -7h-150v180zM170 100v200h180q29 0 47 -10t27.5 -26t12.5 -35.5t3 -38.5t-3 -35.5t-12.5 -28.5t-27.5 -19t-47 -7h-180z" />
    <glyph glyph-name="C" unicode="C" 
d="M601 950v-1200h-602v1200h602zM560 440q0 64 -8.5 111.5t-36 78t-79 45.5t-136.5 15t-136.5 -18t-79 -59t-36 -108t-8.5 -165q0 -99 8.5 -166t36 -108t79 -58.5t136.5 -17.5t136.5 14.5t79 45t36 78t8.5 112.5h-120q0 -48 -5 -77.5t-20 -45.5t-42.5 -21.5t-72.5 -5.5
t-72.5 7t-42.5 32.5t-20 75t-5 135.5q0 85 5 135t20 75.5t42.5 32.5t72.5 7t72.5 -5.5t42.5 -22t20 -45.5t5 -77h120z" />
    <glyph glyph-name="D" unicode="D" 
d="M601 950v-1200h-602v1200h602zM70 680v-680h230q85 0 136.5 17.5t79 57.5t36 105t8.5 160q0 94 -8.5 159t-36 105.5t-79 58t-136.5 17.5h-230zM190 100v480h110q45 0 72.5 -7t42.5 -31.5t20 -72.5t5 -129q0 -82 -5 -130t-20 -72.5t-42.5 -31t-72.5 -6.5h-110z" />
    <glyph glyph-name="E" unicode="E" 
d="M601 950v-1200h-602v1200h602zM540 580v100h-470v-680h470v100h-350v195h300v100h-300v185h350z" />
    <glyph glyph-name="F" unicode="F" 
d="M601 950v-1200h-602v1200h602zM540 580v100h-470v-680h120v285h300v100h-300v195h350z" />
    <glyph glyph-name="G" unicode="G" 
d="M601 950v-1200h-602v1200h602zM295 255h145v-25q0 -45 -5 -72.5t-20 -42.5t-42.5 -20t-72.5 -5t-72.5 7t-42.5 32.5t-20 75t-5 135.5q0 85 5 135t20 75.5t42.5 32.5t72.5 7t72.5 -6t42.5 -21t20 -40t5 -63h120q0 55 -8.5 98t-36 72t-79 44.5t-136.5 15.5t-136.5 -18
t-79 -59t-36 -108t-8.5 -165q0 -99 8.5 -166t36 -108t79 -58.5t136.5 -17.5t136.5 14.5t79 44t36 74.5t8.5 107v125h-265v-100z" />
    <glyph glyph-name="H" unicode="H" 
d="M601 950v-1200h-602v1200h602zM430 295v-295h120v680h-120v-285h-260v285h-120v-680h120v295h260z" />
    <glyph glyph-name="I" unicode="I" 
d="M601 950v-1200h-602v1200h602zM510 580v100h-420v-100h150v-480h-150v-100h420v100h-150v480h150z" />
    <glyph glyph-name="J" unicode="J" 
d="M601 950v-1200h-602v1200h602zM45 240q0 -65 8.5 -112.5t35.5 -78t77.5 -45t133.5 -14.5t133.5 14.5t77.5 45t35.5 78t8.5 112.5v440h-120v-440q0 -48 -5.5 -77.5t-20.5 -45.5t-41.5 -21.5t-67.5 -5.5q-43 0 -69.5 5.5t-41 21.5t-19.5 45.5t-5 77.5h-120z" />
    <glyph glyph-name="K" unicode="K" 
d="M601 950v-1200h-602v1200h602zM318 386l242 264v30h-110l-280 -310h-10l10 100v210h-120v-680h120v225l73 79l222 -304h115v30z" />
    <glyph glyph-name="L" unicode="L" 
d="M601 950v-1200h-602v1200h602zM540 0v230h-120v-130h-230v580h-120v-680h470z" />
    <glyph glyph-name="M" unicode="M" 
d="M601 950v-1200h-602v1200h602zM50 680v-680h110v375l-10 100h10l83 -285h117l80 285h10l-10 -100v-375h110v680h-149l-75 -240l-20 -104h-10l-21 104l-75 240h-150z" />
    <glyph glyph-name="N" unicode="N" 
d="M601 950v-1200h-602v1200h602zM170 680h-120v-680h110v375l-10 100h10l270 -475h120v680h-110v-370l10 -100h-10z" />
    <glyph glyph-name="O" unicode="O" 
d="M601 950v-1200h-602v1200h602zM300 -10q85 0 136.5 17.5t79 58.5t36 108t8.5 166q0 98 -8.5 165t-36 108t-79 59t-136.5 18t-136.5 -18t-79 -59t-36 -108t-8.5 -165q0 -99 8.5 -166t36 -108t79 -58.5t136.5 -17.5zM300 590q45 0 72.5 -7t42.5 -32.5t20 -75.5t5 -135
q0 -86 -5 -135.5t-20 -75t-42.5 -32.5t-72.5 -7t-72.5 7t-42.5 32.5t-20 75t-5 135.5q0 85 5 135t20 75.5t42.5 32.5t72.5 7z" />
    <glyph glyph-name="P" unicode="P" 
d="M601 950v-1200h-602v1200h602zM50 680v-680h120v240h175q111 0 163 59t52 161q0 103 -52 161.5t-163 58.5h-295zM170 340v240h170q58 0 79 -30t21 -90t-21 -90t-79 -30h-170z" />
    <glyph glyph-name="Q" unicode="Q" 
d="M601 950v-1200h-602v1200h602zM562 -87q-20 -5 -43.5 -8.5t-46.5 -3.5t-43 3.5t-35 13.5t-24 28t-10 46q65 6 104.5 27.5t60.5 63t28 104.5t7 153q0 98 -8.5 165t-36 108t-79 59t-136.5 18t-136.5 -18t-79 -59t-36 -108t-8.5 -165q0 -90 7 -153t28 -104.5t60.5 -63
t104.5 -27.5q1 -48 19.5 -84t47 -60t65.5 -36t76 -12q13 0 30.5 1.5t35 4t34 5.5t28.5 7zM165 340q0 81 5 129t19.5 72.5t41 31.5t69.5 7t69.5 -7t41 -31.5t19.5 -72.5t5 -129q0 -82 -5 -130t-19.5 -72.5t-41 -31t-69.5 -6.5t-69.5 6.5t-41 31t-19.5 72.5t-5 130z" />
    <glyph glyph-name="R" unicode="R" 
d="M601 950v-1200h-602v1200h602zM50 680v-680h120v270h180q29 0 47 -10t27.5 -26t12.5 -35.5t3 -38.5v-159h120v154q0 57 -18.5 93t-59.5 56v10q41 18 59.5 60.5t18.5 95.5q0 46 -13 84.5t-39 66.5t-67 43.5t-96 15.5h-295zM170 370v210h170q58 0 79 -30.5t21 -79.5
t-21 -74.5t-79 -25.5h-170z" />
    <glyph glyph-name="S" unicode="S" 
d="M601 950v-1200h-602v1200h602zM40 240q0 -65 8.5 -112.5t36 -78t79 -45t136.5 -14.5t136.5 15t79 42t36 63.5t8.5 79.5q0 45 -17 76.5t-44.5 53.5t-63 36t-73 25t-73 20t-63 21t-44.5 28t-17 40q0 29 5.5 48t20.5 30.5t41.5 16.5t67.5 5q43 0 69.5 -5.5t41 -22
t19.5 -45.5t5 -77h120q0 64 -9.5 111.5t-37 78t-77.5 45.5t-131 15q-74 0 -123 -15.5t-78.5 -42.5t-41.5 -63.5t-12 -78.5q0 -45 17 -76.5t44.5 -53.5t63 -36.5t73 -26t73 -21.5t63 -22.5t44.5 -30t17 -43.5t-5 -43t-20 -27.5t-42.5 -15t-72.5 -4.5t-72.5 5.5t-42.5 21.5
t-20 45.5t-5 77.5h-120z" />
    <glyph glyph-name="T" unicode="T" 
d="M601 950v-1200h-602v1200h602zM550 580v100h-500v-100h190v-580h120v580h190z" />
    <glyph glyph-name="U" unicode="U" 
d="M601 950v-1200h-602v1200h602zM165 680h-120v-440q0 -65 8.5 -112.5t35.5 -78t77.5 -45t133.5 -14.5t133.5 14.5t77.5 45t35.5 78t8.5 112.5v440h-120v-440q0 -48 -5.5 -77.5t-20.5 -45.5t-41.5 -21.5t-67.5 -5.5q-43 0 -69.5 5.5t-41 21.5t-19.5 45.5t-5 77.5v440z" />
    <glyph glyph-name="V" unicode="V" 
d="M601 950v-1200h-602v1200h602zM330 250l-25 -115h-10l-25 115l-140 430h-110v-35l215 -650h130l215 650v35h-110z" />
    <glyph glyph-name="W" unicode="W" 
d="M601 950v-1200h-602v1200h602zM10 645l90 -650h130l50 295l15 95h10l15 -95l60 -295h120l90 650v35h-108l-34 -330l-7 -105h-10l-13 105l-63 330h-110l-57 -330l-13 -105h-10l-7 105l-40 330h-108v-35z" />
    <glyph glyph-name="X" unicode="X" 
d="M601 950v-1200h-602v1200h602zM40 645l190 -300l-190 -310v-35h107l114 185l32 63h11l31 -63l120 -185h105v35l-186 304l186 306v35h-107l-116 -190l-27 -54h-8l-29 54l-118 190h-115v-35z" />
    <glyph glyph-name="Y" unicode="Y" 
d="M601 950v-1200h-602v1200h602zM20 645l220 -440v-205h120v205l220 440v35h-110l-145 -305l-20 -60h-10l-20 60l-145 305h-110v-35z" />
    <glyph glyph-name="Z" unicode="Z" 
d="M601 950v-1200h-602v1200h602zM195 90v10l355 483v97h-490v-100h235l100 10v-10l-355 -483v-97h520v100h-265z" />
    <glyph glyph-name="bracketleft" unicode="[" 
d="M601 950v-1200h-101l-500 600l500 600h101z" />
    <glyph glyph-name="backslash" unicode="\" 
d="M121 950l200 -1200h-322v1200h122zM601 -250h-132l-200 1200h332v-1200z" />
    <glyph glyph-name="bracketright" unicode="]" 
d="M600 350l-500 -600h-101v1200h101z" />
    <glyph glyph-name="asciicircum" unicode="^" 
d="M601 950v-1200h-602v1200h602zM450 210l-100 120h-100l-100 -120h80l70 60l70 -60h80z" />
    <glyph glyph-name="underscore" unicode="_" 
d="M601 950v-1200h-602v1200h602zM70 -120h460v100h-460v-100z" />
    <glyph glyph-name="grave" unicode="`" 
d="M325 690l80 -130h-110l-100 130h130z" />
    <glyph glyph-name="a" unicode="a" 
d="M601 950v-1200h-602v1200h602zM410 60v-6q0 -38 21 -51t59 -13q20 0 45 3t45 7v100q-15 -5 -30 -5q-23 0 -26.5 10.5t-3.5 29.5v365h-60l-50 -60h-10q-23 38 -60 54t-90 16q-56 0 -94.5 -15.5t-62 -47t-33.5 -81t-10 -116.5q0 -68 10 -117t33.5 -80.5t62 -47t94.5 -15.5
q53 0 90 16t60 54h10zM400 100q-24 -5 -53 -7.5t-47 -2.5q-43 0 -69 8t-39.5 27t-17.5 49.5t-4 75.5t4 75.5t17.5 49.5t39.5 27t69 8q18 0 47 -2.5t53 -7.5v-300z" />
    <glyph glyph-name="b" unicode="b" 
d="M601 950v-1200h-602v1200h602zM20 580h60v-410q0 -64 21 -100t55.5 -54t79.5 -22t94 -4q113 0 166.5 62t53.5 198q0 67 -10 116.5t-33.5 81t-62 47t-94.5 15.5q-53 0 -90 -16t-60 -54h-10l10 100v140h-180v-100zM200 400q24 5 53 7.5t47 2.5q43 0 69 -8t39.5 -27
t17.5 -49.5t4 -75.5t-4 -75.5t-17.5 -49.5t-39.5 -27t-69 -8q-20 0 -38.5 3t-32 12t-21.5 24.5t-8 40.5v230z" />
    <glyph glyph-name="c" unicode="c" 
d="M601 950v-1200h-602v1200h602zM550 325q0 47 -12 81.5t-40 57.5t-75.5 34.5t-117.5 11.5q-75 0 -124 -15.5t-78.5 -47t-41 -81t-11.5 -116.5q0 -68 11.5 -117t41 -80.5t78.5 -47t124 -15.5q71 0 118 11t75.5 34t40 58t11.5 82h-115q0 -23 -5.5 -39t-20 -26t-40 -15
t-64.5 -5q-43 0 -69.5 8t-41 27t-19.5 49.5t-5 75.5t5 75.5t19.5 49.5t41 27t69.5 8q39 0 64 -5t40 -15.5t20.5 -26.5t5.5 -38h115z" />
    <glyph glyph-name="d" unicode="d" 
d="M601 950v-1200h-602v1200h602zM330 580h70v-30l10 -110h-10q-23 38 -60 54t-90 16q-56 0 -94.5 -15.5t-62 -47t-33.5 -81t-10 -116.5q0 -68 10 -117t33.5 -80.5t62 -47t94.5 -15.5q53 0 90 16t60 54h10v-6q0 -38 21 -51t59 -13q20 0 45 3t45 7v100q-15 -5 -30 -5
q-23 0 -26.5 10.5t-3.5 29.5v545h-190v-100zM400 100q-24 -5 -53 -7.5t-47 -2.5q-43 0 -69 8t-39.5 27t-17.5 49.5t-4 75.5t4 75.5t17.5 49.5t39.5 27t69 8q18 0 47 -2.5t53 -7.5v-300z" />
    <glyph glyph-name="e" unicode="e" 
d="M-1 950h602v-1200h-602v1200zM435 175q0 -23 -5.5 -39t-20 -26t-40 -15t-64.5 -5q-34 0 -58 3.5t-39.5 15t-24 33t-11.5 58.5h193q63 0 100 11t55.5 31t24 48.5t5.5 64.5t-12 64.5t-40 48.5t-75.5 31t-117.5 11q-75 0 -124 -15.5t-78.5 -47t-41 -81t-11.5 -116.5
q0 -68 11.5 -117t41 -80.5t78.5 -47t124 -15.5q71 0 118 11t75.5 34t40 58t11.5 82h-115zM173 300q4 33 13.5 54t25.5 33.5t39 17.5t54 5q39 0 64 -3t40 -10t20.5 -17t5.5 -25q0 -29 -14.5 -42t-55.5 -13h-192z" />
    <glyph glyph-name="f" unicode="f" 
d="M601 950v-1200h-602v1200h602zM335 400h190v100h-190v14q0 75 91 75q23 0 46.5 -3.5t43.5 -8.5l14 95q-12 4 -28.5 7t-34 5.5t-35 4t-30.5 1.5q-40 0 -74 -10t-59 -31t-39.5 -53t-14.5 -75v-21h-145v-100h145v-424q0 -75 -91 -75q-23 0 -46.5 3.5t-43.5 8.5l-14 -95
q12 -4 28.5 -7t34 -5.5t34.5 -4t31 -1.5q40 0 74 10t59 31t39.5 53t14.5 75v431z" />
    <glyph glyph-name="g" unicode="g" 
d="M601 950v-1200h-602v1200h602zM410 80l-10 -104q0 -18 -5.5 -32t-20.5 -23.5t-42.5 -14.5t-72.5 -5q-46 0 -88 6t-62 11l-14 -95q12 -4 34 -8t48 -7.5t53.5 -5.5t52.5 -2q125 0 181 41t56 128v531h-60l-50 -60h-10q-23 38 -60 54t-90 16q-56 0 -94.5 -15.5t-62 -47
t-33.5 -81t-10 -116.5q0 -60 10 -105t33.5 -75t62 -45t94.5 -15q53 0 90 16t60 54h10zM400 120q-24 -5 -53 -7.5t-47 -2.5q-43 0 -69 8t-39.5 24.5t-17.5 43t-4 64.5q0 45 4 75.5t17.5 49.5t39.5 27t69 8q18 0 47 -2.5t53 -7.5v-280z" />
    <glyph glyph-name="h" unicode="h" 
d="M601 950v-1200h-602v1200h602zM190 440l10 110v130h-180v-100h60v-580h120v400q24 5 50.5 7.5t44.5 2.5q56 0 80.5 -15.5t24.5 -64.5v-250q0 -49 27.5 -69.5t72.5 -20.5q21 0 42.5 3t37.5 7v100q-15 -5 -30 -5q-23 0 -26.5 10.5t-3.5 29.5v215q0 45 -11 75.5t-32.5 49.5
t-53.5 27t-73 8q-53 0 -90 -16t-60 -54h-10z" />
    <glyph glyph-name="i" unicode="i" 
d="M601 950v-1200h-602v1200h602zM250 560h120v120h-120v-120zM80 500v-100h170v-241q0 -43 12.5 -75t34 -53t50 -31t60.5 -10q17 0 38 2t41 5.5t38.5 7.5t30.5 8l-14 95q-20 -5 -49.5 -11t-60.5 -6q-61 0 -61 75v334h-290z" />
    <glyph glyph-name="j" unicode="j" 
d="M601 950v-1200h-602v1200h602zM330 680v-120h120v120h-120zM100 400h230v-424q0 -18 -5 -32t-17.5 -23.5t-34 -14.5t-54.5 -5q-31 0 -60.5 6t-49.5 11l-14 -95q12 -4 30.5 -8t38.5 -7.5t41 -5.5t38 -2q103 0 155 41t52 128v531h-350v-100z" />
    <glyph glyph-name="k" unicode="k" 
d="M601 950v-1200h-602v1200h602zM341 259l168 141h51v100h-250v-100h55l-165 -135h-10l10 110v305h-180v-100h60v-480h-60v-100h240v100h-60v115q45 -12 76 -33.5t54 -46.5t41.5 -50.5t38 -46.5t44.5 -34.5t61 -13.5q20 0 34 2.5t31 7.5v100q-7 -3 -17 -5t-18 -2
q-28 0 -46.5 17.5t-39 42.5t-47 51.5t-71.5 44.5v10z" />
    <glyph glyph-name="l" unicode="l" 
d="M601 950v-1200h-602v1200h602zM80 680v-100h130v-421q0 -43 12.5 -75t34 -53t50 -31t60.5 -10q17 0 38 2t41 5.5t38.5 7.5t30.5 8l-14 95q-20 -5 -49.5 -11t-60.5 -6q-61 0 -61 75v514h-250z" />
    <glyph glyph-name="m" unicode="m" 
d="M601 950v-1200h-602v1200h602zM450 0h120v420q0 90 -100 90q-34 0 -62 -14.5t-43 -55.5h-10q-8 33 -32.5 51.5t-64.5 18.5q-34 0 -61.5 -14t-46.5 -56h-10l-20 60h-90v-500h120v400q12 5 25 7.5t21 2.5q27 0 35.5 -8t8.5 -27v-375h120v400q12 5 25 7.5t21 2.5q26 0 35 -8
t9 -27v-375z" />
    <glyph glyph-name="n" unicode="n" 
d="M601 950v-1200h-602v1200h602zM190 440l-20 60h-150v-100h60v-400h120v400q24 5 50.5 7.5t44.5 2.5q56 0 80.5 -15.5t24.5 -64.5v-250q0 -49 27.5 -69.5t72.5 -20.5q21 0 42.5 3t37.5 7v100q-15 -5 -30 -5q-23 0 -26.5 10.5t-3.5 29.5v215q0 45 -11 75.5t-32.5 49.5
t-53.5 27t-73 8q-53 0 -90 -16t-60 -54h-10z" />
    <glyph glyph-name="o" unicode="o" 
d="M601 950v-1200h-602v1200h602zM300 -10q75 0 123.5 15.5t76.5 47t39 80.5t11 117q0 67 -11 116.5t-39 81t-76.5 47t-123.5 15.5t-123.5 -15.5t-76.5 -47t-39 -81t-11 -116.5q0 -68 11 -117t39 -80.5t76.5 -47t123.5 -15.5zM300 90q-43 0 -69 8t-39.5 27t-17.5 49.5
t-4 75.5t4 75.5t17.5 49.5t39.5 27t69 8t69 -8t39.5 -27t17.5 -49.5t4 -75.5t-4 -75.5t-17.5 -49.5t-39.5 -27t-69 -8z" />
    <glyph glyph-name="p" unicode="p" 
d="M601 950v-1200h-602v1200h602zM20 400h60v-490h-60v-100h250v100h-70v40l-10 110h10q23 -38 60 -54t90 -16q56 0 94.5 15.5t62 47t33.5 80.5t10 117q0 67 -10 116.5t-33.5 81t-62 47t-94.5 15.5q-53 0 -90 -16t-60 -54h-10l-20 60h-150v-100zM200 400q24 5 53 7.5t47 2.5
q43 0 69 -8t39.5 -27t17.5 -49.5t4 -75.5t-4 -75.5t-17.5 -49.5t-39.5 -27t-69 -8q-18 0 -47 2.5t-53 7.5v300z" />
    <glyph glyph-name="q" unicode="q" 
d="M601 950v-1200h-602v1200h602zM460 500l-50 -60h-10q-23 38 -60 54t-90 16q-56 0 -94.5 -15.5t-62 -47t-33.5 -81t-10 -116.5q0 -68 10 -117t33.5 -80.5t62 -47t94.5 -15.5q53 0 90 16t60 54h10l-10 -110v-40h-70v-100h250v100h-60v590h-60zM400 100q-24 -5 -53 -7.5
t-47 -2.5q-43 0 -69 8t-39.5 27t-17.5 49.5t-4 75.5t4 75.5t17.5 49.5t39.5 27t69 8q18 0 47 -2.5t53 -7.5v-300z" />
    <glyph glyph-name="r" unicode="r" 
d="M601 950v-1200h-602v1200h602zM300 440l-20 60h-205v-100h115v-300h-115v-100h390v100h-155v300q24 3 58.5 6.5t66.5 3.5v-95h110v185q-19 4 -38.5 7t-51.5 3q-41 0 -81.5 -16t-63.5 -54h-10z" />
    <glyph glyph-name="s" unicode="s" 
d="M601 950v-1200h-602v1200h602zM50 175q0 -47 11.5 -82t40 -58t75.5 -34t118 -11q75 0 124 11t78.5 31.5t41 50t11.5 67.5q0 54 -27.5 83.5t-68.5 44t-89 19.5t-89 9t-68.5 12.5t-27.5 31.5q0 15 5 26t18.5 18.5t38 11.5t63.5 4t62.5 -5t36.5 -15.5t17 -26.5t4 -38h115
q0 47 -10.5 81.5t-36.5 57.5t-72 34.5t-116 11.5q-71 0 -118.5 -11t-75.5 -31.5t-39.5 -50.5t-11.5 -67q0 -54 27.5 -83.5t68.5 -44t89 -19.5t89 -9t68.5 -13t27.5 -31q0 -15 -5 -26.5t-19.5 -19t-41 -11t-69.5 -3.5q-39 0 -64.5 5t-40 15t-20 26t-5.5 39h-115z" />
    <glyph glyph-name="t" unicode="t" 
d="M601 950v-1200h-602v1200h602zM30 400h130v-241q0 -87 52 -128t155 -41q17 0 38 2t41.5 5.5t39 7.5t30.5 8l-15 95q-20 -5 -49.5 -11t-60.5 -6q-33 0 -54.5 5t-34 14.5t-17.5 23.5t-5 32v234h230v100h-230v120h-120v-120h-130v-100z" />
    <glyph glyph-name="u" unicode="u" 
d="M601 950v-1200h-602v1200h602zM520 500h-190v-100h70v-300q-24 -5 -50.5 -7.5t-44.5 -2.5q-56 0 -80.5 15.5t-24.5 64.5v330h-180v-100h60v-250q0 -90 43.5 -125t126.5 -35q53 0 90 16t60 54h10v-6q0 -38 21 -51t59 -13q20 0 45 3t45 7v100q-15 -5 -30 -5
q-23 0 -26.5 10.5t-3.5 29.5v365z" />
    <glyph glyph-name="v" unicode="v" 
d="M601 950v-1200h-602v1200h602zM580 500h-240v-100h62l-71 -195l-20 -80h-10l-20 80l-79 195h58v100h-240v-100h60l160 -400h130l152 400h58v100z" />
    <glyph glyph-name="w" unicode="w" 
d="M601 950v-1200h-602v1200h602zM15 465l70 -465h144l55 215l11 86h10l10 -86l56 -215h144l70 465v35h-110l-34 -288v-47h-11l-10 65l-59 270h-122l-54 -270l-10 -85h-10l-5 70l-35 285h-110v-35z" />
    <glyph glyph-name="x" unicode="x" 
d="M601 950v-1200h-602v1200h602zM60 460l165 -205l-165 -215v-40h107l92 130l29 49h10l29 -49l98 -130h115v40l-165 205l165 215v40h-107l-94 -130l-28 -49h-9l-29 49l-98 130h-115v-40z" />
    <glyph glyph-name="y" unicode="y" 
d="M601 950v-1200h-602v1200h602zM20 500v-100h60v-230q0 -90 43.5 -125t126.5 -35q53 0 90 16t60 54h10l-10 -104q0 -18 -5.5 -32t-20.5 -23.5t-42.5 -14.5t-72.5 -5q-46 0 -88 6t-62 11l-14 -95q12 -4 34 -8t48 -7.5t53.5 -5.5t52.5 -2q125 0 181 41t56 128v531h-190v-100
h70v-280q-24 -5 -50.5 -7.5t-44.5 -2.5q-56 0 -80.5 15.5t-24.5 64.5v310h-180z" />
    <glyph glyph-name="z" unicode="z" 
d="M601 950v-1200h-602v1200h602zM500 400v100h-405v-100h145l110 10v-10l-270 -300v-100h440v100h-180l-110 -10v10z" />
    <glyph glyph-name="braceleft" unicode="{" 
d="M570 -250q-74 0 -145 22.5t-134.5 63t-117 96.5t-92 123t-60 142t-21.5 153t21.5 153t60 142t92 123t117 96.5t134.5 63t145 22.5h31v-1200h-31z" />
    <glyph glyph-name="bar" unicode="|" 
d="M226 950v-1200h-227v1200h227zM601 -250h-227v1200h227v-1200z" />
    <glyph glyph-name="braceright" unicode="}" 
d="M-1 950h31q74 0 145 -22.5t134.5 -63t117 -96.5t92 -123t60 -142t21.5 -153q0 -79 -21.5 -153.5t-60 -141.5t-92 -123t-117 -96.5t-134.5 -63t-145 -22.5h-31v1200z" />
    <glyph glyph-name="asciitilde" unicode="~" 
d="M601 950v-1200h-602v1200h602zM436 323q-21 -29 -36 -37.5t-29 -8.5q-13 0 -28.5 6.5t-33 15t-36.5 15t-37 6.5q-26 0 -59 -15t-62 -63l44 -53q15 16 26.5 24.5t20.5 12.5t17 5t16 1q14 0 31.5 -6.5t35.5 -14.5t36 -14.5t34 -6.5q41 0 66 23t43 53z" />
    <glyph glyph-name="exclamdown" unicode="&#xa1;" 
d="M601 950v-1200h-602v1200h602zM240 380h120v120h-120v-120zM240 -180h120v500h-120v-500z" />
    <glyph glyph-name="cent" unicode="&#xa2;" 
d="M601 950v-1200h-602v1200h602zM550 325q0 43 -10 75.5t-33 55.5t-61.5 36t-95.5 17v101h-100v-102q-58 -6 -96.5 -24t-61.5 -50t-32.5 -77.5t-9.5 -106.5t9.5 -106.5t32.5 -77.5t61.5 -50t96.5 -24v-102h100v101q57 3 95.5 16t62 36t33 56t9.5 76h-115q0 -23 -5.5 -39
t-20 -26t-40 -15t-64.5 -5q-43 0 -69.5 8t-41 27t-19.5 49.5t-5 75.5t5 75.5t19.5 49.5t41 27t69.5 8q39 0 64 -5t40 -15.5t20.5 -26.5t5.5 -38h115z" />
    <glyph glyph-name="sterling" unicode="&#xa3;" 
d="M601 950v-1200h-602v1200h602zM560 440q0 64 -9 111.5t-33.5 78t-68.5 45.5t-114 15q-63 0 -106 -15.5t-69.5 -42.5t-38 -63.5t-11.5 -78.5v-20h-70v-100h70v-60h-70v-100h70v-110h-70v-100h520v200h-120v-100h-210v110h109v100h-109v60h109v100h-109v20q0 29 5 48
t17.5 30.5t32.5 16.5t50 5q32 0 52 -5.5t31.5 -22t16 -46t5.5 -76.5h120z" />
    <glyph glyph-name="currency" unicode="&#xa4;" 
d="M601 950v-1200h-602v1200h602zM500 465v35h-90l-37 -55q-16 3 -34 4.5t-39 0.5q-20 -1 -37.5 -3t-33.5 -5l-39 58h-90v-35l43 -64q-29 -26 -41 -64t-12 -87q0 -48 11.5 -87t40.5 -65l-42 -63v-35h90l38 57q29 -7 72 -7t72 7l38 -57h90v35l-42 63q29 26 40.5 65t11.5 87
t-11.5 87.5t-39.5 65.5zM210 250q0 22 3.5 40.5t13.5 32t27.5 20.5t45.5 7t45.5 -7t27.5 -20.5t13.5 -32t3.5 -40.5q0 -23 -3.5 -41t-13.5 -31.5t-27.5 -20.5t-45.5 -7t-45.5 7t-27.5 20.5t-13.5 31.5t-3.5 41z" />
    <glyph glyph-name="yen" unicode="&#xa5;" 
d="M601 950v-1200h-602v1200h602zM509 105v100h-149l220 440v35h-110l-145 -305l-20 -60h-10l-20 60l-145 305h-110v-35l220 -440h-150v-100h150v-105h120v105h149z" />
    <glyph glyph-name="brokenbar" unicode="&#xa6;" 
d="M601 950v-1200h-227v507h-148v-507h-227v1200h227v-505h148v505h227z" />
    <glyph glyph-name="section" unicode="&#xa7;" 
d="M601 950v-1200h-602v1200h602zM555 535q0 64 -9.5 111.5t-37 78t-77.5 45.5t-131 15q-74 0 -123 -15.5t-78.5 -42.5t-41.5 -63.5t-12 -78.5q0 -31 8 -54.5t22 -41.5q-16 -24 -23 -53t-7 -61q0 -45 17 -75.5t44.5 -51.5t63 -33.5t73 -22t73 -17.5t63 -19.5t44.5 -28
t17 -42.5t-5 -43t-20 -27.5t-42.5 -15t-72.5 -4.5t-72.5 5.5t-42.5 21.5t-20 45.5t-5 77.5h-120q0 -65 8.5 -112.5t36 -78t79 -45t136.5 -14.5t136.5 15t79 42t36 63.5t8.5 79.5q0 29 -7 51t-19 40q16 25 21 54.5t5 64.5q0 45 -17 75.5t-44.5 51t-63 33t-73 21.5t-73 16.5
t-63 17.5t-44.5 25.5t-17 39.5q0 29 5.5 48t20.5 30.5t41.5 16.5t67.5 5q43 0 69.5 -5.5t41 -22t19.5 -45.5t5 -77h120zM165 375q0 29 6 49q29 -11 60 -19t61 -15t57 -14.5t47 -18t32 -25.5t12 -37q0 -25 -4 -41q-44 16 -91.5 26t-87.5 21t-66 27.5t-26 46.5z" />
    <glyph glyph-name="dieresis" unicode="&#xa8;" 
d="M140 680h120v-120h-120v120zM340 680h120v-120h-120v120z" />
    <glyph glyph-name="copyright" unicode="&#xa9;" 
d="M601 950v-1200h-602v1200h602zM300 130q58 0 109 22t89 60t60 89t22 109t-22 109t-60 89t-89 60t-109 22t-109 -22t-89 -60t-60 -89t-22 -109t22 -109t60 -89t89 -60t109 -22zM300 190q-46 0 -86 17t-70 47t-47 70t-17 86q0 45 17 85t47 70t70 47.5t86 17.5
q45 0 85 -17.5t70 -47.5t47.5 -70t17.5 -85q0 -46 -17.5 -86t-47.5 -70t-70 -47t-85 -17zM405 445q0 24 -2.5 43t-12.5 31.5t-31.5 19t-58.5 6.5q-38 0 -59 -7t-31 -23t-12.5 -42t-2.5 -63q0 -38 2.5 -63.5t12.5 -41.5t31 -23t59 -7q37 0 58.5 6.5t31.5 19t12.5 31.5t2.5 43
h-70q0 -26 -6 -33t-29 -7q-11 0 -18 2t-11 9.5t-5 22.5t-1 41t1 41t5 22.5t11 9.5t18 2q23 0 29 -7t6 -33h70z" />
    <glyph glyph-name="ordfeminine" unicode="&#xaa;" 
d="M601 950v-1200h-602v1200h602zM425 580q0 25 -5 45t-19.5 34.5t-41 22.5t-69.5 8q-73 0 -104 -30t-31 -85h80q0 19 11.5 32t43.5 13q38 0 46.5 -14.5t8.5 -40.5v-5h-70q-26 0 -49.5 -3t-41.5 -13t-28.5 -29t-10.5 -50q0 -52 27 -73.5t78 -21.5q35 0 60.5 9.5t34.5 38.5h7
v-2q0 -16 9.5 -31t36.5 -15q14 0 29 2.5t30 7.5v70q-5 -2 -8 -2h-8q-14 0 -15 5.5t-1 15.5v111zM345 448q-10 -5 -25 -6.5t-35 -1.5q-27 0 -40 6.5t-13 23.5q0 14 9.5 17t24.5 3h79v-42zM130 260h340v70h-340v-70z" />
    <glyph glyph-name="guillemotleft" unicode="&#xab;" 
d="M601 950v-1200h-602v1200h602zM155 255l130 80v100l-210 -130v-100l210 -130v100zM395 255l130 80v100l-210 -130v-100l210 -130v100z" />
    <glyph glyph-name="logicalnot" unicode="&#xac;" 
d="M601 950v-1200h-602v1200h602zM120 390v-100h240v-130h120v230h-360z" />
    <glyph glyph-name="uni00AD" unicode="&#xad;" 
d="M601 950v-1200h-602v1200h602zM120 205h360v100h-360v-100z" />
    <glyph glyph-name="registered" unicode="&#xae;" 
d="M601 950v-1200h-602v1200h602zM20 410q0 -58 22 -109t60 -89t89 -60t109 -22t109 22t89 60t60 89t22 109t-22 109t-60 89t-89 60t-109 22t-109 -22t-89 -60t-60 -89t-22 -109zM300 190q-46 0 -86 17t-70 47t-47 70t-17 86q0 45 17 85t47 70t70 47.5t86 17.5
q45 0 85 -17.5t70 -47.5t47.5 -70t17.5 -85q0 -46 -17.5 -86t-47.5 -70t-70 -47t-85 -17zM195 545v-260h70v100h50q20 0 20 -35v-65h70v65q0 23 -5 38t-20 25v4q15 10 20 23.5t5 24.5q0 42 -20.5 61t-69.5 19h-120zM265 445v40h50q20 0 20 -20t-20 -20h-50z" />
    <glyph glyph-name="macron" unicode="&#xaf;" 
d="M145 655h319v-90h-319v90z" />
    <glyph glyph-name="degree" unicode="&#xb0;" 
d="M601 950v-1200h-602v1200h602zM212 603q0 -50 19 -69t69 -19q47 0 67 18t20 70q0 48 -18 68.5t-70 20.5q-54 0 -70.5 -22.5t-16.5 -66.5zM264 603q0 21 7.5 29t27.5 8t28 -8t8 -29q0 -22 -7.5 -29t-27.5 -7t-28 7t-8 29z" />
    <glyph glyph-name="plusminus" unicode="&#xb1;" 
d="M601 950v-1200h-602v1200h602zM480 470h-130v130h-100v-130h-130v-100h130v-130h100v130h130v100zM120 70h360v100h-360v-100z" />
    <glyph glyph-name="uni00B2" unicode="&#xb2;" 
d="M601 950v-1200h-602v1200h602zM220 525q0 16 17.5 27.5t43.5 22t56.5 21.5t56.5 28t43.5 40.5t17.5 59.5q0 27 -7 50t-25 40t-48 26.5t-75 9.5q-51 0 -81.5 -10t-47 -29.5t-21.5 -48.5t-5 -68h80q0 27 3 43.5t11.5 26t23 13t37.5 3.5q25 0 40 -4t23 -11.5t10 -18t2 -22.5
q0 -18 -17.5 -30t-43.5 -22t-56.5 -21t-56.5 -27t-43.5 -39.5t-17.5 -59.5v-95h320v127h-80v-57h-160v25z" />
    <glyph glyph-name="uni00B3" unicode="&#xb3;" 
d="M601 950v-1200h-602v1200h602zM250 605h86q25 0 34.5 -18.5t9.5 -36.5q0 -32 -15.5 -46t-64.5 -14q-17 0 -31.5 3t-25.5 12t-17 26t-6 44h-80q0 -39 7.5 -68.5t26 -48.5t49.5 -28.5t77 -9.5t77 10.5t49.5 27t26 38t7.5 44.5q0 45 -17.5 68t-52.5 32v5q10 3 20.5 9
t19.5 16.5t14.5 25t5.5 34.5q0 63 -35 91.5t-115 28.5q-51 0 -82 -12t-47 -32.5t-21 -49t-5 -61.5h80q0 27 5 43.5t14.5 25.5t23.5 12.5t32 3.5q32 0 51 -10.5t19 -49.5q0 -21 -16 -33t-40 -12h-64v-70z" />
    <glyph glyph-name="acute" unicode="&#xb4;" 
d="M275 690h130l-100 -130h-110z" />
    <glyph glyph-name="paragraph" unicode="&#xb6;" 
d="M601 950v-1200h-602v1200h602zM245 680q-111 0 -163 -58.5t-52 -161.5q0 -102 52 -161t163 -59h15v-240h120v580h60v-580h120v680h-315z" />
    <glyph glyph-name="periodcentered" unicode="&#xb7;" 
d="M601 950v-1200h-602v1200h602zM360 190v120h-120v-120h120z" />
    <glyph glyph-name="cedilla" unicode="&#xb8;" 
d="M250 0h60v-40q42 0 67.5 -18t25.5 -67q0 -41 -27.5 -63t-78.5 -22q-18 0 -41 3t-43 9l8 60q12 -2 23 -3t22 -1q17 0 28 5t11 20q0 19 -16 23t-39 4v90z" />
    <glyph glyph-name="uni00B9" unicode="&#xb9;" 
d="M601 950v-1200h-602v1200h602zM290 840l-120 -25v-70l90 15v-260h-90v-70h260v70h-90v340h-50z" />
    <glyph glyph-name="ordmasculine" unicode="&#xba;" 
d="M601 950v-1200h-602v1200h602zM300 370q47 0 77 10t47.5 29.5t24 49.5t6.5 71q0 40 -6.5 70.5t-24 50t-47.5 29.5t-77 10t-77 -10t-47.5 -29.5t-24 -50t-6.5 -70.5q0 -41 6.5 -71t24 -49.5t47.5 -29.5t77 -10zM300 440q-24 0 -38.5 5t-22.5 15.5t-11 28t-3 41.5t3 41.5
t11 28t22.5 15.5t38.5 5t38.5 -5t23 -15.5t11 -28t2.5 -41.5t-2.5 -41.5t-11 -28t-23 -15.5t-38.5 -5zM130 260h340v70h-340v-70z" />
    <glyph glyph-name="guillemotright" unicode="&#xbb;" 
d="M601 950v-1200h-602v1200h602zM75 75l210 130v100l-210 130v-100l130 -80l-130 -80v-100zM315 75l210 130v100l-210 130v-100l130 -80l-130 -80v-100z" />
    <glyph glyph-name="onequarter" unicode="&#xbc;" 
d="M601 950v-1200h-602v1200h602zM290 840l-120 -25v-70l90 15v-260h-90v-70h260v70h-90v340h-50zM70 300h460v80h-460v-80zM460 0h-50v250h-80l-190 -250v-70h190v-90h80v90h50v70zM220 0l110 140v-140h-110z" />
    <glyph glyph-name="onehalf" unicode="&#xbd;" 
d="M601 950v-1200h-602v1200h602zM290 840l-120 -25v-70l90 15v-260h-90v-70h260v70h-90v340h-50zM70 300h460v80h-460v-80zM220 -65q0 16 17.5 27.5t43.5 22t56.5 21.5t56.5 28t43.5 41t17.5 59q0 27 -7 50t-25 40t-48 26.5t-75 9.5q-51 0 -81.5 -10t-47 -29.5t-21.5 -48.5
t-5 -68h80q0 27 3 43.5t11.5 26t23 13t37.5 3.5q25 0 40 -4t23 -11.5t10 -18t2 -22.5q0 -18 -17.5 -30t-43.5 -22t-56.5 -21t-56.5 -27t-43.5 -39.5t-17.5 -59.5v-95h320v127h-80v-57h-160v25z" />
    <glyph glyph-name="threequarters" unicode="&#xbe;" 
d="M601 950v-1200h-602v1200h602zM250 605h86q25 0 34.5 -18.5t9.5 -36.5q0 -32 -15.5 -46t-64.5 -14q-17 0 -31.5 3t-25.5 12t-17 26t-6 44h-80q0 -39 7.5 -68.5t26 -48.5t49.5 -28.5t77 -9.5t77 10.5t49.5 27t26 38t7.5 44.5q0 45 -17.5 68t-52.5 32v5q10 3 20.5 9
t19.5 16.5t14.5 25t5.5 34.5q0 63 -35 91.5t-115 28.5q-51 0 -82 -12t-47 -32.5t-21 -49t-5 -61.5h80q0 27 5 43.5t14.5 25.5t23.5 12.5t32 3.5q32 0 51 -10.5t19 -49.5q0 -21 -16 -33t-40 -12h-64v-70zM70 300h460v80h-460v-80zM460 0h-50v250h-80l-190 -250v-70h190v-90
h80v90h50v70zM220 0l110 140v-140h-110z" />
    <glyph glyph-name="questiondown" unicode="&#xbf;" 
d="M601 950v-1200h-602v1200h602zM370 498h-120v-120h120v120zM430 58q0 -48 -5 -77t-19 -45.5t-39.5 -22t-66.5 -5.5t-67.5 5t-41.5 16.5t-20.5 30.5t-5.5 48q0 36 15 55t38 31.5t49.5 24t49.5 33t38 58t15 98.5h-120q0 -40 -15 -60t-38 -32.5t-49.5 -22.5t-49.5 -30
t-38 -56t-15 -99q0 -42 12 -78.5t41.5 -63.5t78.5 -42.5t123 -15.5q79 0 128 15t76 45.5t36.5 77.5t9.5 112h-120z" />
    <glyph glyph-name="Agrave" unicode="&#xc0;" 
d="M601 950v-1200h-602v1200h602zM145 870l100 -130h110l-80 130h-130zM20 35v-35h110l46 140h248l46 -140h110v35l-215 650h-130zM305 545l25 -115l62 -190h-184l62 190l25 115h10z" />
    <glyph glyph-name="Aacute" unicode="&#xc1;" 
d="M601 950v-1200h-602v1200h602zM245 740h110l100 130h-130zM20 35v-35h110l46 140h248l46 -140h110v35l-215 650h-130zM305 545l25 -115l62 -190h-184l62 190l25 115h10z" />
    <glyph glyph-name="Acircumflex" unicode="&#xc2;" 
d="M601 950v-1200h-602v1200h602zM470 740l-110 130h-120l-110 -130h110l60 70l60 -70h110zM20 35v-35h110l46 140h248l46 -140h110v35l-215 650h-130zM305 545l25 -115l62 -190h-184l62 190l25 115h10z" />
    <glyph glyph-name="Atilde" unicode="&#xc3;" 
d="M601 950v-1200h-602v1200h602zM436 873q-21 -29 -36 -37.5t-29 -8.5q-13 0 -28.5 6.5t-33 15t-36.5 15t-37 6.5q-26 0 -59 -15t-62 -63l44 -53q15 16 26.5 24.5t20.5 12.5t17 5t16 1q14 0 31.5 -6.5t35.5 -14.5t36 -14.5t34 -6.5q41 0 66 23t43 53zM20 35v-35h110l46 140
h248l46 -140h110v35l-215 650h-130zM305 545l25 -115l62 -190h-184l62 190l25 115h10z" />
    <glyph glyph-name="Adieresis" unicode="&#xc4;" 
d="M601 950v-1200h-602v1200h602zM140 740h120v120h-120v-120zM340 740h120v120h-120v-120zM20 35v-35h110l46 140h248l46 -140h110v35l-215 650h-130zM305 545l25 -115l62 -190h-184l62 190l25 115h10z" />
    <glyph glyph-name="Aring" unicode="&#xc5;" 
d="M601 950v-1200h-602v1200h602zM193 828q0 -25 5 -41.5t17 -27t33 -15t53 -4.5q31 0 51.5 4t33 14t17.5 27t5 43q0 24 -4.5 40.5t-16.5 27.5t-33 16t-54 5q-35 0 -56 -6t-32 -17t-15 -27.5t-4 -38.5zM250 828q0 10 1.5 16.5t6.5 10t15 4.5t27 1q18 0 28 -1t15 -4.5
t6.5 -10t1.5 -16.5q0 -11 -1.5 -17t-6.5 -9t-15 -4t-27 -1q-18 0 -28 1t-15 4t-6.5 9t-1.5 17zM20 35v-35h110l46 140h248l46 -140h110v35l-215 650h-130zM305 545l25 -115l62 -190h-184l62 190l25 115h10z" />
    <glyph glyph-name="AE" unicode="&#xc6;" 
d="M601 950v-1200h-602v1200h602zM580 580v100h-365l-195 -645v-35h110l46 135h104v-135h300v100h-160v195h130v100h-130v185h160zM208 235l52 190l10 55h10v-245h-72z" />
    <glyph glyph-name="Ccedilla" unicode="&#xc7;" 
d="M601 950v-1200h-602v1200h602zM560 440q0 64 -8.5 111.5t-36 78t-79 45.5t-136.5 15t-136.5 -18t-79 -59t-36 -108t-8.5 -165q0 -95 8 -160t32 -106.5t69.5 -60.5t120.5 -22v-81q23 0 39 -4t16 -23q0 -15 -11 -20t-28 -5q-11 0 -22 1t-23 3l-8 -60q20 -6 43 -9t41 -3
q51 0 78.5 22t27.5 63q0 49 -25.5 67t-67.5 18v30q75 3 120.5 19t69.5 46.5t32 76.5t8 108h-120q0 -48 -5 -77.5t-20 -45.5t-42.5 -21.5t-72.5 -5.5t-72.5 7t-42.5 32.5t-20 75t-5 135.5q0 85 5 135t20 75.5t42.5 32.5t72.5 7t72.5 -5.5t42.5 -22t20 -45.5t5 -77h120z" />
    <glyph glyph-name="Egrave" unicode="&#xc8;" 
d="M601 950v-1200h-602v1200h602zM150 870l100 -130h110l-80 130h-130zM540 580v100h-470v-680h470v100h-350v195h300v100h-300v185h350z" />
    <glyph glyph-name="Eacute" unicode="&#xc9;" 
d="M601 950v-1200h-602v1200h602zM250 740h110l100 130h-130zM540 580v100h-470v-680h470v100h-350v195h300v100h-300v185h350z" />
    <glyph glyph-name="Ecircumflex" unicode="&#xca;" 
d="M601 950v-1200h-602v1200h602zM475 740l-110 130h-120l-110 -130h110l60 70l60 -70h110zM540 580v100h-470v-680h470v100h-350v195h300v100h-300v185h350z" />
    <glyph glyph-name="Edieresis" unicode="&#xcb;" 
d="M601 950v-1200h-602v1200h602zM145 740h120v120h-120v-120zM345 740h120v120h-120v-120zM540 580v100h-470v-680h470v100h-350v195h300v100h-300v185h350z" />
    <glyph glyph-name="Igrave" unicode="&#xcc;" 
d="M601 950v-1200h-602v1200h602zM145 870l100 -130h110l-80 130h-130zM510 580v100h-420v-100h150v-480h-150v-100h420v100h-150v480h150z" />
    <glyph glyph-name="Iacute" unicode="&#xcd;" 
d="M601 950v-1200h-602v1200h602zM245 740h110l100 130h-130zM510 580v100h-420v-100h150v-480h-150v-100h420v100h-150v480h150z" />
    <glyph glyph-name="Icircumflex" unicode="&#xce;" 
d="M601 950v-1200h-602v1200h602zM470 740l-110 130h-120l-110 -130h110l60 70l60 -70h110zM510 580v100h-420v-100h150v-480h-150v-100h420v100h-150v480h150z" />
    <glyph glyph-name="Idieresis" unicode="&#xcf;" 
d="M601 950v-1200h-602v1200h602zM140 740h120v120h-120v-120zM340 740h120v120h-120v-120zM510 580v100h-420v-100h150v-480h-150v-100h420v100h-150v480h150z" />
    <glyph glyph-name="Eth" unicode="&#xd0;" 
d="M601 950v-1200h-602v1200h602zM70 680v-290h-50v-100h50v-290h230q85 0 136.5 17.5t79 57.5t36 105t8.5 160q0 94 -8.5 159t-36 105.5t-79 58t-136.5 17.5h-230zM190 100v190h90v100h-90v190h110q45 0 72.5 -7t42.5 -31.5t20 -72.5t5 -129q0 -82 -5 -130t-20 -72.5
t-42.5 -31t-72.5 -6.5h-110z" />
    <glyph glyph-name="Ntilde" unicode="&#xd1;" 
d="M601 950v-1200h-602v1200h602zM436 873q-21 -29 -36 -37.5t-29 -8.5q-13 0 -28.5 6.5t-33 15t-36.5 15t-37 6.5q-26 0 -59 -15t-62 -63l44 -53q15 16 26.5 24.5t20.5 12.5t17 5t16 1q14 0 31.5 -6.5t35.5 -14.5t36 -14.5t34 -6.5q41 0 66 23t43 53zM170 680h-120v-680
h110v375l-10 100h10l270 -475h120v680h-110v-370l10 -100h-10z" />
    <glyph glyph-name="Ograve" unicode="&#xd2;" 
d="M601 950v-1200h-602v1200h602zM145 870l100 -130h110l-80 130h-130zM300 -10q85 0 136.5 17.5t79 58.5t36 108t8.5 166q0 98 -8.5 165t-36 108t-79 59t-136.5 18t-136.5 -18t-79 -59t-36 -108t-8.5 -165q0 -99 8.5 -166t36 -108t79 -58.5t136.5 -17.5zM300 590
q45 0 72.5 -7t42.5 -32.5t20 -75.5t5 -135q0 -86 -5 -135.5t-20 -75t-42.5 -32.5t-72.5 -7t-72.5 7t-42.5 32.5t-20 75t-5 135.5q0 85 5 135t20 75.5t42.5 32.5t72.5 7z" />
    <glyph glyph-name="Oacute" unicode="&#xd3;" 
d="M601 950v-1200h-602v1200h602zM245 740h110l100 130h-130zM300 -10q85 0 136.5 17.5t79 58.5t36 108t8.5 166q0 98 -8.5 165t-36 108t-79 59t-136.5 18t-136.5 -18t-79 -59t-36 -108t-8.5 -165q0 -99 8.5 -166t36 -108t79 -58.5t136.5 -17.5zM300 590q45 0 72.5 -7
t42.5 -32.5t20 -75.5t5 -135q0 -86 -5 -135.5t-20 -75t-42.5 -32.5t-72.5 -7t-72.5 7t-42.5 32.5t-20 75t-5 135.5q0 85 5 135t20 75.5t42.5 32.5t72.5 7z" />
    <glyph glyph-name="Ocircumflex" unicode="&#xd4;" 
d="M601 950v-1200h-602v1200h602zM470 740l-110 130h-120l-110 -130h110l60 70l60 -70h110zM300 -10q85 0 136.5 17.5t79 58.5t36 108t8.5 166q0 98 -8.5 165t-36 108t-79 59t-136.5 18t-136.5 -18t-79 -59t-36 -108t-8.5 -165q0 -99 8.5 -166t36 -108t79 -58.5t136.5 -17.5
zM300 590q45 0 72.5 -7t42.5 -32.5t20 -75.5t5 -135q0 -86 -5 -135.5t-20 -75t-42.5 -32.5t-72.5 -7t-72.5 7t-42.5 32.5t-20 75t-5 135.5q0 85 5 135t20 75.5t42.5 32.5t72.5 7z" />
    <glyph glyph-name="Otilde" unicode="&#xd5;" 
d="M601 950v-1200h-602v1200h602zM436 873q-21 -29 -36 -37.5t-29 -8.5q-13 0 -28.5 6.5t-33 15t-36.5 15t-37 6.5q-26 0 -59 -15t-62 -63l44 -53q15 16 26.5 24.5t20.5 12.5t17 5t16 1q14 0 31.5 -6.5t35.5 -14.5t36 -14.5t34 -6.5q41 0 66 23t43 53zM300 -10
q85 0 136.5 17.5t79 58.5t36 108t8.5 166q0 98 -8.5 165t-36 108t-79 59t-136.5 18t-136.5 -18t-79 -59t-36 -108t-8.5 -165q0 -99 8.5 -166t36 -108t79 -58.5t136.5 -17.5zM300 590q45 0 72.5 -7t42.5 -32.5t20 -75.5t5 -135q0 -86 -5 -135.5t-20 -75t-42.5 -32.5t-72.5 -7
t-72.5 7t-42.5 32.5t-20 75t-5 135.5q0 85 5 135t20 75.5t42.5 32.5t72.5 7z" />
    <glyph glyph-name="Odieresis" unicode="&#xd6;" 
d="M601 950v-1200h-602v1200h602zM140 740h120v120h-120v-120zM340 740h120v120h-120v-120zM300 -10q85 0 136.5 17.5t79 58.5t36 108t8.5 166q0 98 -8.5 165t-36 108t-79 59t-136.5 18t-136.5 -18t-79 -59t-36 -108t-8.5 -165q0 -99 8.5 -166t36 -108t79 -58.5t136.5 -17.5
zM300 590q45 0 72.5 -7t42.5 -32.5t20 -75.5t5 -135q0 -86 -5 -135.5t-20 -75t-42.5 -32.5t-72.5 -7t-72.5 7t-42.5 32.5t-20 75t-5 135.5q0 85 5 135t20 75.5t42.5 32.5t72.5 7z" />
    <glyph glyph-name="multiply" unicode="&#xd7;" 
d="M601 950v-1200h-602v1200h602zM392 503l-92 -92l-92 92l-71 -71l92 -92l-92 -92l71 -71l92 92l92 -92l71 71l-92 92l92 92z" />
    <glyph glyph-name="Oslash" unicode="&#xd8;" 
d="M601 950v-1200h-602v1200h602zM300 690q-85 0 -136.5 -18t-79 -59t-36 -108t-8.5 -165q0 -99 8.5 -166t36 -108t79 -58.5t136.5 -17.5t136.5 17.5t79 58.5t36 108t8.5 166q0 98 -8.5 165t-36 108t-79 59t-136.5 18zM168 181q-5 28 -6.5 66.5t-1.5 92.5q0 85 5 135
t20 75.5t42.5 32.5t72.5 7q32 0 56 -3zM431 500q5 -27 7 -66.5t2 -93.5q0 -86 -5 -135.5t-20 -75t-42.5 -32.5t-72.5 -7q-32 0 -56 3z" />
    <glyph glyph-name="Ugrave" unicode="&#xd9;" 
d="M601 950v-1200h-602v1200h602zM145 870l100 -130h110l-80 130h-130zM165 680h-120v-440q0 -65 8.5 -112.5t35.5 -78t77.5 -45t133.5 -14.5t133.5 14.5t77.5 45t35.5 78t8.5 112.5v440h-120v-440q0 -48 -5.5 -77.5t-20.5 -45.5t-41.5 -21.5t-67.5 -5.5q-43 0 -69.5 5.5
t-41 21.5t-19.5 45.5t-5 77.5v440z" />
    <glyph glyph-name="Uacute" unicode="&#xda;" 
d="M601 950v-1200h-602v1200h602zM245 740h110l100 130h-130zM165 680h-120v-440q0 -65 8.5 -112.5t35.5 -78t77.5 -45t133.5 -14.5t133.5 14.5t77.5 45t35.5 78t8.5 112.5v440h-120v-440q0 -48 -5.5 -77.5t-20.5 -45.5t-41.5 -21.5t-67.5 -5.5q-43 0 -69.5 5.5t-41 21.5
t-19.5 45.5t-5 77.5v440z" />
    <glyph glyph-name="Ucircumflex" unicode="&#xdb;" 
d="M601 950v-1200h-602v1200h602zM470 740l-110 130h-120l-110 -130h110l60 70l60 -70h110zM165 680h-120v-440q0 -65 8.5 -112.5t35.5 -78t77.5 -45t133.5 -14.5t133.5 14.5t77.5 45t35.5 78t8.5 112.5v440h-120v-440q0 -48 -5.5 -77.5t-20.5 -45.5t-41.5 -21.5t-67.5 -5.5
q-43 0 -69.5 5.5t-41 21.5t-19.5 45.5t-5 77.5v440z" />
    <glyph glyph-name="Udieresis" unicode="&#xdc;" 
d="M601 950v-1200h-602v1200h602zM140 740h120v120h-120v-120zM340 740h120v120h-120v-120zM165 680h-120v-440q0 -65 8.5 -112.5t35.5 -78t77.5 -45t133.5 -14.5t133.5 14.5t77.5 45t35.5 78t8.5 112.5v440h-120v-440q0 -48 -5.5 -77.5t-20.5 -45.5t-41.5 -21.5t-67.5 -5.5
q-43 0 -69.5 5.5t-41 21.5t-19.5 45.5t-5 77.5v440z" />
    <glyph glyph-name="Yacute" unicode="&#xdd;" 
d="M601 950v-1200h-602v1200h602zM245 740h110l100 130h-130zM20 645l220 -440v-205h120v205l220 440v35h-110l-145 -305l-20 -60h-10l-20 60l-145 305h-110v-35z" />
    <glyph glyph-name="Thorn" unicode="&#xde;" 
d="M601 950v-1200h-602v1200h602zM170 560v120h-120v-680h120v120h175q111 0 163 59t52 161q0 103 -52 161.5t-163 58.5h-175zM170 220v240h170q58 0 79 -30t21 -90t-21 -90t-79 -30h-170z" />
    <glyph glyph-name="germandbls" unicode="&#xdf;" 
d="M601 950v-1200h-602v1200h602zM0 -200q103 0 151.5 41t48.5 128v535q0 37 25.5 61t85.5 24q41 -2 55 -19t14 -40q0 -22 -22 -39t-48 -35.5t-48 -43t-22 -62.5q0 -39 14 -60.5t35 -33.5t46 -18t46 -14t35 -22.5t14 -41.5q0 -15 -5 -26.5t-19.5 -19t-41 -11t-69.5 -3.5h-55
v-100h55q75 0 124 9.5t78.5 29t41 50t11.5 71.5q0 47 -14 74.5t-35 42.5t-46 22t-46 12.5t-35 13t-14 25.5q0 16 10.5 29t26 25t33.5 24.5t33.5 28t26 35.5t10.5 48q0 150 -195 150q-109 0 -167 -41t-58 -128v-21h-60v-100h60v-424q0 -18 -3 -32t-11.5 -23.5t-24 -14.5
t-41.5 -5v-101z" />
    <glyph glyph-name="agrave" unicode="&#xe0;" 
d="M601 950v-1200h-602v1200h602zM145 690l100 -130h110l-80 130h-130zM410 60v-6q0 -38 21 -51t59 -13q20 0 45 3t45 7v100q-15 -5 -30 -5q-23 0 -26.5 10.5t-3.5 29.5v365h-60l-50 -60h-10q-23 38 -60 54t-90 16q-56 0 -94.5 -15.5t-62 -47t-33.5 -81t-10 -116.5
q0 -68 10 -117t33.5 -80.5t62 -47t94.5 -15.5q53 0 90 16t60 54h10zM400 100q-24 -5 -53 -7.5t-47 -2.5q-43 0 -69 8t-39.5 27t-17.5 49.5t-4 75.5t4 75.5t17.5 49.5t39.5 27t69 8q18 0 47 -2.5t53 -7.5v-300z" />
    <glyph glyph-name="aacute" unicode="&#xe1;" 
d="M601 950v-1200h-602v1200h602zM245 560h110l100 130h-130zM410 60v-6q0 -38 21 -51t59 -13q20 0 45 3t45 7v100q-15 -5 -30 -5q-23 0 -26.5 10.5t-3.5 29.5v365h-60l-50 -60h-10q-23 38 -60 54t-90 16q-56 0 -94.5 -15.5t-62 -47t-33.5 -81t-10 -116.5q0 -68 10 -117
t33.5 -80.5t62 -47t94.5 -15.5q53 0 90 16t60 54h10zM400 100q-24 -5 -53 -7.5t-47 -2.5q-43 0 -69 8t-39.5 27t-17.5 49.5t-4 75.5t4 75.5t17.5 49.5t39.5 27t69 8q18 0 47 -2.5t53 -7.5v-300z" />
    <glyph glyph-name="acircumflex" unicode="&#xe2;" 
d="M601 950v-1200h-602v1200h602zM470 560l-110 130h-120l-110 -130h110l60 70l60 -70h110zM410 60v-6q0 -38 21 -51t59 -13q20 0 45 3t45 7v100q-15 -5 -30 -5q-23 0 -26.5 10.5t-3.5 29.5v365h-60l-50 -60h-10q-23 38 -60 54t-90 16q-56 0 -94.5 -15.5t-62 -47t-33.5 -81
t-10 -116.5q0 -68 10 -117t33.5 -80.5t62 -47t94.5 -15.5q53 0 90 16t60 54h10zM400 100q-24 -5 -53 -7.5t-47 -2.5q-43 0 -69 8t-39.5 27t-17.5 49.5t-4 75.5t4 75.5t17.5 49.5t39.5 27t69 8q18 0 47 -2.5t53 -7.5v-300z" />
    <glyph glyph-name="atilde" unicode="&#xe3;" 
d="M601 950v-1200h-602v1200h602zM436 693q-21 -29 -36 -37.5t-29 -8.5q-13 0 -28.5 6.5t-33 15t-36.5 15t-37 6.5q-26 0 -59 -15t-62 -63l44 -53q15 16 26.5 24.5t20.5 12.5t17 5t16 1q14 0 31.5 -6.5t35.5 -14.5t36 -14.5t34 -6.5q41 0 66 23t43 53zM410 60v-6
q0 -38 21 -51t59 -13q20 0 45 3t45 7v100q-15 -5 -30 -5q-23 0 -26.5 10.5t-3.5 29.5v365h-60l-50 -60h-10q-23 38 -60 54t-90 16q-56 0 -94.5 -15.5t-62 -47t-33.5 -81t-10 -116.5q0 -68 10 -117t33.5 -80.5t62 -47t94.5 -15.5q53 0 90 16t60 54h10zM400 100
q-24 -5 -53 -7.5t-47 -2.5q-43 0 -69 8t-39.5 27t-17.5 49.5t-4 75.5t4 75.5t17.5 49.5t39.5 27t69 8q18 0 47 -2.5t53 -7.5v-300z" />
    <glyph glyph-name="adieresis" unicode="&#xe4;" 
d="M601 950v-1200h-602v1200h602zM140 560h120v120h-120v-120zM340 560h120v120h-120v-120zM410 60v-6q0 -38 21 -51t59 -13q20 0 45 3t45 7v100q-15 -5 -30 -5q-23 0 -26.5 10.5t-3.5 29.5v365h-60l-50 -60h-10q-23 38 -60 54t-90 16q-56 0 -94.5 -15.5t-62 -47t-33.5 -81
t-10 -116.5q0 -68 10 -117t33.5 -80.5t62 -47t94.5 -15.5q53 0 90 16t60 54h10zM400 100q-24 -5 -53 -7.5t-47 -2.5q-43 0 -69 8t-39.5 27t-17.5 49.5t-4 75.5t4 75.5t17.5 49.5t39.5 27t69 8q18 0 47 -2.5t53 -7.5v-300z" />
    <glyph glyph-name="aring" unicode="&#xe5;" 
d="M601 950v-1200h-602v1200h602zM193 648q0 -25 5 -41.5t17 -27t33 -15t53 -4.5q31 0 51.5 4t33 14t17.5 27t5 43q0 24 -4.5 40.5t-16.5 27.5t-33 16t-54 5q-35 0 -56 -6t-32 -17t-15 -27.5t-4 -38.5zM250 648q0 10 1.5 16.5t6.5 10t15 4.5t27 1q18 0 28 -1t15 -4.5
t6.5 -10t1.5 -16.5q0 -11 -1.5 -17t-6.5 -9t-15 -4t-27 -1q-18 0 -28 1t-15 4t-6.5 9t-1.5 17zM410 60v-6q0 -38 21 -51t59 -13q20 0 45 3t45 7v100q-15 -5 -30 -5q-23 0 -26.5 10.5t-3.5 29.5v365h-60l-50 -60h-10q-23 38 -60 54t-90 16q-56 0 -94.5 -15.5t-62 -47
t-33.5 -81t-10 -116.5q0 -68 10 -117t33.5 -80.5t62 -47t94.5 -15.5q53 0 90 16t60 54h10zM400 100q-24 -5 -53 -7.5t-47 -2.5q-43 0 -69 8t-39.5 27t-17.5 49.5t-4 75.5t4 75.5t17.5 49.5t39.5 27t69 8q18 0 47 -2.5t53 -7.5v-300z" />
    <glyph glyph-name="ae" unicode="&#xe6;" 
d="M601 950v-1200h-602v1200h602zM580 165h-110v-10q0 -38 -14 -51.5t-43 -13.5q-31 0 -44 12t-13 49v54h69q44 0 74 6t48 21.5t25.5 44t7.5 73.5t-7.5 75.5t-25.5 49.5t-48 27t-74 8q-39 0 -67.5 -12t-48.5 -27q-18 14 -45 26.5t-65 12.5q-60 0 -95.5 -15.5t-54 -47
t-24 -81t-5.5 -116.5q0 -68 5 -117t20 -80.5t42.5 -47t72.5 -15.5q37 0 63 14.5t46 37.5q17 -28 50 -40t93 -12q51 0 84 13.5t51.5 36t25.5 52.5t7 63v10zM245 205q0 -32 1 -57.5t5 -46.5q-23 -11 -37.5 -13.5t-23.5 -2.5q-17 0 -27 9t-15 28.5t-6.5 51t-1.5 76.5t1.5 75.5
t6.5 49.5t15 27t27 8q37 0 46 -13.5t9 -34.5v-157zM357 290v60q0 21 6 33t14.5 18t18.5 7.5t19 1.5q26 0 40.5 -12.5t14.5 -47.5t-14.5 -47.5t-40.5 -12.5h-58z" />
    <glyph glyph-name="ccedilla" unicode="&#xe7;" 
d="M601 950v-1200h-602v1200h602zM550 325q0 47 -12 81.5t-40 57.5t-75.5 34.5t-117.5 11.5q-75 0 -124 -15.5t-78.5 -47t-41 -81t-11.5 -116.5q0 -63 10 -110.5t35.5 -79t67.5 -49t107 -20.5v-81q23 0 39 -4t16 -23q0 -15 -11 -20t-28 -5q-11 0 -22 1t-23 3l-8 -60
q20 -6 43 -9t41 -3q51 0 78.5 22t27.5 63q0 49 -25.5 67t-67.5 18v30q63 2 105.5 14.5t68 35.5t36 56.5t10.5 78.5h-115q0 -23 -5.5 -39t-20 -26t-40 -15t-64.5 -5q-43 0 -69.5 8t-41 27t-19.5 49.5t-5 75.5t5 75.5t19.5 49.5t41 27t69.5 8q39 0 64 -5t40 -15.5t20.5 -26.5
t5.5 -38h115z" />
    <glyph glyph-name="egrave" unicode="&#xe8;" 
d="M601 950v-1200h-602v1200h602zM435 175q0 -23 -5.5 -39t-20 -26t-40 -15t-64.5 -5q-34 0 -58 3.5t-39.5 15t-24 33t-11.5 58.5h193q63 0 100 11t55.5 31t24 48.5t5.5 64.5t-12 64.5t-40 48.5t-75.5 31t-117.5 11q-75 0 -124 -15.5t-78.5 -47t-41 -81t-11.5 -116.5
q0 -68 11.5 -117t41 -80.5t78.5 -47t124 -15.5q71 0 118 11t75.5 34t40 58t11.5 82h-115zM173 300q4 33 13.5 54t25.5 33.5t39 17.5t54 5q39 0 64 -3t40 -10t20.5 -17t5.5 -25q0 -29 -14.5 -42t-55.5 -13h-192z" />
    <glyph glyph-name="eacute" unicode="&#xe9;" 
d="M601 950v-1200h-602v1200h602zM435 175q0 -23 -5.5 -39t-20 -26t-40 -15t-64.5 -5q-34 0 -58 3.5t-39.5 15t-24 33t-11.5 58.5h193q63 0 100 11t55.5 31t24 48.5t5.5 64.5t-12 64.5t-40 48.5t-75.5 31t-117.5 11q-75 0 -124 -15.5t-78.5 -47t-41 -81t-11.5 -116.5
q0 -68 11.5 -117t41 -80.5t78.5 -47t124 -15.5q71 0 118 11t75.5 34t40 58t11.5 82h-115zM173 300q4 33 13.5 54t25.5 33.5t39 17.5t54 5q39 0 64 -3t40 -10t20.5 -17t5.5 -25q0 -29 -14.5 -42t-55.5 -13h-192z" />
    <glyph glyph-name="ecircumflex" unicode="&#xea;" 
d="M601 950v-1200h-602v1200h602zM435 175q0 -23 -5.5 -39t-20 -26t-40 -15t-64.5 -5q-34 0 -58 3.5t-39.5 15t-24 33t-11.5 58.5h193q63 0 100 11t55.5 31t24 48.5t5.5 64.5t-12 64.5t-40 48.5t-75.5 31t-117.5 11q-75 0 -124 -15.5t-78.5 -47t-41 -81t-11.5 -116.5
q0 -68 11.5 -117t41 -80.5t78.5 -47t124 -15.5q71 0 118 11t75.5 34t40 58t11.5 82h-115zM173 300q4 33 13.5 54t25.5 33.5t39 17.5t54 5q39 0 64 -3t40 -10t20.5 -17t5.5 -25q0 -29 -14.5 -42t-55.5 -13h-192z" />
    <glyph glyph-name="edieresis" unicode="&#xeb;" 
d="M601 950v-1200h-602v1200h602zM435 175q0 -23 -5.5 -39t-20 -26t-40 -15t-64.5 -5q-34 0 -58 3.5t-39.5 15t-24 33t-11.5 58.5h193q63 0 100 11t55.5 31t24 48.5t5.5 64.5t-12 64.5t-40 48.5t-75.5 31t-117.5 11q-75 0 -124 -15.5t-78.5 -47t-41 -81t-11.5 -116.5
q0 -68 11.5 -117t41 -80.5t78.5 -47t124 -15.5q71 0 118 11t75.5 34t40 58t11.5 82h-115zM173 300q4 33 13.5 54t25.5 33.5t39 17.5t54 5q39 0 64 -3t40 -10t20.5 -17t5.5 -25q0 -29 -14.5 -42t-55.5 -13h-192z" />
    <glyph glyph-name="igrave" unicode="&#xec;" 
d="M601 950v-1200h-602v1200h602zM155 690l100 -130h110l-80 130h-130zM80 500v-100h170v-241q0 -43 12.5 -75t34 -53t50 -31t60.5 -10q17 0 38 2t41 5.5t38.5 7.5t30.5 8l-14 95q-20 -5 -49.5 -11t-60.5 -6q-61 0 -61 75v334h-290z" />
    <glyph glyph-name="iacute" unicode="&#xed;" 
d="M601 950v-1200h-602v1200h602zM255 560h110l100 130h-130zM80 500v-100h170v-241q0 -43 12.5 -75t34 -53t50 -31t60.5 -10q17 0 38 2t41 5.5t38.5 7.5t30.5 8l-14 95q-20 -5 -49.5 -11t-60.5 -6q-61 0 -61 75v334h-290z" />
    <glyph glyph-name="icircumflex" unicode="&#xee;" 
d="M601 950v-1200h-602v1200h602zM480 560l-110 130h-120l-110 -130h110l60 70l60 -70h110zM80 500v-100h170v-241q0 -43 12.5 -75t34 -53t50 -31t60.5 -10q17 0 38 2t41 5.5t38.5 7.5t30.5 8l-14 95q-20 -5 -49.5 -11t-60.5 -6q-61 0 -61 75v334h-290z" />
    <glyph glyph-name="idieresis" unicode="&#xef;" 
d="M601 950v-1200h-602v1200h602zM150 560h120v120h-120v-120zM350 560h120v120h-120v-120zM80 500v-100h170v-241q0 -43 12.5 -75t34 -53t50 -31t60.5 -10q17 0 38 2t41 5.5t38.5 7.5t30.5 8l-14 95q-20 -5 -49.5 -11t-60.5 -6q-61 0 -61 75v334h-290z" />
    <glyph glyph-name="eth" unicode="&#xf0;" 
d="M601 950v-1200h-602v1200h602zM320 749h-100v-59h-75v-100h75v-46h100v44q18 -2 32 -8.5t25 -21.5t18.5 -41t12.5 -66q-23 32 -58.5 45.5t-84.5 13.5q-56 0 -94.5 -15.5t-62 -47t-33.5 -81t-10 -116.5q0 -68 10.5 -117t34.5 -80.5t64.5 -47t100.5 -15.5q85 0 136.5 17.5
t79 58.5t36 108t8.5 166q0 97 -9.5 162.5t-34 105.5t-66 58.5t-105.5 22.5v60zM295 90q-36 0 -57.5 8t-33 27t-15.5 49.5t-4 75.5t4 75.5t17.5 49.5t39.5 27t69 8q17 0 45 -2t52 -7q1 -10 1 -20t1 -21q-1 -95 -6 -149t-18.5 -81t-36 -33.5t-58.5 -6.5z" />
    <glyph glyph-name="ntilde" unicode="&#xf1;" 
d="M601 950v-1200h-602v1200h602zM436 693q-21 -29 -36 -37.5t-29 -8.5q-13 0 -28.5 6.5t-33 15t-36.5 15t-37 6.5q-26 0 -59 -15t-62 -63l44 -53q15 16 26.5 24.5t20.5 12.5t17 5t16 1q14 0 31.5 -6.5t35.5 -14.5t36 -14.5t34 -6.5q41 0 66 23t43 53zM190 440l-20 60h-150
v-100h60v-400h120v400q24 5 50.5 7.5t44.5 2.5q56 0 80.5 -15.5t24.5 -64.5v-250q0 -49 27.5 -69.5t72.5 -20.5q21 0 42.5 3t37.5 7v100q-15 -5 -30 -5q-23 0 -26.5 10.5t-3.5 29.5v215q0 45 -11 75.5t-32.5 49.5t-53.5 27t-73 8q-53 0 -90 -16t-60 -54h-10z" />
    <glyph glyph-name="ograve" unicode="&#xf2;" 
d="M601 950v-1200h-602v1200h602zM145 690l100 -130h110l-80 130h-130zM300 -10q75 0 123.5 15.5t76.5 47t39 80.5t11 117q0 67 -11 116.5t-39 81t-76.5 47t-123.5 15.5t-123.5 -15.5t-76.5 -47t-39 -81t-11 -116.5q0 -68 11 -117t39 -80.5t76.5 -47t123.5 -15.5zM300 90
q-43 0 -69 8t-39.5 27t-17.5 49.5t-4 75.5t4 75.5t17.5 49.5t39.5 27t69 8t69 -8t39.5 -27t17.5 -49.5t4 -75.5t-4 -75.5t-17.5 -49.5t-39.5 -27t-69 -8z" />
    <glyph glyph-name="oacute" unicode="&#xf3;" 
d="M601 950v-1200h-602v1200h602zM245 560h110l100 130h-130zM300 -10q75 0 123.5 15.5t76.5 47t39 80.5t11 117q0 67 -11 116.5t-39 81t-76.5 47t-123.5 15.5t-123.5 -15.5t-76.5 -47t-39 -81t-11 -116.5q0 -68 11 -117t39 -80.5t76.5 -47t123.5 -15.5zM300 90q-43 0 -69 8
t-39.5 27t-17.5 49.5t-4 75.5t4 75.5t17.5 49.5t39.5 27t69 8t69 -8t39.5 -27t17.5 -49.5t4 -75.5t-4 -75.5t-17.5 -49.5t-39.5 -27t-69 -8z" />
    <glyph glyph-name="ocircumflex" unicode="&#xf4;" 
d="M601 950v-1200h-602v1200h602zM470 560l-110 130h-120l-110 -130h110l60 70l60 -70h110zM300 -10q75 0 123.5 15.5t76.5 47t39 80.5t11 117q0 67 -11 116.5t-39 81t-76.5 47t-123.5 15.5t-123.5 -15.5t-76.5 -47t-39 -81t-11 -116.5q0 -68 11 -117t39 -80.5t76.5 -47
t123.5 -15.5zM300 90q-43 0 -69 8t-39.5 27t-17.5 49.5t-4 75.5t4 75.5t17.5 49.5t39.5 27t69 8t69 -8t39.5 -27t17.5 -49.5t4 -75.5t-4 -75.5t-17.5 -49.5t-39.5 -27t-69 -8z" />
    <glyph glyph-name="otilde" unicode="&#xf5;" 
d="M601 950v-1200h-602v1200h602zM436 693q-21 -29 -36 -37.5t-29 -8.5q-13 0 -28.5 6.5t-33 15t-36.5 15t-37 6.5q-26 0 -59 -15t-62 -63l44 -53q15 16 26.5 24.5t20.5 12.5t17 5t16 1q14 0 31.5 -6.5t35.5 -14.5t36 -14.5t34 -6.5q41 0 66 23t43 53zM300 -10
q75 0 123.5 15.5t76.5 47t39 80.5t11 117q0 67 -11 116.5t-39 81t-76.5 47t-123.5 15.5t-123.5 -15.5t-76.5 -47t-39 -81t-11 -116.5q0 -68 11 -117t39 -80.5t76.5 -47t123.5 -15.5zM300 90q-43 0 -69 8t-39.5 27t-17.5 49.5t-4 75.5t4 75.5t17.5 49.5t39.5 27t69 8t69 -8
t39.5 -27t17.5 -49.5t4 -75.5t-4 -75.5t-17.5 -49.5t-39.5 -27t-69 -8z" />
    <glyph glyph-name="odieresis" unicode="&#xf6;" 
d="M601 950v-1200h-602v1200h602zM140 560h120v120h-120v-120zM340 560h120v120h-120v-120zM300 -10q75 0 123.5 15.5t76.5 47t39 80.5t11 117q0 67 -11 116.5t-39 81t-76.5 47t-123.5 15.5t-123.5 -15.5t-76.5 -47t-39 -81t-11 -116.5q0 -68 11 -117t39 -80.5t76.5 -47
t123.5 -15.5zM300 90q-43 0 -69 8t-39.5 27t-17.5 49.5t-4 75.5t4 75.5t17.5 49.5t39.5 27t69 8t69 -8t39.5 -27t17.5 -49.5t4 -75.5t-4 -75.5t-17.5 -49.5t-39.5 -27t-69 -8z" />
    <glyph glyph-name="divide" unicode="&#xf7;" 
d="M601 950v-1200h-602v1200h602zM360 430v120h-120v-120h120zM70 290h460v100h-460v-100zM360 130v120h-120v-120h120z" />
    <glyph glyph-name="oslash" unicode="&#xf8;" 
d="M601 950v-1200h-602v1200h602zM300 510q-75 0 -123.5 -15.5t-76.5 -47t-39 -81t-11 -116.5q0 -68 11 -117t39 -80.5t76.5 -47t123.5 -15.5t123.5 15.5t76.5 47t39 80.5t11 117q0 67 -11 116.5t-39 81t-76.5 47t-123.5 15.5zM179 151q-5 19 -7 43t-2 56q0 45 4 75.5
t17.5 49.5t39.5 27t69 8q26 0 47 -3zM421 348q5 -18 7 -42t2 -56q0 -45 -4 -75.5t-17.5 -49.5t-39.5 -27t-69 -8q-27 0 -46 3z" />
    <glyph glyph-name="ugrave" unicode="&#xf9;" 
d="M601 950v-1200h-602v1200h602zM125 690l100 -130h110l-80 130h-130zM520 500h-190v-100h70v-300q-24 -5 -50.5 -7.5t-44.5 -2.5q-56 0 -80.5 15.5t-24.5 64.5v330h-180v-100h60v-250q0 -90 43.5 -125t126.5 -35q53 0 90 16t60 54h10v-6q0 -38 21 -51t59 -13q20 0 45 3
t45 7v100q-15 -5 -30 -5q-23 0 -26.5 10.5t-3.5 29.5v365z" />
    <glyph glyph-name="uacute" unicode="&#xfa;" 
d="M601 950v-1200h-602v1200h602zM225 560h110l100 130h-130zM520 500h-190v-100h70v-300q-24 -5 -50.5 -7.5t-44.5 -2.5q-56 0 -80.5 15.5t-24.5 64.5v330h-180v-100h60v-250q0 -90 43.5 -125t126.5 -35q53 0 90 16t60 54h10v-6q0 -38 21 -51t59 -13q20 0 45 3t45 7v100
q-15 -5 -30 -5q-23 0 -26.5 10.5t-3.5 29.5v365z" />
    <glyph glyph-name="ucircumflex" unicode="&#xfb;" 
d="M601 950v-1200h-602v1200h602zM450 560l-110 130h-120l-110 -130h110l60 70l60 -70h110zM520 500h-190v-100h70v-300q-24 -5 -50.5 -7.5t-44.5 -2.5q-56 0 -80.5 15.5t-24.5 64.5v330h-180v-100h60v-250q0 -90 43.5 -125t126.5 -35q53 0 90 16t60 54h10v-6q0 -38 21 -51
t59 -13q20 0 45 3t45 7v100q-15 -5 -30 -5q-23 0 -26.5 10.5t-3.5 29.5v365z" />
    <glyph glyph-name="udieresis" unicode="&#xfc;" 
d="M601 950v-1200h-602v1200h602zM120 560h120v120h-120v-120zM320 560h120v120h-120v-120zM520 500h-190v-100h70v-300q-24 -5 -50.5 -7.5t-44.5 -2.5q-56 0 -80.5 15.5t-24.5 64.5v330h-180v-100h60v-250q0 -90 43.5 -125t126.5 -35q53 0 90 16t60 54h10v-6q0 -38 21 -51
t59 -13q20 0 45 3t45 7v100q-15 -5 -30 -5q-23 0 -26.5 10.5t-3.5 29.5v365z" />
    <glyph glyph-name="yacute" unicode="&#xfd;" 
d="M601 950v-1200h-602v1200h602zM250 560h110l100 130h-130zM20 500v-100h60v-230q0 -90 43.5 -125t126.5 -35q53 0 90 16t60 54h10l-10 -104q0 -18 -5.5 -32t-20.5 -23.5t-42.5 -14.5t-72.5 -5q-46 0 -88 6t-62 11l-14 -95q12 -4 34 -8t48 -7.5t53.5 -5.5t52.5 -2
q125 0 181 41t56 128v531h-190v-100h70v-280q-24 -5 -50.5 -7.5t-44.5 -2.5q-56 0 -80.5 15.5t-24.5 64.5v310h-180z" />
    <glyph glyph-name="thorn" unicode="&#xfe;" 
d="M601 950v-1200h-602v1200h602zM80 -90h-60v-100h250v100h-70v40l-10 110h10q23 -38 60 -54t90 -16q56 0 94.5 15.5t62 47t33.5 80.5t10 117q0 67 -10 116.5t-33.5 81t-62 47t-94.5 15.5q-53 0 -90 -16t-60 -54h-10l10 110v130h-180v-100h60v-670zM200 400q24 5 53 7.5
t47 2.5q43 0 69 -8t39.5 -27t17.5 -49.5t4 -75.5t-4 -75.5t-17.5 -49.5t-39.5 -27t-69 -8q-18 0 -47 2.5t-53 7.5v300z" />
    <glyph glyph-name="ydieresis" unicode="&#xff;" 
d="M601 950v-1200h-602v1200h602zM145 560h120v120h-120v-120zM345 560h120v120h-120v-120zM20 500v-100h60v-230q0 -90 43.5 -125t126.5 -35q53 0 90 16t60 54h10l-10 -104q0 -18 -5.5 -32t-20.5 -23.5t-42.5 -14.5t-72.5 -5q-46 0 -88 6t-62 11l-14 -95q12 -4 34 -8
t48 -7.5t53.5 -5.5t52.5 -2q125 0 181 41t56 128v531h-190v-100h70v-280q-24 -5 -50.5 -7.5t-44.5 -2.5q-56 0 -80.5 15.5t-24.5 64.5v310h-180z" />
    <glyph glyph-name="Amacron" unicode="&#x100;" 
d="M601 950v-1200h-602v1200h602zM146 745h319v90h-319v-90zM20 35v-35h110l46 140h248l46 -140h110v35l-215 650h-130zM305 545l25 -115l62 -190h-184l62 190l25 115h10z" />
    <glyph glyph-name="amacron" unicode="&#x101;" 
d="M601 950v-1200h-602v1200h602zM146 565h319v90h-319v-90zM410 60v-6q0 -38 21 -51t59 -13q20 0 45 3t45 7v100q-15 -5 -30 -5q-23 0 -26.5 10.5t-3.5 29.5v365h-60l-50 -60h-10q-23 38 -60 54t-90 16q-56 0 -94.5 -15.5t-62 -47t-33.5 -81t-10 -116.5q0 -68 10 -117
t33.5 -80.5t62 -47t94.5 -15.5q53 0 90 16t60 54h10zM400 100q-24 -5 -53 -7.5t-47 -2.5q-43 0 -69 8t-39.5 27t-17.5 49.5t-4 75.5t4 75.5t17.5 49.5t39.5 27t69 8q18 0 47 -2.5t53 -7.5v-300z" />
    <glyph glyph-name="Abreve" unicode="&#x102;" 
d="M601 950v-1200h-602v1200h602zM141 870q0 -41 9.5 -68t29 -43t50 -22.5t71.5 -6.5t71.5 6.5t50 22.5t29 43t9.5 68h-100q0 -38 -13 -49t-47 -11t-47 11t-13 49h-100zM20 35v-35h110l46 140h248l46 -140h110v35l-215 650h-130zM305 545l25 -115l62 -190h-184l62 190
l25 115h10z" />
    <glyph glyph-name="abreve" unicode="&#x103;" 
d="M601 950v-1200h-602v1200h602zM141 690q0 -41 9.5 -68t29 -43t50 -22.5t71.5 -6.5t71.5 6.5t50 22.5t29 43t9.5 68h-100q0 -38 -13 -49t-47 -11t-47 11t-13 49h-100zM410 60v-6q0 -38 21 -51t59 -13q20 0 45 3t45 7v100q-15 -5 -30 -5q-23 0 -26.5 10.5t-3.5 29.5v365
h-60l-50 -60h-10q-23 38 -60 54t-90 16q-56 0 -94.5 -15.5t-62 -47t-33.5 -81t-10 -116.5q0 -68 10 -117t33.5 -80.5t62 -47t94.5 -15.5q53 0 90 16t60 54h10zM400 100q-24 -5 -53 -7.5t-47 -2.5q-43 0 -69 8t-39.5 27t-17.5 49.5t-4 75.5t4 75.5t17.5 49.5t39.5 27t69 8
q18 0 47 -2.5t53 -7.5v-300z" />
    <glyph glyph-name="Aogonek" unicode="&#x104;" 
d="M424 140l46 -140h26q-43 -26 -64.5 -58t-21.5 -65q0 -35 26 -61t85 -26q18 0 40 5t40 13v-58h-602v1200h602v-1077q-12 -4 -27 -4q-23 0 -37 8t-14 29q0 23 15.5 48t41.5 46v35l-215 650h-130l-215 -650v-35h110l46 140h248zM208 240l62 190l25 115h10l25 -115l62 -190
h-184z" />
    <glyph glyph-name="aogonek" unicode="&#x105;" 
d="M601 -250h-602v1200h602v-1078q-12 -3 -23 -3q-23 0 -37 8t-14 29q0 22 15 48t38 46v100q-15 -5 -30 -5q-23 0 -26.5 10.5t-3.5 29.5v365h-60l-50 -60h-10q-23 38 -60 54t-90 16q-56 0 -94.5 -15.5t-62 -47t-33.5 -81t-10 -116.5q0 -68 10 -117t33.5 -80.5t62 -47
t94.5 -15.5q53 0 90 16t60 54h10v-6q0 -35 18 -48.5t50 -15.5h7q-35 -25 -53 -54t-18 -59q0 -35 26 -61t85 -26q17 0 37.5 4t38.5 12v-56zM400 100q-24 -5 -53 -7.5t-47 -2.5q-43 0 -69 8t-39.5 27t-17.5 49.5t-4 75.5t4 75.5t17.5 49.5t39.5 27t69 8q18 0 47 -2.5t53 -7.5
v-300z" />
    <glyph glyph-name="Cacute" unicode="&#x106;" 
d="M601 950v-1200h-602v1200h602zM245 740h110l100 130h-130zM560 440q0 64 -8.5 111.5t-36 78t-79 45.5t-136.5 15t-136.5 -18t-79 -59t-36 -108t-8.5 -165q0 -99 8.5 -166t36 -108t79 -58.5t136.5 -17.5t136.5 14.5t79 45t36 78t8.5 112.5h-120q0 -48 -5 -77.5t-20 -45.5
t-42.5 -21.5t-72.5 -5.5t-72.5 7t-42.5 32.5t-20 75t-5 135.5q0 85 5 135t20 75.5t42.5 32.5t72.5 7t72.5 -5.5t42.5 -22t20 -45.5t5 -77h120z" />
    <glyph glyph-name="cacute" unicode="&#x107;" 
d="M601 950v-1200h-602v1200h602zM245 560h110l100 130h-130zM550 325q0 47 -12 81.5t-40 57.5t-75.5 34.5t-117.5 11.5q-75 0 -124 -15.5t-78.5 -47t-41 -81t-11.5 -116.5q0 -68 11.5 -117t41 -80.5t78.5 -47t124 -15.5q71 0 118 11t75.5 34t40 58t11.5 82h-115
q0 -23 -5.5 -39t-20 -26t-40 -15t-64.5 -5q-43 0 -69.5 8t-41 27t-19.5 49.5t-5 75.5t5 75.5t19.5 49.5t41 27t69.5 8q39 0 64 -5t40 -15.5t20.5 -26.5t5.5 -38h115z" />
    <glyph glyph-name="Cdotaccent" unicode="&#x10a;" 
d="M601 950v-1200h-602v1200h602zM240 740h120v120h-120v-120zM560 440q0 64 -8.5 111.5t-36 78t-79 45.5t-136.5 15t-136.5 -18t-79 -59t-36 -108t-8.5 -165q0 -99 8.5 -166t36 -108t79 -58.5t136.5 -17.5t136.5 14.5t79 45t36 78t8.5 112.5h-120q0 -48 -5 -77.5t-20 -45.5
t-42.5 -21.5t-72.5 -5.5t-72.5 7t-42.5 32.5t-20 75t-5 135.5q0 85 5 135t20 75.5t42.5 32.5t72.5 7t72.5 -5.5t42.5 -22t20 -45.5t5 -77h120z" />
    <glyph glyph-name="cdotaccent" unicode="&#x10b;" 
d="M601 950v-1200h-602v1200h602zM240 560h120v120h-120v-120zM550 325q0 47 -12 81.5t-40 57.5t-75.5 34.5t-117.5 11.5q-75 0 -124 -15.5t-78.5 -47t-41 -81t-11.5 -116.5q0 -68 11.5 -117t41 -80.5t78.5 -47t124 -15.5q71 0 118 11t75.5 34t40 58t11.5 82h-115
q0 -23 -5.5 -39t-20 -26t-40 -15t-64.5 -5q-43 0 -69.5 8t-41 27t-19.5 49.5t-5 75.5t5 75.5t19.5 49.5t41 27t69.5 8q39 0 64 -5t40 -15.5t20.5 -26.5t5.5 -38h115z" />
    <glyph glyph-name="Ccaron" unicode="&#x10c;" 
d="M601 950v-1200h-602v1200h602zM301 800l-60 70h-110l110 -130h120l110 130h-110zM560 440q0 64 -8.5 111.5t-36 78t-79 45.5t-136.5 15t-136.5 -18t-79 -59t-36 -108t-8.5 -165q0 -99 8.5 -166t36 -108t79 -58.5t136.5 -17.5t136.5 14.5t79 45t36 78t8.5 112.5h-120
q0 -48 -5 -77.5t-20 -45.5t-42.5 -21.5t-72.5 -5.5t-72.5 7t-42.5 32.5t-20 75t-5 135.5q0 85 5 135t20 75.5t42.5 32.5t72.5 7t72.5 -5.5t42.5 -22t20 -45.5t5 -77h120z" />
    <glyph glyph-name="ccaron" unicode="&#x10d;" 
d="M601 950v-1200h-602v1200h602zM301 620l-60 70h-110l110 -130h120l110 130h-110zM550 325q0 47 -12 81.5t-40 57.5t-75.5 34.5t-117.5 11.5q-75 0 -124 -15.5t-78.5 -47t-41 -81t-11.5 -116.5q0 -68 11.5 -117t41 -80.5t78.5 -47t124 -15.5q71 0 118 11t75.5 34t40 58
t11.5 82h-115q0 -23 -5.5 -39t-20 -26t-40 -15t-64.5 -5q-43 0 -69.5 8t-41 27t-19.5 49.5t-5 75.5t5 75.5t19.5 49.5t41 27t69.5 8q39 0 64 -5t40 -15.5t20.5 -26.5t5.5 -38h115z" />
    <glyph glyph-name="Dcaron" unicode="&#x10e;" 
d="M601 950v-1200h-602v1200h602zM281 800l-60 70h-110l110 -130h120l110 130h-110zM70 680v-680h230q85 0 136.5 17.5t79 57.5t36 105t8.5 160q0 94 -8.5 159t-36 105.5t-79 58t-136.5 17.5h-230zM190 100v480h110q45 0 72.5 -7t42.5 -31.5t20 -72.5t5 -129q0 -82 -5 -130
t-20 -72.5t-42.5 -31t-72.5 -6.5h-110z" />
    <glyph glyph-name="dcaron" unicode="&#x10f;" 
d="M601 950v-1200h-602v1200h602zM250 580h70v-30l10 -110h-10q-23 38 -60 54t-90 16q-83 0 -121.5 -62t-38.5 -198t38.5 -198t121.5 -62q53 0 90 16t60 54h10v-6q0 -38 21 -51t59 -13q20 0 45 3t45 7v100q-15 -5 -30 -5q-23 0 -26.5 10.5t-3.5 29.5v545h-190v-100zM470 680
v-120l40 -110h80v230h-120zM320 100q-24 -5 -53 -7.5t-47 -2.5q-28 0 -45.5 8t-27.5 27t-13.5 49.5t-3.5 75.5t3.5 75.5t13.5 49.5t27.5 27t45.5 8q18 0 47 -2.5t53 -7.5v-300z" />
    <glyph glyph-name="Dcroat" unicode="&#x110;" 
d="M601 950v-1200h-602v1200h602zM70 680v-290h-50v-100h50v-290h230q85 0 136.5 17.5t79 57.5t36 105t8.5 160q0 94 -8.5 159t-36 105.5t-79 58t-136.5 17.5h-230zM190 100v190h90v100h-90v190h110q45 0 72.5 -7t42.5 -31.5t20 -72.5t5 -129q0 -82 -5 -130t-20 -72.5
t-42.5 -31t-72.5 -6.5h-110z" />
    <glyph glyph-name="dcroat" unicode="&#x111;" 
d="M601 950v-1200h-602v1200h602zM400 635h-110v-100h110v-20l10 -75h-10q-23 38 -60 54t-90 16q-56 0 -94.5 -15.5t-62 -47t-33.5 -81t-10 -116.5q0 -68 10 -117t33.5 -80.5t62 -47t94.5 -15.5q53 0 90 16t60 54h10v-6q0 -38 21 -51t59 -13q20 0 45 3t45 7v100
q-15 -5 -30 -5q-23 0 -26.5 10.5t-3.5 29.5v400h60v100h-60v55h-120v-55zM400 100q-24 -5 -53 -7.5t-47 -2.5q-43 0 -69 8t-39.5 27t-17.5 49.5t-4 75.5t4 75.5t17.5 49.5t39.5 27t69 8q18 0 47 -2.5t53 -7.5v-300z" />
    <glyph glyph-name="Emacron" unicode="&#x112;" 
d="M601 950v-1200h-602v1200h602zM151 745h319v90h-319v-90zM540 580v100h-470v-680h470v100h-350v195h300v100h-300v185h350z" />
    <glyph glyph-name="emacron" unicode="&#x113;" 
d="M601 950v-1200h-602v1200h602zM435 175q0 -23 -5.5 -39t-20 -26t-40 -15t-64.5 -5q-34 0 -58 3.5t-39.5 15t-24 33t-11.5 58.5h193q63 0 100 11t55.5 31t24 48.5t5.5 64.5t-12 64.5t-40 48.5t-75.5 31t-117.5 11q-75 0 -124 -15.5t-78.5 -47t-41 -81t-11.5 -116.5
q0 -68 11.5 -117t41 -80.5t78.5 -47t124 -15.5q71 0 118 11t75.5 34t40 58t11.5 82h-115zM173 300q4 33 13.5 54t25.5 33.5t39 17.5t54 5q39 0 64 -3t40 -10t20.5 -17t5.5 -25q0 -29 -14.5 -42t-55.5 -13h-192z" />
    <glyph glyph-name="Edotaccent" unicode="&#x116;" 
d="M601 950v-1200h-602v1200h602zM245 740h120v120h-120v-120zM540 580v100h-470v-680h470v100h-350v195h300v100h-300v185h350z" />
    <glyph glyph-name="edotaccent" unicode="&#x117;" 
d="M601 950v-1200h-602v1200h602zM435 175q0 -23 -5.5 -39t-20 -26t-40 -15t-64.5 -5q-34 0 -58 3.5t-39.5 15t-24 33t-11.5 58.5h193q63 0 100 11t55.5 31t24 48.5t5.5 64.5t-12 64.5t-40 48.5t-75.5 31t-117.5 11q-75 0 -124 -15.5t-78.5 -47t-41 -81t-11.5 -116.5
q0 -68 11.5 -117t41 -80.5t78.5 -47t124 -15.5q71 0 118 11t75.5 34t40 58t11.5 82h-115zM173 300q4 33 13.5 54t25.5 33.5t39 17.5t54 5q39 0 64 -3t40 -10t20.5 -17t5.5 -25q0 -29 -14.5 -42t-55.5 -13h-192z" />
    <glyph glyph-name="Eogonek" unicode="&#x118;" 
d="M601 950v-1200h-602v1200h602zM578 -122q-20 -9 -40 -9q-23 0 -37 8t-14 29q0 22 15 48t38 46v100h-350v195h300v100h-300v185h350v100h-470v-680h390q-43 -26 -64.5 -58t-21.5 -65q0 -35 26 -61t85 -26q23 0 53 7.5t47 21.5z" />
    <glyph glyph-name="eogonek" unicode="&#x119;" 
d="M601 950v-1200h-602v1200h602zM551 -72q-20 -9 -40 -9q-23 0 -37 8t-14 29q0 18 9 40.5t29 38.5q29 23 40.5 57.5t11.5 82.5h-115q0 -23 -5.5 -39t-20 -26t-40 -15t-64.5 -5q-34 0 -58 3.5t-39.5 15t-24 33t-11.5 58.5h193q63 0 100 11t55.5 31t24 48.5t5.5 64.5
t-12 64.5t-40 48.5t-75.5 31t-117.5 11q-75 0 -124 -15.5t-78.5 -47t-41 -81t-11.5 -116.5q0 -68 11.5 -117t41 -80.5t78.5 -47t124 -15.5q35 0 64 3q-22 -31 -22 -66t26 -61t85 -26q23 0 53 7.5t47 21.5zM173 300q4 33 13.5 54t25.5 33.5t39 17.5t54 5q39 0 64 -3t40 -10
t20.5 -17t5.5 -25q0 -29 -14.5 -42t-55.5 -13h-192z" />
    <glyph glyph-name="Ecaron" unicode="&#x11a;" 
d="M601 950v-1200h-602v1200h602zM306 800l-60 70h-110l110 -130h120l110 130h-110zM540 580v100h-470v-680h470v100h-350v195h300v100h-300v185h350z" />
    <glyph glyph-name="ecaron" unicode="&#x11b;" 
d="M601 950v-1200h-602v1200h602zM435 175q0 -23 -5.5 -39t-20 -26t-40 -15t-64.5 -5q-34 0 -58 3.5t-39.5 15t-24 33t-11.5 58.5h193q63 0 100 11t55.5 31t24 48.5t5.5 64.5t-12 64.5t-40 48.5t-75.5 31t-117.5 11q-75 0 -124 -15.5t-78.5 -47t-41 -81t-11.5 -116.5
q0 -68 11.5 -117t41 -80.5t78.5 -47t124 -15.5q71 0 118 11t75.5 34t40 58t11.5 82h-115zM173 300q4 33 13.5 54t25.5 33.5t39 17.5t54 5q39 0 64 -3t40 -10t20.5 -17t5.5 -25q0 -29 -14.5 -42t-55.5 -13h-192z" />
    <glyph glyph-name="Gbreve" unicode="&#x11e;" 
d="M601 950v-1200h-602v1200h602zM141 870q0 -41 9.5 -68t29 -43t50 -22.5t71.5 -6.5t71.5 6.5t50 22.5t29 43t9.5 68h-100q0 -38 -13 -49t-47 -11t-47 11t-13 49h-100zM295 255h145v-25q0 -45 -5 -72.5t-20 -42.5t-42.5 -20t-72.5 -5t-72.5 7t-42.5 32.5t-20 75t-5 135.5
q0 85 5 135t20 75.5t42.5 32.5t72.5 7t72.5 -6t42.5 -21t20 -40t5 -63h120q0 55 -8.5 98t-36 72t-79 44.5t-136.5 15.5t-136.5 -18t-79 -59t-36 -108t-8.5 -165q0 -99 8.5 -166t36 -108t79 -58.5t136.5 -17.5t136.5 14.5t79 44t36 74.5t8.5 107v125h-265v-100z" />
    <glyph glyph-name="gbreve" unicode="&#x11f;" 
d="M601 950v-1200h-602v1200h602zM111 690q0 -41 9.5 -68t29 -43t50 -22.5t71.5 -6.5t71.5 6.5t50 22.5t29 43t9.5 68h-100q0 -38 -13 -49t-47 -11t-47 11t-13 49h-100zM410 80l-10 -104q0 -18 -5.5 -32t-20.5 -23.5t-42.5 -14.5t-72.5 -5q-46 0 -88 6t-62 11l-14 -95
q12 -4 34 -8t48 -7.5t53.5 -5.5t52.5 -2q125 0 181 41t56 128v531h-60l-50 -60h-10q-23 38 -60 54t-90 16q-56 0 -94.5 -15.5t-62 -47t-33.5 -81t-10 -116.5q0 -60 10 -105t33.5 -75t62 -45t94.5 -15q53 0 90 16t60 54h10zM400 120q-24 -5 -53 -7.5t-47 -2.5q-43 0 -69 8
t-39.5 24.5t-17.5 43t-4 64.5q0 45 4 75.5t17.5 49.5t39.5 27t69 8q18 0 47 -2.5t53 -7.5v-280z" />
    <glyph glyph-name="Gdotaccent" unicode="&#x120;" 
d="M601 950v-1200h-602v1200h602zM240 740h120v120h-120v-120zM295 255h145v-25q0 -45 -5 -72.5t-20 -42.5t-42.5 -20t-72.5 -5t-72.5 7t-42.5 32.5t-20 75t-5 135.5q0 85 5 135t20 75.5t42.5 32.5t72.5 7t72.5 -6t42.5 -21t20 -40t5 -63h120q0 55 -8.5 98t-36 72t-79 44.5
t-136.5 15.5t-136.5 -18t-79 -59t-36 -108t-8.5 -165q0 -99 8.5 -166t36 -108t79 -58.5t136.5 -17.5t136.5 14.5t79 44t36 74.5t8.5 107v125h-265v-100z" />
    <glyph glyph-name="gdotaccent" unicode="&#x121;" 
d="M601 950v-1200h-602v1200h602zM210 560h120v120h-120v-120zM410 80l-10 -104q0 -18 -5.5 -32t-20.5 -23.5t-42.5 -14.5t-72.5 -5q-46 0 -88 6t-62 11l-14 -95q12 -4 34 -8t48 -7.5t53.5 -5.5t52.5 -2q125 0 181 41t56 128v531h-60l-50 -60h-10q-23 38 -60 54t-90 16
q-56 0 -94.5 -15.5t-62 -47t-33.5 -81t-10 -116.5q0 -60 10 -105t33.5 -75t62 -45t94.5 -15q53 0 90 16t60 54h10zM400 120q-24 -5 -53 -7.5t-47 -2.5q-43 0 -69 8t-39.5 24.5t-17.5 43t-4 64.5q0 45 4 75.5t17.5 49.5t39.5 27t69 8q18 0 47 -2.5t53 -7.5v-280z" />
    <glyph glyph-name="uni0122" unicode="&#x122;" 
d="M601 950v-1200h-602v1200h602zM295 255h145v-25q0 -45 -5 -72.5t-20 -42.5t-42.5 -20t-72.5 -5t-72.5 7t-42.5 32.5t-20 75t-5 135.5q0 85 5 135t20 75.5t42.5 32.5t72.5 7t72.5 -6t42.5 -21t20 -40t5 -63h120q0 55 -8.5 98t-36 72t-79 44.5t-136.5 15.5t-136.5 -18
t-79 -59t-36 -108t-8.5 -165q0 -99 8.5 -166t36 -108t79 -58.5t136.5 -17.5t136.5 14.5t79 44t36 74.5t8.5 107v125h-265v-100zM240 -200h80l40 90v50h-120v-140z" />
    <glyph glyph-name="uni0123" unicode="&#x123;" 
d="M601 950v-1200h-602v1200h602zM330 700h-80l-40 -90v-50h120v140zM410 80l-10 -104q0 -18 -5.5 -32t-20.5 -23.5t-42.5 -14.5t-72.5 -5q-46 0 -88 6t-62 11l-14 -95q12 -4 34 -8t48 -7.5t53.5 -5.5t52.5 -2q125 0 181 41t56 128v531h-60l-50 -60h-10q-23 38 -60 54
t-90 16q-56 0 -94.5 -15.5t-62 -47t-33.5 -81t-10 -116.5q0 -60 10 -105t33.5 -75t62 -45t94.5 -15q53 0 90 16t60 54h10zM400 120q-24 -5 -53 -7.5t-47 -2.5q-43 0 -69 8t-39.5 24.5t-17.5 43t-4 64.5q0 45 4 75.5t17.5 49.5t39.5 27t69 8q18 0 47 -2.5t53 -7.5v-280z" />
    <glyph glyph-name="Hbar" unicode="&#x126;" 
d="M601 950v-1200h-602v1200h602zM580 570h-30v110h-120v-110h-260v110h-120v-110h-30v-100h30v-470h120v295h260v-295h120v470h30v100zM430 395h-260v75h260v-75z" />
    <glyph glyph-name="hbar" unicode="&#x127;" 
d="M601 950v-1200h-602v1200h602zM580 100q-15 -5 -30 -5q-23 0 -26.5 10.5t-3.5 29.5v215q0 45 -11 75.5t-32.5 49.5t-53.5 27t-73 8q-53 0 -90 -16t-60 -54h-10l10 80v15h110v100h-110v55h-120v-55h-60v-100h60v-535h120v400q24 5 50.5 7.5t44.5 2.5q56 0 80.5 -15.5
t24.5 -64.5v-250q0 -49 27.5 -69.5t72.5 -20.5q21 0 42.5 3t37.5 7v100z" />
    <glyph glyph-name="Imacron" unicode="&#x12a;" 
d="M601 950v-1200h-602v1200h602zM146 745h319v90h-319v-90zM510 580v100h-420v-100h150v-480h-150v-100h420v100h-150v480h150z" />
    <glyph glyph-name="imacron" unicode="&#x12b;" 
d="M601 950v-1200h-602v1200h602zM156 565h319v90h-319v-90zM80 500v-100h170v-241q0 -43 12.5 -75t34 -53t50 -31t60.5 -10q17 0 38 2t41 5.5t38.5 7.5t30.5 8l-14 95q-20 -5 -49.5 -11t-60.5 -6q-61 0 -61 75v334h-290z" />
    <glyph glyph-name="Iogonek" unicode="&#x12e;" 
d="M601 950v-1200h-602v1200h602zM510 580v100h-420v-100h150v-480h-150v-100h170q-43 -26 -64.5 -58t-21.5 -65q0 -35 26 -61t85 -26q23 0 53 7.5t47 21.5l-7 59q-20 -9 -40 -9q-23 0 -37 8t-14 29q0 22 15 48t38 46h170v100h-150v480h150z" />
    <glyph glyph-name="iogonek" unicode="&#x12f;" 
d="M601 950v-1200h-602v1200h602zM250 560h120v120h-120v-120zM593 -109q-20 -9 -40 -9q-23 0 -37 8t-14 29q0 22 15 48t38 46l-14 95q-20 -5 -49.5 -11t-60.5 -6q-61 0 -61 75v334h-290v-100h170v-241q0 -43 12.5 -75t34 -53t50 -31t60.5 -10q9 0 18.5 0.5t20.5 1.5
q-57 -47 -57 -102q0 -35 26 -61t85 -26q23 0 53 7.5t47 21.5z" />
    <glyph glyph-name="Idotaccent" unicode="&#x130;" 
d="M601 950v-1200h-602v1200h602zM240 740h120v120h-120v-120zM510 580v100h-420v-100h150v-480h-150v-100h420v100h-150v480h150z" />
    <glyph glyph-name="dotlessi" unicode="&#x131;" 
d="M601 950v-1200h-602v1200h602zM80 500v-100h170v-241q0 -43 12.5 -75t34 -53t50 -31t60.5 -10q17 0 38 2t41 5.5t38.5 7.5t30.5 8l-14 95q-20 -5 -49.5 -11t-60.5 -6q-61 0 -61 75v334h-290z" />
    <glyph glyph-name="IJ" unicode="&#x132;" 
d="M601 950v-1200h-602v1200h602zM60 0h120v680h-120v-680zM420 240q0 -48 -5.5 -77.5t-20.5 -45.5t-41.5 -21.5t-67.5 -5.5v-100q83 0 133.5 14.5t77.5 45t35.5 78t8.5 112.5v440h-120v-440z" />
    <glyph glyph-name="ij" unicode="&#x133;" 
d="M601 950v-1200h-602v1200h602zM90 560h120v120h-120v-120zM390 680v-120h120v120h-120zM270 100q-15 -5 -30 -5q-23 0 -26.5 10.5t-3.5 29.5v365h-190v-100h70v-320q0 -49 27.5 -69.5t72.5 -20.5q21 0 42.5 3t37.5 7v100zM320 400h70v-424q0 -18 -5 -32t-17.5 -23.5
t-34 -14.5t-54.5 -5q-31 0 -60.5 6t-49.5 11l-14 -95q12 -4 30.5 -8t38.5 -7.5t41 -5.5t38 -2q103 0 155 41t52 128v531h-190v-100z" />
    <glyph glyph-name="uni0136" unicode="&#x136;" 
d="M601 950v-1200h-602v1200h602zM318 386l242 264v30h-110l-280 -310h-10l10 100v210h-120v-680h120v225l73 79l222 -304h115v30zM240 -200h80l40 90v50h-120v-140z" />
    <glyph glyph-name="uni0137" unicode="&#x137;" 
d="M601 950v-1200h-602v1200h602zM341 259l168 141h51v100h-250v-100h55l-165 -135h-10l10 110v305h-180v-100h60v-480h-60v-100h240v100h-60v115q45 -12 76 -33.5t54 -46.5t41.5 -50.5t38 -46.5t44.5 -34.5t61 -13.5q20 0 34 2.5t31 7.5v100q-7 -3 -17 -5t-18 -2
q-28 0 -46.5 17.5t-39 42.5t-47 51.5t-71.5 44.5v10zM240 -200h80l40 90v50h-120v-140z" />
    <glyph glyph-name="Lacute" unicode="&#x139;" 
d="M601 950v-1200h-602v1200h602zM75 740h110l100 130h-130zM540 0v230h-120v-130h-230v580h-120v-680h470z" />
    <glyph glyph-name="lacute" unicode="&#x13a;" 
d="M601 950v-1200h-602v1200h602zM215 740h110l100 130h-130zM80 680v-100h130v-421q0 -43 12.5 -75t34 -53t50 -31t60.5 -10q17 0 38 2t41 5.5t38.5 7.5t30.5 8l-14 95q-20 -5 -49.5 -11t-60.5 -6q-61 0 -61 75v514h-250z" />
    <glyph glyph-name="uni013B" unicode="&#x13b;" 
d="M601 950v-1200h-602v1200h602zM540 0v230h-120v-130h-230v580h-120v-680h470zM240 -200h80l40 90v50h-120v-140z" />
    <glyph glyph-name="uni013C" unicode="&#x13c;" 
d="M601 950v-1200h-602v1200h602zM80 680v-100h130v-421q0 -43 12.5 -75t34 -53t50 -31t60.5 -10q17 0 38 2t41 5.5t38.5 7.5t30.5 8l-14 95q-20 -5 -49.5 -11t-60.5 -6q-61 0 -61 75v514h-250zM260 -200h80l40 90v50h-120v-140z" />
    <glyph glyph-name="Lcaron" unicode="&#x13d;" 
d="M601 950v-1200h-602v1200h602zM540 0v230h-120v-130h-230v580h-120v-680h470zM280 680v-120l40 -110h80v230h-120z" />
    <glyph glyph-name="lcaron" unicode="&#x13e;" 
d="M601 950v-1200h-602v1200h602zM80 680v-100h130v-421q0 -43 12.5 -75t34 -53t50 -31t60.5 -10q17 0 38 2t41 5.5t38.5 7.5t30.5 8l-14 95q-20 -5 -49.5 -11t-60.5 -6q-61 0 -61 75v514h-250zM440 680v-120l40 -110h80v230h-120z" />
    <glyph glyph-name="Ldot" unicode="&#x13f;" 
d="M601 950v-1200h-602v1200h602zM540 0v230h-120v-130h-230v580h-120v-680h470zM360 290v120h-120v-120h120z" />
    <glyph glyph-name="ldot" unicode="&#x140;" 
d="M601 950v-1200h-602v1200h602zM80 680v-100h130v-421q0 -43 12.5 -75t34 -53t50 -31t60.5 -10q17 0 38 2t41 5.5t38.5 7.5t30.5 8l-14 95q-20 -5 -49.5 -11t-60.5 -6q-61 0 -61 75v514h-250zM550 290v120h-120v-120h120z" />
    <glyph glyph-name="Lslash" unicode="&#x141;" 
d="M601 950v-1200h-602v1200h602zM420 230v-130h-230v205l90 35v100l-90 -35v275h-120v-321l-50 -19v-100l50 19v-259h470v230h-120z" />
    <glyph glyph-name="lslash" unicode="&#x142;" 
d="M601 950v-1200h-602v1200h602zM80 680v-100h130v-210l-90 -30v-100l90 30v-111q0 -43 12.5 -75t34 -53t50 -31t60.5 -10q17 0 38 2t41 5.5t38.5 7.5t30.5 8l-14 95q-20 -5 -49.5 -11t-60.5 -6q-61 0 -61 75v144l90 30v100l-90 -30v270h-250z" />
    <glyph glyph-name="Nacute" unicode="&#x143;" 
d="M601 950v-1200h-602v1200h602zM245 740h110l100 130h-130zM170 680h-120v-680h110v375l-10 100h10l270 -475h120v680h-110v-370l10 -100h-10z" />
    <glyph glyph-name="nacute" unicode="&#x144;" 
d="M601 950v-1200h-602v1200h602zM245 560h110l100 130h-130zM190 440l-20 60h-150v-100h60v-400h120v400q24 5 50.5 7.5t44.5 2.5q56 0 80.5 -15.5t24.5 -64.5v-250q0 -49 27.5 -69.5t72.5 -20.5q21 0 42.5 3t37.5 7v100q-15 -5 -30 -5q-23 0 -26.5 10.5t-3.5 29.5v215
q0 45 -11 75.5t-32.5 49.5t-53.5 27t-73 8q-53 0 -90 -16t-60 -54h-10z" />
    <glyph glyph-name="uni0145" unicode="&#x145;" 
d="M601 950v-1200h-602v1200h602zM170 680h-120v-680h110v375l-10 100h10l270 -475h120v680h-110v-370l10 -100h-10zM240 -200h80l40 90v50h-120v-140z" />
    <glyph glyph-name="uni0146" unicode="&#x146;" 
d="M601 950v-1200h-602v1200h602zM190 440l-20 60h-150v-100h60v-400h120v400q24 5 50.5 7.5t44.5 2.5q56 0 80.5 -15.5t24.5 -64.5v-250q0 -49 27.5 -69.5t72.5 -20.5q21 0 42.5 3t37.5 7v100q-15 -5 -30 -5q-23 0 -26.5 10.5t-3.5 29.5v215q0 45 -11 75.5t-32.5 49.5
t-53.5 27t-73 8q-53 0 -90 -16t-60 -54h-10zM240 -200h80l40 90v50h-120v-140z" />
    <glyph glyph-name="Ncaron" unicode="&#x147;" 
d="M601 950v-1200h-602v1200h602zM301 800l-60 70h-110l110 -130h120l110 130h-110zM170 680h-120v-680h110v375l-10 100h10l270 -475h120v680h-110v-370l10 -100h-10z" />
    <glyph glyph-name="ncaron" unicode="&#x148;" 
d="M601 950v-1200h-602v1200h602zM301 620l-60 70h-110l110 -130h120l110 130h-110zM190 440l-20 60h-150v-100h60v-400h120v400q24 5 50.5 7.5t44.5 2.5q56 0 80.5 -15.5t24.5 -64.5v-250q0 -49 27.5 -69.5t72.5 -20.5q21 0 42.5 3t37.5 7v100q-15 -5 -30 -5
q-23 0 -26.5 10.5t-3.5 29.5v215q0 45 -11 75.5t-32.5 49.5t-53.5 27t-73 8q-53 0 -90 -16t-60 -54h-10z" />
    <glyph glyph-name="Eng" unicode="&#x14a;" 
d="M601 950v-1200h-602v1200h602zM50 0h110v375l-10 100h10l270 -475v-24q0 -18 -5 -32t-17.5 -23.5t-34 -14.5t-54.5 -5q-31 0 -60.5 6t-49.5 11l-14 -95q12 -4 30.5 -8t38.5 -7.5t41 -5.5t38 -2q103 0 155 41t52 128v711h-110v-370l10 -100h-10l-270 470h-120v-680z" />
    <glyph glyph-name="eng" unicode="&#x14b;" 
d="M601 950v-1200h-602v1200h602zM40 400h60v-400h120v400q24 5 50.5 7.5t44.5 2.5q56 0 80.5 -15.5t24.5 -64.5v-354q0 -18 -5 -32t-17.5 -23.5t-34 -14.5t-54.5 -5q-31 0 -60.5 6t-49.5 11l-14 -95q12 -4 30.5 -8t38.5 -7.5t41 -5.5t38 -2q103 0 155 41t52 128v381
q0 45 -11 75.5t-32.5 49.5t-53.5 27t-73 8q-53 0 -90 -16t-60 -54h-10l-20 60h-150v-100z" />
    <glyph glyph-name="Omacron" unicode="&#x14c;" 
d="M601 950v-1200h-602v1200h602zM146 745h319v90h-319v-90zM300 -10q85 0 136.5 17.5t79 58.5t36 108t8.5 166q0 98 -8.5 165t-36 108t-79 59t-136.5 18t-136.5 -18t-79 -59t-36 -108t-8.5 -165q0 -99 8.5 -166t36 -108t79 -58.5t136.5 -17.5zM300 590q45 0 72.5 -7
t42.5 -32.5t20 -75.5t5 -135q0 -86 -5 -135.5t-20 -75t-42.5 -32.5t-72.5 -7t-72.5 7t-42.5 32.5t-20 75t-5 135.5q0 85 5 135t20 75.5t42.5 32.5t72.5 7z" />
    <glyph glyph-name="omacron" unicode="&#x14d;" 
d="M601 950v-1200h-602v1200h602zM146 565h319v90h-319v-90zM300 -10q75 0 123.5 15.5t76.5 47t39 80.5t11 117q0 67 -11 116.5t-39 81t-76.5 47t-123.5 15.5t-123.5 -15.5t-76.5 -47t-39 -81t-11 -116.5q0 -68 11 -117t39 -80.5t76.5 -47t123.5 -15.5zM300 90q-43 0 -69 8
t-39.5 27t-17.5 49.5t-4 75.5t4 75.5t17.5 49.5t39.5 27t69 8t69 -8t39.5 -27t17.5 -49.5t4 -75.5t-4 -75.5t-17.5 -49.5t-39.5 -27t-69 -8z" />
    <glyph glyph-name="Ohungarumlaut" unicode="&#x150;" 
d="M601 950v-1200h-602v1200h602zM145 740h110l100 130h-130zM345 740h110l100 130h-130zM300 -10q85 0 136.5 17.5t79 58.5t36 108t8.5 166q0 98 -8.5 165t-36 108t-79 59t-136.5 18t-136.5 -18t-79 -59t-36 -108t-8.5 -165q0 -99 8.5 -166t36 -108t79 -58.5t136.5 -17.5z
M300 590q45 0 72.5 -7t42.5 -32.5t20 -75.5t5 -135q0 -86 -5 -135.5t-20 -75t-42.5 -32.5t-72.5 -7t-72.5 7t-42.5 32.5t-20 75t-5 135.5q0 85 5 135t20 75.5t42.5 32.5t72.5 7z" />
    <glyph glyph-name="ohungarumlaut" unicode="&#x151;" 
d="M601 950v-1200h-602v1200h602zM145 560h110l100 130h-130zM345 560h110l100 130h-130zM300 -10q75 0 123.5 15.5t76.5 47t39 80.5t11 117q0 67 -11 116.5t-39 81t-76.5 47t-123.5 15.5t-123.5 -15.5t-76.5 -47t-39 -81t-11 -116.5q0 -68 11 -117t39 -80.5t76.5 -47
t123.5 -15.5zM300 90q-43 0 -69 8t-39.5 27t-17.5 49.5t-4 75.5t4 75.5t17.5 49.5t39.5 27t69 8t69 -8t39.5 -27t17.5 -49.5t4 -75.5t-4 -75.5t-17.5 -49.5t-39.5 -27t-69 -8z" />
    <glyph glyph-name="OE" unicode="&#x152;" 
d="M601 950v-1200h-602v1200h602zM580 0v100h-160v195h130v100h-130v185h160v100h-300q-85 0 -136.5 -17.5t-79 -58t-36 -105.5t-8.5 -159q0 -95 8.5 -160t36 -105t79 -57.5t136.5 -17.5h300zM280 100q-45 0 -72.5 6.5t-42.5 31t-20 72.5t-5 130q0 81 5 129t20 72.5
t42.5 31.5t72.5 7v-480z" />
    <glyph glyph-name="oe" unicode="&#x153;" 
d="M601 950v-1200h-602v1200h602zM580 175h-110v-15q0 -38 -14 -54t-43 -16q-31 0 -44 12t-13 49v64h69q44 0 74 5.5t48 20.5t25.5 41.5t7.5 67.5q0 45 -7.5 75.5t-25.5 49.5t-48 27t-74 8q-34 0 -65.5 -7.5t-54.5 -22.5q-18 15 -45.5 22.5t-69.5 7.5q-56 0 -89.5 -15.5
t-51.5 -47t-23.5 -81t-5.5 -116.5q0 -68 5.5 -117t23.5 -80.5t51.5 -47t89.5 -15.5q77 0 115 30q19 -13 44 -21.5t63 -8.5q51 0 84 14t51.5 37.5t25.5 54.5t7 64v15zM190 90q-17 0 -27 8t-15 27t-6.5 49.5t-1.5 75.5t1.5 75.5t6.5 49.5t15 27t27 8q19 0 30 -4t16.5 -20
t7 -48t1.5 -88q0 -45 -1 -75.5t-6 -49.5t-16 -27t-32 -8zM357 300v50q0 21 6 33t14.5 18t18.5 7.5t19 1.5q26 0 40.5 -12.5t14.5 -47.5q0 -28 -14.5 -39t-40.5 -11h-58z" />
    <glyph glyph-name="Racute" unicode="&#x154;" 
d="M601 950v-1200h-602v1200h602zM245 740h110l100 130h-130zM50 680v-680h120v270h180q29 0 47 -10t27.5 -26t12.5 -35.5t3 -38.5v-159h120v154q0 57 -18.5 93t-59.5 56v10q41 18 59.5 60.5t18.5 95.5q0 46 -13 84.5t-39 66.5t-67 43.5t-96 15.5h-295zM170 370v210h170
q58 0 79 -30.5t21 -79.5t-21 -74.5t-79 -25.5h-170z" />
    <glyph glyph-name="racute" unicode="&#x155;" 
d="M601 950v-1200h-602v1200h602zM275 560h110l100 130h-130zM300 440l-20 60h-205v-100h115v-300h-115v-100h390v100h-155v300q24 3 58.5 6.5t66.5 3.5v-95h110v185q-19 4 -38.5 7t-51.5 3q-41 0 -81.5 -16t-63.5 -54h-10z" />
    <glyph glyph-name="uni0156" unicode="&#x156;" 
d="M601 950v-1200h-602v1200h602zM50 680v-680h120v270h180q29 0 47 -10t27.5 -26t12.5 -35.5t3 -38.5v-159h120v154q0 57 -18.5 93t-59.5 56v10q41 18 59.5 60.5t18.5 95.5q0 46 -13 84.5t-39 66.5t-67 43.5t-96 15.5h-295zM170 370v210h170q58 0 79 -30.5t21 -79.5
t-21 -74.5t-79 -25.5h-170zM240 -200h80l40 90v50h-120v-140z" />
    <glyph glyph-name="uni0157" unicode="&#x157;" 
d="M601 950v-1200h-602v1200h602zM300 440l-20 60h-205v-100h115v-300h-115v-100h390v100h-155v300q24 3 58.5 6.5t66.5 3.5v-95h110v185q-19 4 -38.5 7t-51.5 3q-41 0 -81.5 -16t-63.5 -54h-10zM240 -200h80l40 90v50h-120v-140z" />
    <glyph glyph-name="Rcaron" unicode="&#x158;" 
d="M601 950v-1200h-602v1200h602zM301 800l-60 70h-110l110 -130h120l110 130h-110zM50 680v-680h120v270h180q29 0 47 -10t27.5 -26t12.5 -35.5t3 -38.5v-159h120v154q0 57 -18.5 93t-59.5 56v10q41 18 59.5 60.5t18.5 95.5q0 46 -13 84.5t-39 66.5t-67 43.5t-96 15.5h-295
zM170 370v210h170q58 0 79 -30.5t21 -79.5t-21 -74.5t-79 -25.5h-170z" />
    <glyph glyph-name="rcaron" unicode="&#x159;" 
d="M601 950v-1200h-602v1200h602zM331 620l-60 70h-110l110 -130h120l110 130h-110zM300 440l-20 60h-205v-100h115v-300h-115v-100h390v100h-155v300q24 3 58.5 6.5t66.5 3.5v-95h110v185q-19 4 -38.5 7t-51.5 3q-41 0 -81.5 -16t-63.5 -54h-10z" />
    <glyph glyph-name="Sacute" unicode="&#x15a;" 
d="M601 950v-1200h-602v1200h602zM245 740h110l100 130h-130zM40 240q0 -65 8.5 -112.5t36 -78t79 -45t136.5 -14.5t136.5 15t79 42t36 63.5t8.5 79.5q0 45 -17 76.5t-44.5 53.5t-63 36t-73 25t-73 20t-63 21t-44.5 28t-17 40q0 29 5.5 48t20.5 30.5t41.5 16.5t67.5 5
q43 0 69.5 -5.5t41 -22t19.5 -45.5t5 -77h120q0 64 -9.5 111.5t-37 78t-77.5 45.5t-131 15q-74 0 -123 -15.5t-78.5 -42.5t-41.5 -63.5t-12 -78.5q0 -45 17 -76.5t44.5 -53.5t63 -36.5t73 -26t73 -21.5t63 -22.5t44.5 -30t17 -43.5t-5 -43t-20 -27.5t-42.5 -15t-72.5 -4.5
t-72.5 5.5t-42.5 21.5t-20 45.5t-5 77.5h-120z" />
    <glyph glyph-name="sacute" unicode="&#x15b;" 
d="M601 950v-1200h-602v1200h602zM245 560h110l100 130h-130zM50 175q0 -47 11.5 -82t40 -58t75.5 -34t118 -11q75 0 124 11t78.5 31.5t41 50t11.5 67.5q0 54 -27.5 83.5t-68.5 44t-89 19.5t-89 9t-68.5 12.5t-27.5 31.5q0 15 5 26t18.5 18.5t38 11.5t63.5 4t62.5 -5
t36.5 -15.5t17 -26.5t4 -38h115q0 47 -10.5 81.5t-36.5 57.5t-72 34.5t-116 11.5q-71 0 -118.5 -11t-75.5 -31.5t-39.5 -50.5t-11.5 -67q0 -54 27.5 -83.5t68.5 -44t89 -19.5t89 -9t68.5 -13t27.5 -31q0 -15 -5 -26.5t-19.5 -19t-41 -11t-69.5 -3.5q-39 0 -64.5 5t-40 15
t-20 26t-5.5 39h-115z" />
    <glyph glyph-name="Scedilla" unicode="&#x15e;" 
d="M601 950v-1200h-602v1200h602zM555 440q0 64 -9.5 111.5t-37 78t-77.5 45.5t-131 15q-74 0 -123 -15.5t-78.5 -42.5t-41.5 -63.5t-12 -78.5q0 -45 17 -76.5t44.5 -53.5t63 -36.5t73 -26t73 -21.5t63 -22.5t44.5 -30t17 -43.5t-5 -43t-20 -27.5t-42.5 -15t-72.5 -4.5
t-72.5 5.5t-42.5 21.5t-20 45.5t-5 77.5h-120q0 -62 8 -108t32 -76.5t69.5 -46.5t120.5 -19v-80q23 0 39 -4t16 -23q0 -15 -11 -20t-28 -5q-11 0 -22 1t-23 3l-8 -60q20 -6 43 -9t41 -3q51 0 78.5 22t27.5 63q0 49 -25.5 67t-67.5 18v31q75 3 120.5 19t69.5 42.5t32 61.5
t8 76q0 45 -17 76.5t-44.5 53.5t-63 36t-73 25t-73 20t-63 21t-44.5 28t-17 40q0 29 5.5 48t20.5 30.5t41.5 16.5t67.5 5q43 0 69.5 -5.5t41 -22t19.5 -45.5t5 -77h120z" />
    <glyph glyph-name="scedilla" unicode="&#x15f;" 
d="M601 950v-1200h-602v1200h602zM540 325q0 47 -10.5 81.5t-36.5 57.5t-72 34.5t-116 11.5q-71 0 -118.5 -11t-75.5 -31.5t-39.5 -50.5t-11.5 -67q0 -54 27.5 -83.5t68.5 -44t89 -19.5t89 -9t68.5 -13t27.5 -31q0 -15 -5 -26.5t-19.5 -19t-41 -11t-69.5 -3.5q-39 0 -64.5 5
t-40 15t-20 26t-5.5 39h-115q0 -45 10.5 -78.5t36 -56.5t68 -35.5t105.5 -14.5v-80q23 0 39 -4t16 -23q0 -15 -11 -20t-28 -5q-11 0 -22 1t-23 3l-8 -60q20 -6 43 -9t41 -3q51 0 78.5 22t27.5 63q0 49 -25.5 67t-67.5 18v31q64 2 106.5 14t68 32.5t35.5 49t10 63.5
q0 54 -27.5 83.5t-68.5 44t-89 19.5t-89 9t-68.5 12.5t-27.5 31.5q0 15 5 26t18.5 18.5t38 11.5t63.5 4t62.5 -5t36.5 -15.5t17 -26.5t4 -38h115z" />
    <glyph glyph-name="Scaron" unicode="&#x160;" 
d="M601 950v-1200h-602v1200h602zM301 800l-60 70h-110l110 -130h120l110 130h-110zM40 240q0 -65 8.5 -112.5t36 -78t79 -45t136.5 -14.5t136.5 15t79 42t36 63.5t8.5 79.5q0 45 -17 76.5t-44.5 53.5t-63 36t-73 25t-73 20t-63 21t-44.5 28t-17 40q0 29 5.5 48t20.5 30.5
t41.5 16.5t67.5 5q43 0 69.5 -5.5t41 -22t19.5 -45.5t5 -77h120q0 64 -9.5 111.5t-37 78t-77.5 45.5t-131 15q-74 0 -123 -15.5t-78.5 -42.5t-41.5 -63.5t-12 -78.5q0 -45 17 -76.5t44.5 -53.5t63 -36.5t73 -26t73 -21.5t63 -22.5t44.5 -30t17 -43.5t-5 -43t-20 -27.5
t-42.5 -15t-72.5 -4.5t-72.5 5.5t-42.5 21.5t-20 45.5t-5 77.5h-120z" />
    <glyph glyph-name="scaron" unicode="&#x161;" 
d="M601 950v-1200h-602v1200h602zM301 620l-60 70h-110l110 -130h120l110 130h-110zM50 175q0 -47 11.5 -82t40 -58t75.5 -34t118 -11q75 0 124 11t78.5 31.5t41 50t11.5 67.5q0 54 -27.5 83.5t-68.5 44t-89 19.5t-89 9t-68.5 12.5t-27.5 31.5q0 15 5 26t18.5 18.5t38 11.5
t63.5 4t62.5 -5t36.5 -15.5t17 -26.5t4 -38h115q0 47 -10.5 81.5t-36.5 57.5t-72 34.5t-116 11.5q-71 0 -118.5 -11t-75.5 -31.5t-39.5 -50.5t-11.5 -67q0 -54 27.5 -83.5t68.5 -44t89 -19.5t89 -9t68.5 -13t27.5 -31q0 -15 -5 -26.5t-19.5 -19t-41 -11t-69.5 -3.5
q-39 0 -64.5 5t-40 15t-20 26t-5.5 39h-115z" />
    <glyph glyph-name="uni0162" unicode="&#x162;" 
d="M601 950v-1200h-602v1200h602zM550 680h-500v-100h190v-580h30v-90q23 0 39 -4t16 -23q0 -15 -11 -20t-28 -5q-11 0 -22 1t-23 3l-8 -60q20 -6 43 -9t41 -3q51 0 78.5 22t27.5 63q0 49 -25.5 67t-67.5 18v40h30v580h190v100z" />
    <glyph glyph-name="uni0163" unicode="&#x163;" 
d="M601 950v-1200h-602v1200h602zM501 108q-20 -5 -49.5 -11t-60.5 -6q-33 0 -54.5 5t-34 14.5t-17.5 23.5t-5 32v234h230v100h-230v120h-120v-120h-130v-100h130v-241q0 -140 140 -164v-85q23 0 39 -4t16 -23q0 -15 -11 -20t-28 -5q-11 0 -22 1t-23 3l-8 -60q20 -6 43 -9
t41 -3q51 0 78.5 22t27.5 63q0 49 -25.5 67t-67.5 18v30h7q17 0 38 2t41.5 5.5t39 7.5t30.5 8z" />
    <glyph glyph-name="Tcaron" unicode="&#x164;" 
d="M601 950v-1200h-602v1200h602zM301 800l-60 70h-110l110 -130h120l110 130h-110zM550 580v100h-500v-100h190v-580h120v580h190z" />
    <glyph glyph-name="tcaron" unicode="&#x165;" 
d="M601 950v-1200h-602v1200h602zM440 680v-120l40 -110h80v230h-120zM30 400h90v-241q0 -87 52 -128t155 -41q17 0 38 2t41.5 5.5t39 7.5t30.5 8l-15 95q-20 -5 -49.5 -11t-60.5 -6q-33 0 -54.5 5t-34 14.5t-17.5 23.5t-5 32v234h170v100h-170v120h-120v-120h-90v-100z" />
    <glyph glyph-name="Tbar" unicode="&#x166;" 
d="M601 950v-1200h-602v1200h602zM550 580v100h-500v-100h190v-190h-120v-100h120v-290h120v290h120v100h-120v190h190z" />
    <glyph glyph-name="tbar" unicode="&#x167;" 
d="M601 950v-1200h-602v1200h602zM30 400h130v-95h-110v-100h110v-46q0 -87 52 -128t155 -41q17 0 38 2t41.5 5.5t39 7.5t30.5 8l-15 95q-20 -5 -49.5 -11t-60.5 -6q-33 0 -54.5 5t-34 14.5t-17.5 23.5t-5 32v39h180v100h-180v95h230v100h-230v120h-120v-120h-130v-100z" />
    <glyph glyph-name="Umacron" unicode="&#x16a;" 
d="M601 950v-1200h-602v1200h602zM146 745h319v90h-319v-90zM165 680h-120v-440q0 -65 8.5 -112.5t35.5 -78t77.5 -45t133.5 -14.5t133.5 14.5t77.5 45t35.5 78t8.5 112.5v440h-120v-440q0 -48 -5.5 -77.5t-20.5 -45.5t-41.5 -21.5t-67.5 -5.5q-43 0 -69.5 5.5t-41 21.5
t-19.5 45.5t-5 77.5v440z" />
    <glyph glyph-name="umacron" unicode="&#x16b;" 
d="M601 950v-1200h-602v1200h602zM126 565h319v90h-319v-90zM520 500h-190v-100h70v-300q-24 -5 -50.5 -7.5t-44.5 -2.5q-56 0 -80.5 15.5t-24.5 64.5v330h-180v-100h60v-250q0 -90 43.5 -125t126.5 -35q53 0 90 16t60 54h10v-6q0 -38 21 -51t59 -13q20 0 45 3t45 7v100
q-15 -5 -30 -5q-23 0 -26.5 10.5t-3.5 29.5v365z" />
    <glyph glyph-name="Uring" unicode="&#x16e;" 
d="M601 950v-1200h-602v1200h602zM193 828q0 -25 5 -41.5t17 -27t33 -15t53 -4.5q31 0 51.5 4t33 14t17.5 27t5 43q0 24 -4.5 40.5t-16.5 27.5t-33 16t-54 5q-35 0 -56 -6t-32 -17t-15 -27.5t-4 -38.5zM250 828q0 10 1.5 16.5t6.5 10t15 4.5t27 1q18 0 28 -1t15 -4.5
t6.5 -10t1.5 -16.5q0 -11 -1.5 -17t-6.5 -9t-15 -4t-27 -1q-18 0 -28 1t-15 4t-6.5 9t-1.5 17zM165 680h-120v-440q0 -65 8.5 -112.5t35.5 -78t77.5 -45t133.5 -14.5t133.5 14.5t77.5 45t35.5 78t8.5 112.5v440h-120v-440q0 -48 -5.5 -77.5t-20.5 -45.5t-41.5 -21.5
t-67.5 -5.5q-43 0 -69.5 5.5t-41 21.5t-19.5 45.5t-5 77.5v440z" />
    <glyph glyph-name="uring" unicode="&#x16f;" 
d="M601 950v-1200h-602v1200h602zM173 648q0 -25 5 -41.5t17 -27t33 -15t53 -4.5q31 0 51.5 4t33 14t17.5 27t5 43q0 24 -4.5 40.5t-16.5 27.5t-33 16t-54 5q-35 0 -56 -6t-32 -17t-15 -27.5t-4 -38.5zM230 648q0 10 1.5 16.5t6.5 10t15 4.5t27 1q18 0 28 -1t15 -4.5
t6.5 -10t1.5 -16.5q0 -11 -1.5 -17t-6.5 -9t-15 -4t-27 -1q-18 0 -28 1t-15 4t-6.5 9t-1.5 17zM520 500h-190v-100h70v-300q-24 -5 -50.5 -7.5t-44.5 -2.5q-56 0 -80.5 15.5t-24.5 64.5v330h-180v-100h60v-250q0 -90 43.5 -125t126.5 -35q53 0 90 16t60 54h10v-6
q0 -38 21 -51t59 -13q20 0 45 3t45 7v100q-15 -5 -30 -5q-23 0 -26.5 10.5t-3.5 29.5v365z" />
    <glyph glyph-name="Uhungarumlaut" unicode="&#x170;" 
d="M601 950v-1200h-602v1200h602zM145 740h110l100 130h-130zM345 740h110l100 130h-130zM165 680h-120v-440q0 -65 8.5 -112.5t35.5 -78t77.5 -45t133.5 -14.5t133.5 14.5t77.5 45t35.5 78t8.5 112.5v440h-120v-440q0 -48 -5.5 -77.5t-20.5 -45.5t-41.5 -21.5t-67.5 -5.5
q-43 0 -69.5 5.5t-41 21.5t-19.5 45.5t-5 77.5v440z" />
    <glyph glyph-name="uhungarumlaut" unicode="&#x171;" 
d="M601 950v-1200h-602v1200h602zM125 560h110l100 130h-130zM325 560h110l100 130h-130zM520 500h-190v-100h70v-300q-24 -5 -50.5 -7.5t-44.5 -2.5q-56 0 -80.5 15.5t-24.5 64.5v330h-180v-100h60v-250q0 -90 43.5 -125t126.5 -35q53 0 90 16t60 54h10v-6q0 -38 21 -51
t59 -13q20 0 45 3t45 7v100q-15 -5 -30 -5q-23 0 -26.5 10.5t-3.5 29.5v365z" />
    <glyph glyph-name="Uogonek" unicode="&#x172;" 
d="M601 950v-1200h-602v1200h602zM435 680v-440q0 -48 -5.5 -77.5t-20.5 -45.5t-41.5 -21.5t-67.5 -5.5q-43 0 -69.5 5.5t-41 21.5t-19.5 45.5t-5 77.5v440h-120v-440q0 -60 7 -104.5t28.5 -75t61.5 -47.5t105 -21q-73 -52 -73 -115q0 -35 26 -61t85 -26q23 0 53 7.5
t47 21.5l-7 59q-20 -9 -40 -9q-23 0 -37 8t-14 29q0 20 12 42.5t31 42.5q73 2 117.5 18t68.5 46.5t31.5 76.5t7.5 108v440h-120z" />
    <glyph glyph-name="uogonek" unicode="&#x173;" 
d="M601 -250h-602v1200h602v-1078q-12 -3 -23 -3q-23 0 -37 8t-14 29q0 22 15 48t38 46v100q-15 -5 -30 -5q-23 0 -26.5 10.5t-3.5 29.5v365h-190v-100h70v-300q-24 -5 -50.5 -7.5t-44.5 -2.5q-56 0 -80.5 15.5t-24.5 64.5v330h-180v-100h60v-250q0 -90 43.5 -125t126.5 -35
q53 0 90 16t60 54h10v-6q0 -38 20 -51t50 -13h5q-35 -25 -53 -54t-18 -59q0 -35 26 -61t85 -26q17 0 37.5 4t38.5 12v-56z" />
    <glyph glyph-name="Wcircumflex" unicode="&#x174;" 
d="M601 950v-1200h-602v1200h602zM470 740l-110 130h-120l-110 -130h110l60 70l60 -70h110zM10 645l90 -650h130l50 295l15 95h10l15 -95l60 -295h120l90 650v35h-108l-34 -330l-7 -105h-10l-13 105l-63 330h-110l-57 -330l-13 -105h-10l-7 105l-40 330h-108v-35z" />
    <glyph glyph-name="wcircumflex" unicode="&#x175;" 
d="M601 950v-1200h-602v1200h602zM470 560l-110 130h-120l-110 -130h110l60 70l60 -70h110zM15 465l70 -465h144l55 215l11 86h10l10 -86l56 -215h144l70 465v35h-110l-34 -288v-47h-11l-10 65l-59 270h-122l-54 -270l-10 -85h-10l-5 70l-35 285h-110v-35z" />
    <glyph glyph-name="Ycircumflex" unicode="&#x176;" 
d="M601 950v-1200h-602v1200h602zM470 740l-110 130h-120l-110 -130h110l60 70l60 -70h110zM20 645l220 -440v-205h120v205l220 440v35h-110l-145 -305l-20 -60h-10l-20 60l-145 305h-110v-35z" />
    <glyph glyph-name="ycircumflex" unicode="&#x177;" 
d="M601 950v-1200h-602v1200h602zM475 560l-110 130h-120l-110 -130h110l60 70l60 -70h110zM20 500v-100h60v-230q0 -90 43.5 -125t126.5 -35q53 0 90 16t60 54h10l-10 -104q0 -18 -5.5 -32t-20.5 -23.5t-42.5 -14.5t-72.5 -5q-46 0 -88 6t-62 11l-14 -95q12 -4 34 -8
t48 -7.5t53.5 -5.5t52.5 -2q125 0 181 41t56 128v531h-190v-100h70v-280q-24 -5 -50.5 -7.5t-44.5 -2.5q-56 0 -80.5 15.5t-24.5 64.5v310h-180z" />
    <glyph glyph-name="Ydieresis" unicode="&#x178;" 
d="M601 950v-1200h-602v1200h602zM140 740h120v120h-120v-120zM340 740h120v120h-120v-120zM20 645l220 -440v-205h120v205l220 440v35h-110l-145 -305l-20 -60h-10l-20 60l-145 305h-110v-35z" />
    <glyph glyph-name="Zacute" unicode="&#x179;" 
d="M601 950v-1200h-602v1200h602zM245 740h110l100 130h-130zM195 90v10l355 483v97h-490v-100h235l100 10v-10l-355 -483v-97h520v100h-265z" />
    <glyph glyph-name="zacute" unicode="&#x17a;" 
d="M601 950v-1200h-602v1200h602zM245 560h110l100 130h-130zM500 400v100h-405v-100h145l110 10v-10l-270 -300v-100h440v100h-180l-110 -10v10z" />
    <glyph glyph-name="Zdotaccent" unicode="&#x17b;" 
d="M601 950v-1200h-602v1200h602zM240 740h120v120h-120v-120zM195 90v10l355 483v97h-490v-100h235l100 10v-10l-355 -483v-97h520v100h-265z" />
    <glyph glyph-name="zdotaccent" unicode="&#x17c;" 
d="M601 950v-1200h-602v1200h602zM240 560h120v120h-120v-120zM500 400v100h-405v-100h145l110 10v-10l-270 -300v-100h440v100h-180l-110 -10v10z" />
    <glyph glyph-name="Zcaron" unicode="&#x17d;" 
d="M601 950v-1200h-602v1200h602zM301 800l-60 70h-110l110 -130h120l110 130h-110zM195 90v10l355 483v97h-490v-100h235l100 10v-10l-355 -483v-97h520v100h-265z" />
    <glyph glyph-name="zcaron" unicode="&#x17e;" 
d="M601 950v-1200h-602v1200h602zM301 620l-60 70h-110l110 -130h120l110 130h-110zM500 400v100h-405v-100h145l110 10v-10l-270 -300v-100h440v100h-180l-110 -10v10z" />
    <glyph glyph-name="florin" unicode="&#x192;" 
d="M601 950v-1200h-602v1200h602zM521 400l11 100h-151l1 14q4 37 27 56t52 19q24 0 47 -3.5t43 -8.5l24 95q-12 4 -28.5 7t-34 5.5t-35 4t-30.5 1.5q-32 0 -63 -10t-56.5 -31t-43 -53t-21.5 -75l-2 -21h-140l-11 -100h140l-44 -414q-4 -37 -26.5 -56t-51.5 -19
q-23 0 -41.5 3.5t-37.5 8.5l-24 -95q24 -8 56.5 -13t59.5 -5q32 0 63.5 10t57 31t42.5 53t22 75l44 421h151z" />
    <glyph glyph-name="uni0218" unicode="&#x218;" 
d="M601 950v-1200h-602v1200h602zM40 240q0 -65 8.5 -112.5t36 -78t79 -45t136.5 -14.5t136.5 15t79 42t36 63.5t8.5 79.5q0 45 -17 76.5t-44.5 53.5t-63 36t-73 25t-73 20t-63 21t-44.5 28t-17 40q0 29 5.5 48t20.5 30.5t41.5 16.5t67.5 5q43 0 69.5 -5.5t41 -22
t19.5 -45.5t5 -77h120q0 64 -9.5 111.5t-37 78t-77.5 45.5t-131 15q-74 0 -123 -15.5t-78.5 -42.5t-41.5 -63.5t-12 -78.5q0 -45 17 -76.5t44.5 -53.5t63 -36.5t73 -26t73 -21.5t63 -22.5t44.5 -30t17 -43.5t-5 -43t-20 -27.5t-42.5 -15t-72.5 -4.5t-72.5 5.5t-42.5 21.5
t-20 45.5t-5 77.5h-120zM240 -200h80l40 90v50h-120v-140z" />
    <glyph glyph-name="uni0219" unicode="&#x219;" 
d="M601 950v-1200h-602v1200h602zM50 175q0 -47 11.5 -82t40 -58t75.5 -34t118 -11q75 0 124 11t78.5 31.5t41 50t11.5 67.5q0 54 -27.5 83.5t-68.5 44t-89 19.5t-89 9t-68.5 12.5t-27.5 31.5q0 15 5 26t18.5 18.5t38 11.5t63.5 4t62.5 -5t36.5 -15.5t17 -26.5t4 -38h115
q0 47 -10.5 81.5t-36.5 57.5t-72 34.5t-116 11.5q-71 0 -118.5 -11t-75.5 -31.5t-39.5 -50.5t-11.5 -67q0 -54 27.5 -83.5t68.5 -44t89 -19.5t89 -9t68.5 -13t27.5 -31q0 -15 -5 -26.5t-19.5 -19t-41 -11t-69.5 -3.5q-39 0 -64.5 5t-40 15t-20 26t-5.5 39h-115zM240 -200h80
l40 90v50h-120v-140z" />
    <glyph glyph-name="uni021A" unicode="&#x21a;" 
d="M601 950v-1200h-602v1200h602zM550 580v100h-500v-100h190v-580h120v580h190zM240 -200h80l40 90v50h-120v-140z" />
    <glyph glyph-name="uni021B" unicode="&#x21b;" 
d="M601 950v-1200h-602v1200h602zM30 400h130v-241q0 -87 52 -128t155 -41q17 0 38 2t41.5 5.5t39 7.5t30.5 8l-15 95q-20 -5 -49.5 -11t-60.5 -6q-33 0 -54.5 5t-34 14.5t-17.5 23.5t-5 32v234h230v100h-230v120h-120v-120h-130v-100zM280 -200h80l40 90v50h-120v-140z" />
    <glyph glyph-name="circumflex" unicode="&#x2c6;" 
d="M360 560l-60 70l-60 -70h-110l110 130h120l110 -130h-110z" />
    <glyph glyph-name="caron" unicode="&#x2c7;" 
d="M360 690h110l-110 -130h-120l-110 130h110l60 -70z" />
    <glyph glyph-name="breve" unicode="&#x2d8;" 
d="M240 690q0 -38 13 -49t47 -11t47 11t13 49h100q0 -41 -9.5 -68t-29 -43t-50 -22.5t-71.5 -6.5t-71.5 6.5t-50 22.5t-29 43t-9.5 68h100z" />
    <glyph glyph-name="dotaccent" unicode="&#x2d9;" 
d="M240 680h120v-120h-120v120z" />
    <glyph glyph-name="ring" unicode="&#x2da;" 
d="M192 648q0 22 4 38.5t15 27.5t32 17t56 6q33 0 54 -5t33 -16t16.5 -27.5t4.5 -40.5q0 -26 -5 -43t-17.5 -27t-33 -14t-51.5 -4q-32 0 -53 4.5t-33 15t-17 27t-5 41.5zM249 648q0 -11 1.5 -17t6.5 -9t15 -4t28 -1q17 0 27 1t15 4t6.5 9t1.5 17q0 10 -1.5 16.5t-6.5 10
t-15 4.5t-28 1q-17 0 -27 -1t-15 -4.5t-6.5 -10t-1.5 -16.5z" />
    <glyph glyph-name="ogonek" unicode="&#x2db;" 
d="M385 -181q-17 -14 -47 -21.5t-53 -7.5q-59 0 -85 26t-26 61q0 33 21.5 65t64.5 58h80q-23 -20 -38 -46t-15 -48q0 -21 14 -29t37 -8q20 0 40 9z" />
    <glyph glyph-name="tilde" unicode="&#x2dc;" 
d="M485 636q-18 -30 -43 -53t-66 -23q-16 0 -34 6.5t-36 14.5t-35.5 14.5t-31.5 6.5q-8 0 -16 -1t-17 -5t-20.5 -12.5t-26.5 -24.5l-44 53q29 48 62 63t59 15q18 0 37 -6.5t36.5 -15t33 -15t28.5 -6.5q14 0 29 8.5t36 37.5z" />
    <glyph glyph-name="hungarumlaut" unicode="&#x2dd;" 
d="M225 690h130l-100 -130h-110zM425 690h130l-100 -130h-110z" />
    <glyph glyph-name="uni0326" unicode="&#x326;" horiz-adv-x="0" 
d="M240 -60h120v-50l-40 -90h-80v140z" />
    <glyph glyph-name="uni0394" unicode="&#x394;" 
d="M601 950v-1200h-602v1200h602zM20 35v-35h560v35l-215 650h-130zM305 545l25 -115l107 -330h-274l107 330l25 115h10z" />
    <glyph glyph-name="uni03A9" unicode="&#x3a9;" 
d="M601 950v-1200h-602v1200h602zM160 100h-120v-100h240v231q-38 3 -61.5 16.5t-36.5 37t-17.5 55t-4.5 70.5q0 40 5 73t20 57t42.5 37t72.5 13t72.5 -13t42.5 -37t20 -57t5 -73q0 -39 -4.5 -70.5t-17.5 -54.5t-36.5 -37t-61.5 -17v-231h240v100h-120v55q38 17 61.5 44
t36.5 60.5t17.5 72t4.5 78.5q0 53 -8.5 103.5t-36 89.5t-79 63t-136.5 24t-136.5 -24t-79 -63t-36 -89.5t-8.5 -103.5q0 -40 4.5 -78.5t17.5 -72t36.5 -60.5t61.5 -44v-55z" />
    <glyph glyph-name="uni03BC" unicode="&#x3bc;" 
d="M601 950v-1200h-602v1200h602zM520 500h-190v-100h70v-300q-24 -5 -50.5 -7.5t-44.5 -2.5q-56 0 -80.5 15.5t-24.5 64.5v330h-180v-100h60v-590h120v183q22 -3 50 -3q53 0 90 16t60 54h10v-6q0 -38 21 -51t59 -13q20 0 45 3t45 7v100q-15 -5 -30 -5q-23 0 -26.5 10.5
t-3.5 29.5v365z" />
    <glyph glyph-name="pi" unicode="&#x3c0;" 
d="M601 950v-1200h-602v1200h602zM380 400v-400h120v400h80v100h-560v-100h80v-400h120v400h160z" />
    <glyph glyph-name="Wgrave" unicode="&#x1e80;" 
d="M601 950v-1200h-602v1200h602zM145 870l100 -130h110l-80 130h-130zM10 645l90 -650h130l50 295l15 95h10l15 -95l60 -295h120l90 650v35h-108l-34 -330l-7 -105h-10l-13 105l-63 330h-110l-57 -330l-13 -105h-10l-7 105l-40 330h-108v-35z" />
    <glyph glyph-name="wgrave" unicode="&#x1e81;" 
d="M601 950v-1200h-602v1200h602zM145 690l100 -130h110l-80 130h-130zM15 465l70 -465h144l55 215l11 86h10l10 -86l56 -215h144l70 465v35h-110l-34 -288v-47h-11l-10 65l-59 270h-122l-54 -270l-10 -85h-10l-5 70l-35 285h-110v-35z" />
    <glyph glyph-name="Wacute" unicode="&#x1e82;" 
d="M601 950v-1200h-602v1200h602zM245 740h110l100 130h-130zM10 645l90 -650h130l50 295l15 95h10l15 -95l60 -295h120l90 650v35h-108l-34 -330l-7 -105h-10l-13 105l-63 330h-110l-57 -330l-13 -105h-10l-7 105l-40 330h-108v-35z" />
    <glyph glyph-name="wacute" unicode="&#x1e83;" 
d="M601 950v-1200h-602v1200h602zM245 560h110l100 130h-130zM15 465l70 -465h144l55 215l11 86h10l10 -86l56 -215h144l70 465v35h-110l-34 -288v-47h-11l-10 65l-59 270h-122l-54 -270l-10 -85h-10l-5 70l-35 285h-110v-35z" />
    <glyph glyph-name="Wdieresis" unicode="&#x1e84;" 
d="M601 950v-1200h-602v1200h602zM140 740h120v120h-120v-120zM340 740h120v120h-120v-120zM10 645l90 -650h130l50 295l15 95h10l15 -95l60 -295h120l90 650v35h-108l-34 -330l-7 -105h-10l-13 105l-63 330h-110l-57 -330l-13 -105h-10l-7 105l-40 330h-108v-35z" />
    <glyph glyph-name="wdieresis" unicode="&#x1e85;" 
d="M601 950v-1200h-602v1200h602zM140 560h120v120h-120v-120zM340 560h120v120h-120v-120zM15 465l70 -465h144l55 215l11 86h10l10 -86l56 -215h144l70 465v35h-110l-34 -288v-47h-11l-10 65l-59 270h-122l-54 -270l-10 -85h-10l-5 70l-35 285h-110v-35z" />
    <glyph glyph-name="Ygrave" unicode="&#x1ef2;" 
d="M601 950v-1200h-602v1200h602zM145 870l100 -130h110l-80 130h-130zM20 645l220 -440v-205h120v205l220 440v35h-110l-145 -305l-20 -60h-10l-20 60l-145 305h-110v-35z" />
    <glyph glyph-name="ygrave" unicode="&#x1ef3;" 
d="M601 950v-1200h-602v1200h602zM150 690l100 -130h110l-80 130h-130zM20 500v-100h60v-230q0 -90 43.5 -125t126.5 -35q53 0 90 16t60 54h10l-10 -104q0 -18 -5.5 -32t-20.5 -23.5t-42.5 -14.5t-72.5 -5q-46 0 -88 6t-62 11l-14 -95q12 -4 34 -8t48 -7.5t53.5 -5.5
t52.5 -2q125 0 181 41t56 128v531h-190v-100h70v-280q-24 -5 -50.5 -7.5t-44.5 -2.5q-56 0 -80.5 15.5t-24.5 64.5v310h-180z" />
    <glyph glyph-name="endash" unicode="&#x2013;" 
d="M601 950v-1200h-602v1200h602zM20 205h560v100h-560v-100z" />
    <glyph glyph-name="emdash" unicode="&#x2014;" 
d="M601 950v-1200h-602v1200h602zM20 205h560v100h-560v-100z" />
    <glyph glyph-name="quoteleft" unicode="&#x2018;" 
d="M601 950v-1200h-602v1200h602zM240 450h80l40 110v120h-120v-230z" />
    <glyph glyph-name="quoteright" unicode="&#x2019;" 
d="M601 950v-1200h-602v1200h602zM240 680v-120l40 -110h80v230h-120z" />
    <glyph glyph-name="quotesinglbase" unicode="&#x201a;" 
d="M601 950v-1200h-602v1200h602zM240 -110h80l40 110v120h-120v-230z" />
    <glyph glyph-name="quotedblleft" unicode="&#x201c;" 
d="M601 950v-1200h-602v1200h602zM140 450h80l40 110v120h-120v-230zM340 450h80l40 110v120h-120v-230z" />
    <glyph glyph-name="quotedblright" unicode="&#x201d;" 
d="M601 950v-1200h-602v1200h602zM140 680v-120l40 -110h80v230h-120zM340 680v-120l40 -110h80v230h-120z" />
    <glyph glyph-name="quotedblbase" unicode="&#x201e;" 
d="M601 950v-1200h-602v1200h602zM260 -110v120l-40 110h-80v-230h120zM460 -110v120l-40 110h-80v-230h120z" />
    <glyph glyph-name="dagger" unicode="&#x2020;" 
d="M601 950v-1200h-602v1200h602zM460 500l-110 -10l10 120v70h-120v-70l10 -120l-110 10h-100v-100h100l110 10l-10 -120v-290h120v290l-10 120l110 -10h100v100h-100z" />
    <glyph glyph-name="daggerdbl" unicode="&#x2021;" 
d="M601 950v-1200h-602v1200h602zM40 400h100l110 10v-140l-110 10h-100v-100h100l110 10l-10 -120v-70h120v70l-10 120l110 -10h100v100h-100l-110 -10v140l110 -10h100v100h-100l-110 -10l10 120v70h-120v-70l10 -120l-110 10h-100v-100z" />
    <glyph glyph-name="bullet" unicode="&#x2022;" 
d="M601 950v-1200h-602v1200h602zM400 150v200h-200v-200h200z" />
    <glyph glyph-name="ellipsis" unicode="&#x2026;" 
d="M601 950v-1200h-602v1200h602zM165 0v120h-120v-120h120zM360 0v120h-120v-120h120zM555 0v120h-120v-120h120z" />
    <glyph glyph-name="perthousand" unicode="&#x2030;" 
d="M601 950v-1200h-602v1200h602zM125 420q37 0 58.5 7t31.5 23t12.5 41.5t2.5 63.5q0 37 -2.5 63t-12.5 42t-31.5 23t-58.5 7q-38 0 -59 -7t-31 -23t-12.5 -42t-2.5 -63q0 -38 2.5 -63.5t12.5 -41.5t31 -23t59 -7zM450 680h-70l-370 -645v-35h70l370 645v35zM125 630
q11 0 18 -2t10.5 -9.5t5 -22.5t1.5 -41t-1.5 -41t-5 -22.5t-10.5 -9.5t-18 -2t-18 2t-11 9.5t-5 22.5t-1 41t1 41t5 22.5t11 9.5t18 2zM475 260q-28 0 -44.5 -7t-25.5 -19q-9 12 -25.5 19t-44.5 7q-38 0 -59 -7t-31 -23t-12.5 -42t-2.5 -63q0 -38 2.5 -63.5t12.5 -41.5
t31 -23t59 -7q28 0 44.5 7t25.5 19q9 -12 25.5 -19t44.5 -7q37 0 58.5 7t31.5 23t12.5 41.5t2.5 63.5q0 37 -2.5 63t-12.5 42t-31.5 23t-58.5 7zM335 50q-11 0 -18 2t-11 9.5t-5 22.5t-1 41t1 41t5 22.5t11 9.5t18 2t18 -2t10.5 -9.5t5 -22.5t1.5 -41t-1.5 -41t-5 -22.5
t-10.5 -9.5t-18 -2zM475 50q-11 0 -18 2t-11 9.5t-5 22.5t-1 41t1 41t5 22.5t11 9.5t18 2t18 -2t10.5 -9.5t5 -22.5t1.5 -41t-1.5 -41t-5 -22.5t-10.5 -9.5t-18 -2z" />
    <glyph glyph-name="guilsinglleft" unicode="&#x2039;" 
d="M601 950v-1200h-602v1200h602zM275 255l130 80v100l-210 -130v-100l210 -130v100z" />
    <glyph glyph-name="guilsinglright" unicode="&#x203a;" 
d="M601 950v-1200h-602v1200h602zM195 75l210 130v100l-210 130v-100l130 -80l-130 -80v-100z" />
    <glyph glyph-name="fraction" unicode="&#x2044;" 
d="M601 950v-1200h-602v1200h602zM70 300h460v80h-460v-80z" />
    <glyph glyph-name="uni2070" unicode="&#x2070;" 
d="M601 950v-1200h-602v1200h602zM300 850q-54 0 -85.5 -11.5t-48 -37t-21.5 -66.5t-5 -100t5 -100t21.5 -66.5t48 -37t85.5 -11.5t85.5 11.5t48 37t21.5 66.5t5 100t-5 100t-21.5 66.5t-48 37t-85.5 11.5zM300 780q25 0 40.5 -4t24.5 -19t12 -44t3 -78q0 -50 -3 -79
t-12 -43.5t-24.5 -18.5t-40.5 -4q-24 0 -39.5 4t-24.5 18.5t-12.5 43.5t-3.5 79q0 49 3.5 78t12.5 44t24.5 19t39.5 4zM270 598h60v72h-60v-72z" />
    <glyph glyph-name="uni2074" unicode="&#x2074;" 
d="M601 950v-1200h-602v1200h602zM460 590h-50v250h-80l-190 -250v-70h190v-90h80v90h50v70zM220 590l110 140v-140h-110z" />
    <glyph glyph-name="uni2075" unicode="&#x2075;" 
d="M601 950v-1200h-602v1200h602zM160 840v-215h135q23 0 39 -1.5t26.5 -7.5t15 -18t4.5 -33q0 -46 -18 -60.5t-62 -14.5q-23 0 -38.5 3.5t-24.5 12.5t-13 25.5t-4 43.5h-80q0 -39 6 -68t23 -48.5t48.5 -29t82.5 -9.5q45 0 76 10.5t49.5 30t26.5 46t8 58.5q0 30 -7 54.5
t-24 41t-46 25.5t-73 9h-70v75h185v70h-265z" />
    <glyph glyph-name="uni2076" unicode="&#x2076;" 
d="M601 950v-1200h-602v1200h602zM222 685q2 33 7 51.5t14 28.5t23 12.5t34 2.5q23 0 37.5 -3.5t23 -11.5t11.5 -21.5t3 -33.5h80q0 32 -4.5 58t-20.5 44t-47 28t-83 10q-48 0 -79 -9.5t-49 -33.5t-25 -66t-7 -106q0 -59 5 -100t21.5 -66.5t48 -37t85.5 -11.5
q44 0 74.5 10.5t49.5 29t27.5 43t8.5 52.5q0 35 -9.5 60t-26.5 40.5t-40 22.5t-49 7h-113zM305 615q39 0 57 -12.5t18 -47.5q0 -38 -19 -51.5t-61 -13.5q-27 0 -42 3.5t-23 16t-10.5 37.5t-2.5 68h83z" />
    <glyph glyph-name="uni2077" unicode="&#x2077;" 
d="M601 950v-1200h-602v1200h602zM320 430q0 54 10 98t27.5 84t41 78t51.5 80v70h-300v-130h80v60h140q-17 -24 -39 -61t-42.5 -81.5t-34.5 -95t-14 -102.5h80z" />
    <glyph glyph-name="uni2078" unicode="&#x2078;" 
d="M601 950v-1200h-602v1200h602zM210 640q-35 -9 -52.5 -32t-17.5 -68q0 -23 7.5 -44.5t26 -38t49.5 -27t77 -10.5t77 10.5t49.5 27t26 38t7.5 44.5q0 45 -17.5 68t-52.5 32v5q10 3 20.5 9t19.5 16.5t14.5 25t5.5 34.5q0 63 -35 91.5t-115 28.5t-115 -28.5t-35 -91.5
q0 -20 5.5 -34.5t14.5 -25t19.5 -16.5t20.5 -9v-5zM286 675q-24 0 -40 12t-16 33q0 39 19 49.5t51 10.5t51 -10.5t19 -49.5q0 -21 -16 -33t-40 -12h-28zM336 605q25 0 34.5 -18.5t9.5 -36.5q0 -32 -15.5 -46t-64.5 -14t-64.5 14t-15.5 46q0 9 2 18.5t7 18t13.5 13.5t21.5 5
h72z" />
    <glyph glyph-name="uni2079" unicode="&#x2079;" 
d="M601 950v-1200h-602v1200h602zM378 585q-2 -33 -7 -51.5t-14 -28.5t-23 -12.5t-34 -2.5q-23 0 -38 3.5t-23 11.5t-11 21.5t-3 33.5h-80q0 -32 4.5 -58t20.5 -44t46.5 -28t83.5 -10q48 0 79 9.5t49 33.5t25 65.5t7 106.5q0 59 -5 100t-21.5 66.5t-48 37t-85.5 11.5
q-44 0 -74.5 -10.5t-49.5 -29t-27.5 -43t-8.5 -52.5q0 -35 9.5 -60t26.5 -40.5t40 -22.5t49 -7h113zM295 655q-39 0 -57 12.5t-18 47.5q0 38 19 51.5t61 13.5q27 0 42 -3.5t23 -16.5t10.5 -37.5t2.5 -67.5h-83z" />
    <glyph glyph-name="Euro" unicode="&#x20ac;" 
d="M601 950v-1200h-602v1200h602zM40 470v-100h40v-60h-40v-100h44q5 -61 19 -103t41 -68t70 -37.5t106 -11.5q78 0 125 14.5t72.5 45t34 78t8.5 112.5h-120q0 -48 -4.5 -77.5t-18 -45.5t-37 -21.5t-60.5 -5.5q-29 0 -49 3.5t-33.5 16t-21.5 36t-12 64.5h105v100h-109v60
h109v100h-105q4 40 12 64t21.5 36.5t33.5 16t49 3.5q37 0 60.5 -5.5t37 -22t18 -45.5t4.5 -77h120q0 64 -8.5 111.5t-34 78t-72.5 45.5t-125 15q-63 0 -105.5 -11.5t-69.5 -37.5t-41 -68t-20 -103h-44z" />
    <glyph glyph-name="trademark" unicode="&#x2122;" 
d="M601 950v-1200h-602v1200h602zM230 610v70h-210v-70h65v-340h80v340h65zM275 680v-410h80v200l-5 60h5l30 -145h85l30 145h5l-5 -60v-200h80v410h-110l-30 -125l-10 -65h-5l-10 65l-30 125h-110z" />
    <glyph glyph-name="oneeighth" unicode="&#x215b;" 
d="M601 950v-1200h-602v1200h602zM290 840l-120 -25v-70l90 15v-260h-90v-70h260v70h-90v340h-50zM70 300h460v80h-460v-80zM210 50q-35 -9 -52.5 -32t-17.5 -68q0 -23 7.5 -44.5t26 -38t49.5 -27t77 -10.5t77 10.5t49.5 27t26 38t7.5 44.5q0 45 -17.5 68t-52.5 32v5
q10 3 20.5 9t19.5 16.5t14.5 25t5.5 34.5q0 63 -35 91.5t-115 28.5t-115 -28.5t-35 -91.5q0 -20 5.5 -34.5t14.5 -25t19.5 -16.5t20.5 -9v-5zM286 85q-24 0 -40 12t-16 33q0 39 19 49.5t51 10.5t51 -10.5t19 -49.5q0 -21 -16 -33t-40 -12h-28zM336 15q25 0 34.5 -18.5
t9.5 -36.5q0 -32 -15.5 -46t-64.5 -14t-64.5 14t-15.5 46q0 9 2 18.5t7 18t13.5 13.5t21.5 5h72z" />
    <glyph glyph-name="threeeighths" unicode="&#x215c;" 
d="M601 950v-1200h-602v1200h602zM250 605h86q25 0 34.5 -18.5t9.5 -36.5q0 -32 -15.5 -46t-64.5 -14q-17 0 -31.5 3t-25.5 12t-17 26t-6 44h-80q0 -39 7.5 -68.5t26 -48.5t49.5 -28.5t77 -9.5t77 10.5t49.5 27t26 38t7.5 44.5q0 45 -17.5 68t-52.5 32v5q10 3 20.5 9
t19.5 16.5t14.5 25t5.5 34.5q0 63 -35 91.5t-115 28.5q-51 0 -82 -12t-47 -32.5t-21 -49t-5 -61.5h80q0 27 5 43.5t14.5 25.5t23.5 12.5t32 3.5q32 0 51 -10.5t19 -49.5q0 -21 -16 -33t-40 -12h-64v-70zM70 300h460v80h-460v-80zM210 50q-35 -9 -52.5 -32t-17.5 -68
q0 -23 7.5 -44.5t26 -38t49.5 -27t77 -10.5t77 10.5t49.5 27t26 38t7.5 44.5q0 45 -17.5 68t-52.5 32v5q10 3 20.5 9t19.5 16.5t14.5 25t5.5 34.5q0 63 -35 91.5t-115 28.5t-115 -28.5t-35 -91.5q0 -20 5.5 -34.5t14.5 -25t19.5 -16.5t20.5 -9v-5zM286 85q-24 0 -40 12
t-16 33q0 39 19 49.5t51 10.5t51 -10.5t19 -49.5q0 -21 -16 -33t-40 -12h-28zM336 15q25 0 34.5 -18.5t9.5 -36.5q0 -32 -15.5 -46t-64.5 -14t-64.5 14t-15.5 46q0 9 2 18.5t7 18t13.5 13.5t21.5 5h72z" />
    <glyph glyph-name="fiveeighths" unicode="&#x215d;" 
d="M601 950v-1200h-602v1200h602zM160 840v-215h135q23 0 39 -1.5t26.5 -7.5t15 -18t4.5 -33q0 -46 -18 -60.5t-62 -14.5q-23 0 -38.5 3.5t-24.5 12.5t-13 25.5t-4 43.5h-80q0 -39 6 -68t23 -48.5t48.5 -29t82.5 -9.5q45 0 76 10.5t49.5 30t26.5 46t8 58.5q0 30 -7 54.5
t-24 41t-46 25.5t-73 9h-70v75h185v70h-265zM70 300h460v80h-460v-80zM210 50q-35 -9 -52.5 -32t-17.5 -68q0 -23 7.5 -44.5t26 -38t49.5 -27t77 -10.5t77 10.5t49.5 27t26 38t7.5 44.5q0 45 -17.5 68t-52.5 32v5q10 3 20.5 9t19.5 16.5t14.5 25t5.5 34.5q0 63 -35 91.5
t-115 28.5t-115 -28.5t-35 -91.5q0 -20 5.5 -34.5t14.5 -25t19.5 -16.5t20.5 -9v-5zM286 85q-24 0 -40 12t-16 33q0 39 19 49.5t51 10.5t51 -10.5t19 -49.5q0 -21 -16 -33t-40 -12h-28zM336 15q25 0 34.5 -18.5t9.5 -36.5q0 -32 -15.5 -46t-64.5 -14t-64.5 14t-15.5 46
q0 9 2 18.5t7 18t13.5 13.5t21.5 5h72z" />
    <glyph glyph-name="seveneighths" unicode="&#x215e;" 
d="M601 950v-1200h-602v1200h602zM320 430q0 54 10 98t27.5 84t41 78t51.5 80v70h-300v-130h80v60h140q-17 -24 -39 -61t-42.5 -81.5t-34.5 -95t-14 -102.5h80zM70 300h460v80h-460v-80zM210 50q-35 -9 -52.5 -32t-17.5 -68q0 -23 7.5 -44.5t26 -38t49.5 -27t77 -10.5
t77 10.5t49.5 27t26 38t7.5 44.5q0 45 -17.5 68t-52.5 32v5q10 3 20.5 9t19.5 16.5t14.5 25t5.5 34.5q0 63 -35 91.5t-115 28.5t-115 -28.5t-35 -91.5q0 -20 5.5 -34.5t14.5 -25t19.5 -16.5t20.5 -9v-5zM286 85q-24 0 -40 12t-16 33q0 39 19 49.5t51 10.5t51 -10.5t19 -49.5
q0 -21 -16 -33t-40 -12h-28zM336 15q25 0 34.5 -18.5t9.5 -36.5q0 -32 -15.5 -46t-64.5 -14t-64.5 14t-15.5 46q0 9 2 18.5t7 18t13.5 13.5t21.5 5h72z" />
    <glyph glyph-name="partialdiff" unicode="&#x2202;" 
d="M601 950v-1200h-602v1200h602zM275 590q28 0 50.5 -2.5t38.5 -15.5t27 -41t17 -80q-23 32 -58.5 45.5t-84.5 13.5q-56 0 -94.5 -15.5t-62 -47t-33.5 -81t-10 -116.5q0 -68 10.5 -117t34.5 -80.5t64.5 -47t100.5 -15.5q85 0 136.5 17.5t79 58.5t36 108t8.5 166
q0 106 -11.5 174t-41 107t-79.5 54t-128 15h-130v-100h130zM415 400q-2 0 -3 1q-1 14 -1.5 26.5t-2.5 23.5q2 -3 3.5 -5.5t3.5 -5.5v-40zM185 250q0 45 4 75.5t17.5 49.5t39.5 27t69 8q17 0 45 -2t52 -7q1 -10 1 -20t1 -21q-1 -95 -6 -149t-18.5 -81t-36 -33.5t-58.5 -6.5
t-57.5 8t-33 27t-15.5 49.5t-4 75.5z" />
    <glyph glyph-name="emptyset" unicode="&#x2205;" 
d="M601 950v-1200h-602v1200h602zM500 465v35h-90l-37 -55q-16 3 -34 4.5t-39 0.5q-60 -2 -100.5 -16.5t-64.5 -40.5t-34.5 -62t-10.5 -81q0 -48 11.5 -87t40.5 -65l-42 -63v-35h90l38 57q29 -7 72 -7q60 0 100.5 14.5t64.5 40.5t34.5 63t10.5 82q0 48 -11.5 87t-39.5 66z
M214 206q-2 10 -3 21t-1 23q0 22 3.5 40.5t13.5 32t27.5 20.5t45.5 7h10zM386 294q2 -10 3 -21t1 -23q0 -23 -3.5 -41t-13.5 -31.5t-27.5 -20.5t-45.5 -7h-10z" />
    <glyph glyph-name="product" unicode="&#x220f;" 
d="M601 950v-1200h-602v1200h602zM430 580v-580h120v680h-500v-680h120v580h260z" />
    <glyph glyph-name="summation" unicode="&#x2211;" 
d="M601 950v-1200h-602v1200h602zM540 580v100h-470v-100l190 -235l-190 -245v-100h470v100h-340l190 245l-190 235h340z" />
    <glyph glyph-name="minus" unicode="&#x2212;" 
d="M601 950v-1200h-602v1200h602zM120 290h360v100h-360v-100z" />
    <glyph glyph-name="radical" unicode="&#x221a;" 
d="M601 950v-1200h-602v1200h602zM470 680l-140 -430l-25 -115h-10l-25 115l-45 140h-205v-100h118l97 -295h130l215 650v35h-110z" />
    <glyph glyph-name="infinity" unicode="&#x221e;" 
d="M601 950v-1200h-602v1200h602zM450 415q-23 0 -43.5 -8.5t-39 -22t-35.5 -32t-32 -37.5q-15 19 -32 37.5t-35.5 32t-39 22t-43.5 8.5t-46 -7.5t-41.5 -26t-30.5 -49.5t-12 -77t12 -77t30.5 -49.5t41.5 -26t46 -7.5t43.5 8.5t39 22t35.5 31.5t32 38q15 -20 32 -38
t35.5 -31.5t39 -22t43.5 -8.5q22 0 45.5 7.5t42 25.5t30.5 49t12 77t-12 77t-30.5 50t-42 26.5t-45.5 7.5zM150 175q-32 0 -46 15.5t-14 64.5t14 64.5t46 15.5q29 0 54 -23.5t51 -56.5q-26 -33 -51 -56.5t-54 -23.5zM450 175q-29 0 -54 23.5t-51 56.5q26 33 51 56.5t54 23.5
q31 0 45.5 -16t14.5 -65t-14 -64t-46 -15z" />
    <glyph glyph-name="integral" unicode="&#x222b;" 
d="M601 950v-1200h-602v1200h602zM382 514q4 37 27 56t52 19q24 0 47 -3.5t43 -8.5l24 95q-12 4 -28.5 7t-34 5.5t-35 4t-30.5 1.5q-32 0 -63 -10t-56.5 -31t-43 -53t-21.5 -75l-57 -535q-4 -37 -26.5 -56t-51.5 -19q-23 0 -41.5 3.5t-37.5 8.5l-24 -95q24 -8 56.5 -13
t59.5 -5q32 0 63.5 10t57 31t42.5 53t22 75z" />
    <glyph glyph-name="approxequal" unicode="&#x2248;" 
d="M601 950v-1200h-602v1200h602zM436 488q-21 -29 -36 -37.5t-29 -8.5q-13 0 -28.5 6.5t-33 15t-36.5 15t-37 6.5q-26 0 -59 -15t-62 -63l44 -53q15 16 26.5 24.5t20.5 12.5t17 5t16 1q14 0 31.5 -6.5t35.5 -14.5t36 -14.5t34 -6.5q41 0 66 23t43 53zM436 328
q-21 -29 -36 -37.5t-29 -8.5q-13 0 -28.5 6.5t-33 15t-36.5 15t-37 6.5q-26 0 -59 -15t-62 -63l44 -53q15 16 26.5 24.5t20.5 12.5t17 5t16 1q14 0 31.5 -6.5t35.5 -14.5t36 -14.5t34 -6.5q41 0 66 23t43 53z" />
    <glyph glyph-name="notequal" unicode="&#x2260;" 
d="M601 950v-1200h-602v1200h602zM480 370v100h-84l54 175v35h-110l-65 -210h-155v-100h124l-19 -60h-105v-100h74l-54 -175v-35h110l65 210h165v100h-134l19 60h115z" />
    <glyph glyph-name="lessequal" unicode="&#x2264;" 
d="M601 950v-1200h-602v1200h602zM230 420l250 80v100l-360 -130v-100l360 -130v100zM120 170v-100h360v100h-360z" />
    <glyph glyph-name="greaterequal" unicode="&#x2265;" 
d="M601 950v-1200h-602v1200h602zM120 240l360 130v100l-360 130v-100l250 -80l-250 -80v-100zM120 70h360v100h-360v-100z" />
    <glyph glyph-name="lozenge" unicode="&#x25ca;" 
d="M601 950v-1200h-602v1200h602zM293 0h14l198 344l-198 336h-14l-198 -336zM228 344l72 131l71 -131l-71 -139z" />
    <glyph glyph-name="f_j.dlig" 
d="M601 950v-1200h-602v1200h602zM90 500h-70v-100h70v-424q0 -75 -90 -75v-101q47 0 86 10t66.5 31t42.5 53t15 75v431h180v-424q0 -37 -19 -56t-71 -19v-101q103 0 156.5 41t53.5 128v531h-300v14q0 18 5.5 32t20.5 23.5t42.5 14.5t72.5 5q19 0 41 -1t43 -2.5t38.5 -3.5
t27.5 -5l14 95q-12 4 -35 7t-50 5.5t-54.5 4t-48.5 1.5q-125 0 -181 -41t-56 -128v-21z" />
    <glyph glyph-name="f_m.dlig" horiz-adv-x="1200" 
d="M1201 950v-1200h-1202v1200h1202zM1110 350q0 45 -11 75.5t-32.5 49.5t-53.5 27t-73 8q-53 0 -98.5 -16t-68.5 -54h-10q-13 19 -26.5 32.5t-30 21.5t-37.5 12t-49 4q-53 0 -90 -16t-60 -54h-10l-20 60h-250v14q0 75 90 75v101q-98 0 -154 -41t-56 -128v-21h-70v-100h70
v-424q0 -37 -19 -56t-71 -19v-101q103 0 156.5 41t53.5 128v431h160v-400h120v400q24 5 50.5 7.5t44.5 2.5q56 0 80.5 -15.5t24.5 -64.5v-330h120v350q0 30 -4 50q24 5 52.5 7.5t46.5 2.5q56 0 80.5 -15.5t24.5 -64.5v-250q0 -49 27.5 -69.5t72.5 -20.5q21 0 42.5 3t37.5 7
v100q-15 -5 -30 -5q-23 0 -26.5 10.5t-3.5 29.5v215z" />
    <glyph glyph-name="f_t.dlig" 
d="M601 950v-1200h-602v1200h602zM580 400v100h-70v120h-120v-120h-180v14q0 75 90 75v101q-98 0 -154 -41t-56 -128v-21h-70v-100h70v-424q0 -37 -19 -56t-71 -19v-101q103 0 156.5 41t53.5 128v431h180v-241q0 -86 51.5 -127.5t138.5 -41.5v101q-38 0 -54 19t-16 56v234
h70z" />
    <glyph glyph-name="i_f.dlig" 
d="M601 950v-1200h-602v1200h602zM320 400h70v-424q0 -37 -19 -56t-71 -19v-101q103 0 156.5 41t53.5 128v431h70v100h-70v14q0 75 90 75v101q-98 0 -154 -41t-56 -128v-21h-70v-100zM90 560h120v120h-120v-120zM20 500v-100h70v-320q0 -49 27.5 -69.5t72.5 -20.5
q21 0 42.5 3t37.5 7v100q-15 -5 -30 -5q-23 0 -26.5 10.5t-3.5 29.5v365h-190z" />
    <glyph glyph-name="i_i.dlig" 
d="M601 950v-1200h-602v1200h602zM90 560h120v120h-120v-120zM390 560h120v120h-120v-120zM270 100q-15 -5 -30 -5q-23 0 -26.5 10.5t-3.5 29.5v365h-190v-100h70v-320q0 -49 27.5 -69.5t72.5 -20.5q21 0 42.5 3t37.5 7v100zM570 100q-15 -5 -30 -5q-23 0 -26.5 10.5
t-3.5 29.5v365h-190v-100h70v-320q0 -49 27.5 -69.5t72.5 -20.5q21 0 42.5 3t37.5 7v100z" />
    <glyph glyph-name="i_j.dlig" 
d="M601 950v-1200h-602v1200h602zM90 560h120v120h-120v-120zM390 680v-120h120v120h-120zM270 100q-15 -5 -30 -5q-23 0 -26.5 10.5t-3.5 29.5v365h-190v-100h70v-320q0 -49 27.5 -69.5t72.5 -20.5q21 0 42.5 3t37.5 7v100zM320 400h70v-424q0 -18 -5 -32t-17.5 -23.5
t-34 -14.5t-54.5 -5q-31 0 -60.5 6t-49.5 11l-14 -95q12 -4 30.5 -8t38.5 -7.5t41 -5.5t38 -2q103 0 155 41t52 128v531h-190v-100z" />
    <glyph glyph-name="i_l.dlig" 
d="M601 950v-1200h-602v1200h602zM90 560h120v120h-120v-120zM570 100q-15 -5 -30 -5q-23 0 -26.5 10.5t-3.5 29.5v545h-190v-100h70v-500q0 -49 27.5 -69.5t72.5 -20.5q21 0 42.5 3t37.5 7v100zM270 100q-15 -5 -30 -5q-23 0 -26.5 10.5t-3.5 29.5v365h-190v-100h70v-320
q0 -49 27.5 -69.5t72.5 -20.5q21 0 42.5 3t37.5 7v100z" />
    <glyph glyph-name="i_m.dlig" horiz-adv-x="1200" 
d="M1201 950v-1200h-1202v1200h1202zM70 560h120v120h-120v-120zM1170 100q-15 -5 -30 -5q-23 0 -26.5 10.5t-3.5 29.5v215q0 45 -11 75.5t-32.5 49.5t-53.5 27t-73 8q-53 0 -98.5 -16t-68.5 -54h-10q-13 19 -26.5 32.5t-30 21.5t-37.5 12t-49 4q-53 0 -90 -16t-60 -54h-10
l-20 60h-150v-100h60v-400h120v400q24 5 50.5 7.5t44.5 2.5q56 0 80.5 -15.5t24.5 -64.5v-330h120v350q0 30 -4 50q24 5 52.5 7.5t46.5 2.5q56 0 80.5 -15.5t24.5 -64.5v-250q0 -49 27.5 -69.5t72.5 -20.5q21 0 42.5 3t37.5 7v100zM70 0h120v500h-120v-500z" />
    <glyph glyph-name="i_t.dlig" 
d="M601 950v-1200h-602v1200h602zM90 560h120v120h-120v-120zM320 400h70v-241q0 -86 51.5 -127.5t138.5 -41.5v101q-38 0 -54 19t-16 56v234h70v100h-70v120h-120v-120h-70v-100zM270 100q-15 -5 -30 -5q-23 0 -26.5 10.5t-3.5 29.5v365h-190v-100h70v-320
q0 -49 27.5 -69.5t72.5 -20.5q21 0 42.5 3t37.5 7v100z" />
    <glyph glyph-name="j_f.dlig" 
d="M601 950v-1200h-602v1200h602zM390 500h-70v-100h70v-424q0 -37 -19 -56t-71 -19v-101q103 0 156.5 41t53.5 128v431h70v100h-70v14q0 75 90 75v101q-98 0 -154 -41t-56 -128v-21zM90 680v-120h120v120h-120zM20 400h70v-424q0 -37 -19 -56t-71 -19v-101q103 0 156.5 41
t53.5 128v531h-190v-100z" />
    <glyph glyph-name="j_i.dlig" 
d="M601 950v-1200h-602v1200h602zM90 680v-120h120v120h-120zM390 560h120v120h-120v-120zM20 400h70v-424q0 -37 -19 -56t-71 -19v-101q103 0 156.5 41t53.5 128v531h-190v-100zM570 100q-15 -5 -30 -5q-23 0 -26.5 10.5t-3.5 29.5v365h-190v-100h70v-320q0 -49 27.5 -69.5
t72.5 -20.5q21 0 42.5 3t37.5 7v100z" />
    <glyph glyph-name="j_j.dlig" 
d="M601 950v-1200h-602v1200h602zM90 680v-120h120v120h-120zM390 680v-120h120v120h-120zM20 400h70v-424q0 -37 -19 -56t-71 -19v-101q103 0 156.5 41t53.5 128v531h-190v-100zM320 400h70v-424q0 -37 -19 -56t-71 -19v-101q103 0 156.5 41t53.5 128v531h-190v-100z" />
    <glyph glyph-name="j_l.dlig" 
d="M601 950v-1200h-602v1200h602zM90 680v-120h120v120h-120zM570 100q-15 -5 -30 -5q-23 0 -26.5 10.5t-3.5 29.5v545h-190v-100h70v-500q0 -49 27.5 -69.5t72.5 -20.5q21 0 42.5 3t37.5 7v100zM20 400h70v-424q0 -37 -19 -56t-71 -19v-101q103 0 156.5 41t53.5 128v531
h-190v-100z" />
    <glyph glyph-name="j_m.dlig" horiz-adv-x="1200" 
d="M1201 950v-1200h-1202v1200h1202zM70 680v-120h120v120h-120zM1170 100q-15 -5 -30 -5q-23 0 -26.5 10.5t-3.5 29.5v215q0 45 -11 75.5t-32.5 49.5t-53.5 27t-73 8q-53 0 -98.5 -16t-68.5 -54h-10q-13 19 -26.5 32.5t-30 21.5t-37.5 12t-49 4q-53 0 -90 -16t-60 -54h-10
l-20 60h-150v-100h60v-400h120v400q24 5 50.5 7.5t44.5 2.5q56 0 80.5 -15.5t24.5 -64.5v-330h120v350q0 30 -4 50q24 5 52.5 7.5t46.5 2.5q56 0 80.5 -15.5t24.5 -64.5v-250q0 -49 27.5 -69.5t72.5 -20.5q21 0 42.5 3t37.5 7v100zM0 400h70v-424q0 -37 -20 -56t-50 -19
v-101q94 0 142 41t48 128v531h-190v-100z" />
    <glyph glyph-name="j_t.dlig" 
d="M601 950v-1200h-602v1200h602zM90 680v-120h120v120h-120zM320 400h70v-241q0 -86 51.5 -127.5t138.5 -41.5v101q-38 0 -54 19t-16 56v234h70v100h-70v120h-120v-120h-70v-100zM20 400h70v-424q0 -37 -19 -56t-71 -19v-101q103 0 156.5 41t53.5 128v531h-190v-100z" />
    <glyph glyph-name="l_f.dlig" 
d="M601 950v-1200h-602v1200h602zM320 400h70v-424q0 -37 -19 -56t-71 -19v-101q103 0 156.5 41t53.5 128v431h70v100h-70v14q0 75 90 75v101q-98 0 -154 -41t-56 -128v-21h-70v-100zM20 680v-100h70v-500q0 -49 27.5 -69.5t72.5 -20.5q21 0 42.5 3t37.5 7v100
q-15 -5 -30 -5q-23 0 -26.5 10.5t-3.5 29.5v545h-190z" />
    <glyph glyph-name="l_i.dlig" 
d="M601 950v-1200h-602v1200h602zM270 100q-15 -5 -30 -5q-23 0 -26.5 10.5t-3.5 29.5v545h-190v-100h70v-500q0 -49 27.5 -69.5t72.5 -20.5q21 0 42.5 3t37.5 7v100zM390 560h120v120h-120v-120zM570 100q-15 -5 -30 -5q-23 0 -26.5 10.5t-3.5 29.5v365h-190v-100h70v-320
q0 -49 27.5 -69.5t72.5 -20.5q21 0 42.5 3t37.5 7v100z" />
    <glyph glyph-name="l_j.dlig" 
d="M601 950v-1200h-602v1200h602zM20 680v-100h70v-500q0 -49 27.5 -69.5t72.5 -20.5q21 0 42.5 3t37.5 7v100q-15 -5 -30 -5q-23 0 -26.5 10.5t-3.5 29.5v545h-190zM390 680v-120h120v120h-120zM320 400h70v-424q0 -18 -5 -32t-17.5 -23.5t-34 -14.5t-54.5 -5
q-31 0 -60.5 6t-49.5 11l-14 -95q12 -4 30.5 -8t38.5 -7.5t41 -5.5t38 -2q103 0 155 41t52 128v531h-190v-100z" />
    <glyph glyph-name="l_l.dlig" 
d="M601 950v-1200h-602v1200h602zM270 100q-15 -5 -30 -5q-23 0 -26.5 10.5t-3.5 29.5v545h-190v-100h70v-500q0 -49 27.5 -69.5t72.5 -20.5q21 0 42.5 3t37.5 7v100zM570 100q-15 -5 -30 -5q-23 0 -26.5 10.5t-3.5 29.5v545h-190v-100h70v-500q0 -49 27.5 -69.5t72.5 -20.5
q21 0 42.5 3t37.5 7v100z" />
    <glyph glyph-name="l_m.dlig" horiz-adv-x="1200" 
d="M1201 950v-1200h-1202v1200h1202zM70 0h120v680h-120v-680zM1170 100q-15 -5 -30 -5q-23 0 -26.5 10.5t-3.5 29.5v215q0 45 -11 75.5t-32.5 49.5t-53.5 27t-73 8q-53 0 -98.5 -16t-68.5 -54h-10q-13 19 -26.5 32.5t-30 21.5t-37.5 12t-49 4q-53 0 -90 -16t-60 -54h-10
l-20 60h-150v-100h60v-400h120v400q24 5 50.5 7.5t44.5 2.5q56 0 80.5 -15.5t24.5 -64.5v-330h120v350q0 30 -4 50q24 5 52.5 7.5t46.5 2.5q56 0 80.5 -15.5t24.5 -64.5v-250q0 -49 27.5 -69.5t72.5 -20.5q21 0 42.5 3t37.5 7v100z" />
    <glyph glyph-name="l_t.dlig" 
d="M601 950v-1200h-602v1200h602zM20 680v-100h70v-500q0 -49 27.5 -69.5t72.5 -20.5q21 0 42.5 3t37.5 7v100q-15 -5 -30 -5q-23 0 -26.5 10.5t-3.5 29.5v545h-190zM320 400h70v-241q0 -86 51.5 -127.5t138.5 -41.5v101q-38 0 -54 19t-16 56v234h70v100h-70v120h-120v-120
h-70v-100z" />
    <glyph glyph-name="m_f.dlig" horiz-adv-x="1200" 
d="M1201 950v-1200h-1202v1200h1202zM920 400h70v-424q0 -37 -19 -56t-71 -19v-101q103 0 156.5 41t53.5 128v431h70v100h-70v14q0 75 90 75v101q-98 0 -154 -41t-56 -128v-21h-70v-100zM900 100q-15 -5 -30 -5q-23 0 -26.5 10.5t-3.5 29.5v215q0 45 -11 75.5t-32.5 49.5
t-53.5 27t-73 8q-53 0 -98.5 -16t-68.5 -54h-10q-13 19 -26.5 32.5t-30 21.5t-37.5 12t-49 4q-53 0 -90 -16t-60 -54h-10l-20 60h-150v-100h60v-400h120v400q24 5 50.5 7.5t44.5 2.5q56 0 80.5 -15.5t24.5 -64.5v-330h120v350q0 30 -4 50q24 5 52.5 7.5t46.5 2.5
q56 0 80.5 -15.5t24.5 -64.5v-250q0 -49 27.5 -69.5t72.5 -20.5q21 0 42.5 3t37.5 7v100z" />
    <glyph glyph-name="m_i.dlig" horiz-adv-x="1200" 
d="M1201 950v-1200h-1202v1200h1202zM1010 560h120v120h-120v-120zM900 100q-15 -5 -30 -5q-23 0 -26.5 10.5t-3.5 29.5v215q0 45 -11 75.5t-32.5 49.5t-53.5 27t-73 8q-53 0 -98.5 -16t-68.5 -54h-10q-13 19 -26.5 32.5t-30 21.5t-37.5 12t-49 4q-53 0 -90 -16t-60 -54h-10
l-20 60h-150v-100h60v-400h120v400q24 5 50.5 7.5t44.5 2.5q56 0 80.5 -15.5t24.5 -64.5v-330h120v350q0 30 -4 50q24 5 52.5 7.5t46.5 2.5q56 0 80.5 -15.5t24.5 -64.5v-250q0 -49 27.5 -69.5t72.5 -20.5q21 0 42.5 3t37.5 7v100zM1010 0h120v500h-120v-500z" />
    <glyph glyph-name="m_j.dlig" horiz-adv-x="1200" 
d="M1201 950v-1200h-1202v1200h1202zM1010 680v-120h120v120h-120zM900 100q-15 -5 -30 -5q-23 0 -26.5 10.5t-3.5 29.5v215q0 45 -11 75.5t-32.5 49.5t-53.5 27t-73 8q-53 0 -98.5 -16t-68.5 -54h-10q-13 19 -26.5 32.5t-30 21.5t-37.5 12t-49 4q-53 0 -90 -16t-60 -54h-10
l-20 60h-150v-100h60v-400h120v400q24 5 50.5 7.5t44.5 2.5q56 0 80.5 -15.5t24.5 -64.5v-330h120v350q0 30 -4 50q24 5 52.5 7.5t46.5 2.5q56 0 80.5 -15.5t24.5 -64.5v-250q0 -49 27.5 -69.5t72.5 -20.5q21 0 42.5 3t37.5 7v100zM940 400h70v-424q0 -18 -5 -32
t-17.5 -23.5t-34 -14.5t-54.5 -5q-31 0 -60.5 6t-49.5 11l-14 -95q12 -4 30.5 -8t38.5 -7.5t41 -5.5t38 -2q103 0 155 41t52 128v531h-190v-100z" />
    <glyph glyph-name="m_l.dlig" horiz-adv-x="1200" 
d="M1201 950v-1200h-1202v1200h1202zM1010 0h120v680h-120v-680zM900 100q-15 -5 -30 -5q-23 0 -26.5 10.5t-3.5 29.5v215q0 45 -11 75.5t-32.5 49.5t-53.5 27t-73 8q-53 0 -98.5 -16t-68.5 -54h-10q-13 19 -26.5 32.5t-30 21.5t-37.5 12t-49 4q-53 0 -90 -16t-60 -54h-10
l-20 60h-150v-100h60v-400h120v400q24 5 50.5 7.5t44.5 2.5q56 0 80.5 -15.5t24.5 -64.5v-330h120v350q0 30 -4 50q24 5 52.5 7.5t46.5 2.5q56 0 80.5 -15.5t24.5 -64.5v-250q0 -49 27.5 -69.5t72.5 -20.5q21 0 42.5 3t37.5 7v100z" />
    <glyph glyph-name="m_t.dlig" horiz-adv-x="1200" 
d="M1201 950v-1200h-1202v1200h1202zM920 400h70v-241q0 -86 51.5 -127.5t138.5 -41.5v101q-38 0 -54 19t-16 56v234h70v100h-70v120h-120v-120h-70v-100zM900 100q-15 -5 -30 -5q-23 0 -26.5 10.5t-3.5 29.5v215q0 45 -11 75.5t-32.5 49.5t-53.5 27t-73 8q-53 0 -98.5 -16
t-68.5 -54h-10q-13 19 -26.5 32.5t-30 21.5t-37.5 12t-49 4q-53 0 -90 -16t-60 -54h-10l-20 60h-150v-100h60v-400h120v400q24 5 50.5 7.5t44.5 2.5q56 0 80.5 -15.5t24.5 -64.5v-330h120v350q0 30 -4 50q24 5 52.5 7.5t46.5 2.5q56 0 80.5 -15.5t24.5 -64.5v-250
q0 -49 27.5 -69.5t72.5 -20.5q21 0 42.5 3t37.5 7v100z" />
    <glyph glyph-name="t_f.dlig" 
d="M601 950v-1200h-602v1200h602zM600 690q-98 0 -154 -41t-56 -128v-21h-180v120h-120v-120h-70v-100h70v-241q0 -86 51.5 -127.5t138.5 -41.5v101q-38 0 -54 19t-16 56v234h180v-424q0 -37 -19 -56t-71 -19v-101q103 0 156.5 41t53.5 128v431h70v100h-70v14q0 75 90 75
v101z" />
    <glyph glyph-name="t_i.dlig" 
d="M601 950v-1200h-602v1200h602zM510 680h-120v-120h120v120zM510 500h-300v120h-120v-120h-70v-100h70v-241q0 -86 51.5 -127.5t138.5 -41.5v101q-38 0 -54 19t-16 56v234h180v-320q0 -49 27.5 -69.5t72.5 -20.5q21 0 42.5 3t37.5 7v100q-15 -5 -30 -5q-23 0 -26.5 10.5
t-3.5 29.5v365z" />
    <glyph glyph-name="t_j.dlig" 
d="M601 950v-1200h-602v1200h602zM510 680h-120v-120h120v120zM90 159q0 -86 51.5 -127.5t138.5 -41.5v101q-38 0 -54 19t-16 56v234h110v100h-110v120h-120v-120h-70v-100h70v-241zM510 500h-90v-100h-30v-424q0 -18 -5 -32t-17.5 -23.5t-34 -14.5t-54.5 -5q-31 0 -60.5 6
t-49.5 11l-14 -95q12 -4 30.5 -8t38.5 -7.5t41 -5.5t38 -2q103 0 155 41t52 128v531z" />
    <glyph glyph-name="t_l.dlig" 
d="M601 950v-1200h-602v1200h602zM570 100q-15 -5 -30 -5q-23 0 -26.5 10.5t-3.5 29.5v545h-190v-100h70v-500q0 -49 27.5 -69.5t72.5 -20.5q21 0 42.5 3t37.5 7v100zM20 400h70v-241q0 -86 51.5 -127.5t138.5 -41.5v101q-38 0 -54 19t-16 56v234h70v100h-70v120h-120v-120
h-70v-100z" />
    <glyph glyph-name="t_m.dlig" horiz-adv-x="1200" 
d="M1201 950v-1200h-1202v1200h1202zM1110 350q0 45 -11 75.5t-32.5 49.5t-53.5 27t-73 8q-53 0 -98.5 -16t-68.5 -54h-10q-13 19 -26.5 32.5t-30 21.5t-37.5 12t-49 4q-53 0 -90 -16t-60 -54h-10l-20 60h-250v120h-120v-120h-70v-100h70v-241q0 -86 51.5 -127.5
t138.5 -41.5v101q-38 0 -54 19t-16 56v234h160v-400h120v400q24 5 50.5 7.5t44.5 2.5q56 0 80.5 -15.5t24.5 -64.5v-330h120v350q0 30 -4 50q24 5 52.5 7.5t46.5 2.5q56 0 80.5 -15.5t24.5 -64.5v-250q0 -49 27.5 -69.5t72.5 -20.5q21 0 42.5 3t37.5 7v100q-15 -5 -30 -5
q-23 0 -26.5 10.5t-3.5 29.5v215z" />
    <glyph glyph-name="t_t.dlig" 
d="M601 950v-1200h-602v1200h602zM280 91q-38 0 -54 19t-16 56v234h110v100h-110v120h-120v-120h-70v-100h70v-241q0 -86 51.5 -127.5t138.5 -41.5v101zM580 500h-70v120h-120v-120h-10v-100h10v-241q0 -86 51.5 -127.5t138.5 -41.5v101q-38 0 -54 19t-16 56v234h70v100z
" />
    <glyph glyph-name="zero.pnum" 
d="M601 950v-1200h-602v1200h602zM300 -10q85 0 136.5 17.5t79 58.5t36 108t8.5 166q0 98 -8.5 165t-36 108t-79 59t-136.5 18t-136.5 -18t-79 -59t-36 -108t-8.5 -165q0 -99 8.5 -166t36 -108t79 -58.5t136.5 -17.5zM300 590q45 0 72.5 -7t42.5 -32.5t20 -75.5t5 -135
q0 -86 -5 -135.5t-20 -75t-42.5 -32.5t-72.5 -7t-72.5 7t-42.5 32.5t-20 75t-5 135.5q0 85 5 135t20 75.5t42.5 32.5t72.5 7zM240 280h120v120h-120v-120z" />
    <glyph glyph-name="one.pnum" 
d="M601 950v-1200h-602v1200h602zM280 685l-190 -45v-100l150 30v-470h-150v-100h420v100h-150v585h-80z" />
    <glyph glyph-name="two.pnum" 
d="M601 950v-1200h-602v1200h602zM160 150q0 30 17 50t44.5 35t63 26t73 23.5t73 28.5t63 39.5t44.5 56.5t17 81q0 42 -12 78.5t-41.5 63.5t-78.5 42.5t-123 15.5q-81 0 -131 -15t-77.5 -45.5t-37 -78t-9.5 -111.5h120q0 48 5 77t19.5 45.5t41 22t69.5 5.5q41 0 67.5 -5
t41.5 -16.5t20.5 -30.5t5.5 -48q0 -27 -17 -46t-44.5 -33t-63 -25.5t-73 -24.5t-73 -29t-63 -39.5t-44.5 -55.5t-17 -77v-160h520v200h-120v-100h-280v50z" />
    <glyph glyph-name="three.pnum" 
d="M601 950v-1200h-602v1200h602zM220 300h130q29 0 47 -10t27.5 -26t12.5 -35.5t3 -38.5q0 -30 -5 -49t-20 -30.5t-42.5 -16t-72.5 -4.5t-72.5 5.5t-42.5 21.5t-20 45.5t-5 77.5h-120q0 -65 8.5 -112.5t36 -78t79 -45t136.5 -14.5t136.5 16t79 42.5t36 62t8.5 74.5
q0 72 -29 110.5t-95 53.5v10q20 5 38.5 15.5t33 27.5t23.5 41t9 57q0 99 -55.5 144.5t-184.5 45.5q-81 0 -130.5 -17.5t-76 -50.5t-35 -79t-8.5 -103h120q0 48 7 77t22.5 45.5t40 22t60.5 5.5q32 0 53 -5t34 -16.5t18 -30.5t5 -48q0 -19 -3 -35.5t-12.5 -28.5t-27.5 -19
t-47 -7h-100v-100z" />
    <glyph glyph-name="four.pnum" 
d="M601 950v-1200h-602v1200h602zM571 245h-71v435h-120l-330 -435v-100h330v-145h120v145h71v100zM177 245l203 263v-263h-203z" />
    <glyph glyph-name="five.pnum" 
d="M601 950v-1200h-602v1200h602zM80 680v-345h220q41 0 67.5 -4.5t41.5 -17.5t20.5 -36.5t5.5 -61.5t-5.5 -62.5t-20.5 -38.5t-41.5 -19t-67.5 -5q-43 0 -69.5 5.5t-41 22t-19.5 45.5t-5 77h-120q0 -65 9.5 -112t37 -77.5t77.5 -45.5t131 -15q74 0 123 16t78.5 45t41.5 71
t12 93t-10.5 93t-37 71t-72 45t-115.5 16h-120v140h310v100h-430z" />
    <glyph glyph-name="six.pnum" 
d="M601 950v-1200h-602v1200h602zM161 410q3 67 12.5 103.5t26.5 53.5t41.5 20t58.5 3q43 0 69.5 -6t41 -21t19.5 -40t5 -63h120q0 55 -8.5 98t-35.5 72t-77.5 44.5t-133.5 15.5q-78 0 -128 -15t-79.5 -54t-41 -107t-11.5 -174q0 -99 8.5 -166t36 -108t79 -58.5t136.5 -17.5
q72 0 121.5 15.5t80.5 44t44.5 68t13.5 87.5q0 55 -14 94t-39.5 63.5t-61.5 36t-80 11.5h-204zM315 311q34 0 57.5 -5.5t38.5 -17.5t22 -32t7 -51q0 -35 -7 -57t-23.5 -35t-43.5 -18t-66 -5q-43 0 -70 6t-42.5 28.5t-21 66.5t-6.5 120h155z" />
    <glyph glyph-name="seven.pnum" 
d="M601 950v-1200h-602v1200h602zM325 0q0 90 20 166.5t52.5 146t75 134.5t87.5 133v100h-480v-200h120v100h240q-30 -43 -70.5 -106.5t-77 -139.5t-62 -161.5t-25.5 -172.5h120z" />
    <glyph glyph-name="eight.pnum" 
d="M601 950v-1200h-602v1200h602zM144 349q-51 -15 -77.5 -53.5t-26.5 -110.5q0 -39 8.5 -74.5t36 -62t79 -42.5t136.5 -16t136.5 16t79 42.5t36 62t8.5 74.5q0 72 -26.5 110.5t-77.5 53.5v10q16 5 31 15.5t27 27.5t19 41t7 57q0 99 -55.5 144.5t-184.5 45.5t-184.5 -45.5
t-55.5 -144.5q0 -33 7 -57t19 -41t27 -27.5t31 -15.5v-10zM280 400q-29 0 -47 7t-27.5 19t-12.5 28.5t-3 35.5q0 29 5 48t18 30.5t34 16.5t53 5t53 -5t34 -16.5t18 -30.5t5 -48q0 -19 -3 -35.5t-12.5 -28.5t-27.5 -19t-47 -7h-40zM350 300q29 0 47 -10t27.5 -26t12.5 -35.5
t3 -38.5q0 -30 -5 -49t-20 -30.5t-42.5 -16t-72.5 -4.5t-72.5 4.5t-42.5 16t-20 30.5t-5 49q0 19 3 38.5t12.5 35.5t27.5 26t47 10h100z" />
    <glyph glyph-name="nine.pnum" 
d="M601 950v-1200h-602v1200h602zM439 270q-3 -67 -12.5 -103.5t-26.5 -53.5t-41.5 -20t-58.5 -3q-43 0 -69.5 6t-41 21t-19.5 40t-5 63h-120q0 -55 8.5 -98t35.5 -72t77.5 -44.5t133.5 -15.5q78 0 128 15t79.5 54t41 107t11.5 174q0 99 -8.5 166t-36 108t-79 58.5
t-136.5 17.5q-72 0 -121.5 -15.5t-80.5 -44t-44.5 -68t-13.5 -87.5q0 -55 14 -94t39.5 -63.5t61.5 -36t80 -11.5h204zM285 369q-34 0 -57.5 5.5t-38.5 17.5t-22 32t-7 51q0 34 7 56.5t23.5 35.5t43.5 18t66 5q43 0 70 -6t42.5 -28.5t21 -66.5t6.5 -120h-155z" />
    <glyph glyph-name="zero.pnum.oldstyle" 
d="M601 950v-1200h-602v1200h602zM300 -10q75 0 125 15.5t80 47t42.5 80.5t12.5 117q0 67 -12.5 116.5t-42.5 81t-80 47t-125 15.5t-125 -15.5t-80 -47t-42.5 -81t-12.5 -116.5q0 -68 12.5 -117t42.5 -80.5t80 -47t125 -15.5zM300 90q-43 0 -70.5 8t-43 27t-21 49.5
t-5.5 75.5t5.5 75.5t21 49.5t43 27t70.5 8t70.5 -8t43 -27t21 -49.5t5.5 -75.5t-5.5 -75.5t-21 -49.5t-43 -27t-70.5 -8zM240 190h120v120h-120v-120z" />
    <glyph glyph-name="one.pnum.oldstyle" 
d="M601 950v-1200h-602v1200h602zM280 505l-190 -45v-100l150 30v-290h-150v-100h420v100h-150v405h-80z" />
    <glyph glyph-name="two.pnum.oldstyle" 
d="M601 950v-1200h-602v1200h602zM185 320q0 25 4.5 42.5t17.5 28t35 15t58 4.5q34 0 56 -4.5t35 -14t18.5 -25t5.5 -36.5q0 -24 -26.5 -34t-65.5 -16.5t-85.5 -14t-85.5 -25t-65.5 -50.5t-26.5 -90v-100h480v100h-360q0 26 15.5 41.5t40 24.5t56.5 13.5t65.5 10t65.5 13.5
t56.5 23t40 40t15.5 64q0 34 -12 66.5t-39.5 58t-72.5 40.5t-111 15q-74 0 -120 -15.5t-71.5 -41.5t-34.5 -60.5t-9 -72.5h120z" />
    <glyph glyph-name="three.pnum.oldstyle" 
d="M601 950v-1200h-602v1200h602zM220 110h130q29 0 47 -10t27.5 -26t12.5 -35.5t3 -38.5q0 -30 -5 -49t-20 -30.5t-42.5 -16t-72.5 -4.5t-72.5 5.5t-42.5 21.5t-20 45.5t-5 77.5h-120q0 -65 8.5 -112.5t36 -78t79 -45t136.5 -14.5t136.5 16t79 42.5t36 62t8.5 74.5
q0 72 -29 110.5t-95 53.5v10q20 5 38.5 15.5t33 28.5t23.5 44.5t9 62.5q0 99 -55.5 144.5t-184.5 45.5q-81 0 -130.5 -17.5t-76 -50.5t-35 -79t-8.5 -103h120q0 48 7 77t22.5 45.5t40 22t60.5 5.5q32 0 53 -5t34 -16.5t18 -30.5t5 -48q0 -23 -3 -41t-12.5 -31.5t-27.5 -20.5
t-47 -7h-100v-100z" />
    <glyph glyph-name="four.pnum.oldstyle" 
d="M601 950v-1200h-602v1200h602zM571 100h-71v400h-120l-330 -400v-100h330v-190h120v190h71v100zM188 100l192 232v-232h-192z" />
    <glyph glyph-name="five.pnum.oldstyle" 
d="M601 950v-1200h-602v1200h602zM80 500v-355h220q41 0 67.5 -4.5t41.5 -17.5t20.5 -36.5t5.5 -61.5t-5.5 -62.5t-20.5 -38.5t-41.5 -19t-67.5 -5q-43 0 -69.5 5.5t-41 22t-19.5 45.5t-5 77h-120q0 -65 9.5 -112t37 -77.5t77.5 -45.5t131 -15q74 0 123 16t78.5 45t41.5 71
t12 93t-10.5 93t-37 71t-72 45t-115.5 16h-120v150h310v100h-430z" />
    <glyph glyph-name="six.pnum.oldstyle" 
d="M601 950v-1200h-602v1200h602zM161 410q3 67 12.5 103.5t26.5 53.5t41.5 20t58.5 3q43 0 69.5 -6t41 -21t19.5 -40t5 -63h120q0 55 -8.5 98t-35.5 72t-77.5 44.5t-133.5 15.5q-78 0 -128 -15t-79.5 -54t-41 -107t-11.5 -174q0 -99 8.5 -166t36 -108t79 -58.5t136.5 -17.5
q72 0 121.5 15.5t80.5 44t44.5 68t13.5 87.5q0 55 -14 94t-39.5 63.5t-61.5 36t-80 11.5h-204zM315 311q34 0 57.5 -5.5t38.5 -17.5t22 -32t7 -51q0 -35 -7 -57t-23.5 -35t-43.5 -18t-66 -5q-43 0 -70 6t-42.5 28.5t-21 66.5t-6.5 120h155z" />
    <glyph glyph-name="seven.pnum.oldstyle" 
d="M601 950v-1200h-602v1200h602zM325 -190q0 90 20 168t52.5 149.5t75 138t87.5 134.5v100h-480v-200h120v100h240q-30 -43 -70.5 -108t-77 -143t-62 -165t-25.5 -174h120z" />
    <glyph glyph-name="eight.pnum.oldstyle" 
d="M601 950v-1200h-602v1200h602zM144 349q-51 -15 -77.5 -53.5t-26.5 -110.5q0 -39 8.5 -74.5t36 -62t79 -42.5t136.5 -16t136.5 16t79 42.5t36 62t8.5 74.5q0 72 -26.5 110.5t-77.5 53.5v10q16 5 31 15.5t27 27.5t19 41t7 57q0 99 -55.5 144.5t-184.5 45.5t-184.5 -45.5
t-55.5 -144.5q0 -33 7 -57t19 -41t27 -27.5t31 -15.5v-10zM280 400q-29 0 -47 7t-27.5 19t-12.5 28.5t-3 35.5q0 29 5 48t18 30.5t34 16.5t53 5t53 -5t34 -16.5t18 -30.5t5 -48q0 -19 -3 -35.5t-12.5 -28.5t-27.5 -19t-47 -7h-40zM350 300q29 0 47 -10t27.5 -26t12.5 -35.5
t3 -38.5q0 -30 -5 -49t-20 -30.5t-42.5 -16t-72.5 -4.5t-72.5 4.5t-42.5 16t-20 30.5t-5 49q0 19 3 38.5t12.5 35.5t27.5 26t47 10h100z" />
    <glyph glyph-name="nine.pnum.oldstyle" 
d="M601 950v-1200h-602v1200h602zM439 90q-3 -71 -12.5 -109.5t-26.5 -56.5t-41.5 -21t-58.5 -3q-43 0 -69.5 6t-41 21t-19.5 40t-5 63h-120q0 -55 8.5 -98t35.5 -72t77.5 -44.5t133.5 -15.5q78 0 128 15t79.5 55.5t41 110t11.5 179.5q0 99 -8.5 166t-36 108t-79 58.5
t-136.5 17.5q-72 0 -121.5 -15.5t-80.5 -44t-44.5 -68t-13.5 -87.5q0 -55 14 -94t39.5 -63.5t61.5 -36t80 -11.5h204zM285 189q-34 0 -57.5 5.5t-38.5 17.5t-22 32t-7 51q0 34 7 56.5t23.5 35.5t43.5 18t66 5q43 0 70 -6t42.5 -28.5t21 -66.5t6.5 -120h-155z" />
    <glyph glyph-name="zero.inferior" 
d="M601 950v-1200h-602v1200h602zM300 260q-54 0 -85.5 -11.5t-48 -37t-21.5 -66.5t-5 -100t5 -100t21.5 -66.5t48 -37t85.5 -11.5t85.5 11.5t48 37t21.5 66.5t5 100t-5 100t-21.5 66.5t-48 37t-85.5 11.5zM300 190q25 0 40.5 -4t24.5 -19t12 -44t3 -78q0 -50 -3 -79
t-12 -43.5t-24.5 -18.5t-40.5 -4q-24 0 -39.5 4t-24.5 18.5t-12.5 43.5t-3.5 79q0 49 3.5 78t12.5 44t24.5 19t39.5 4zM270 8h60v72h-60v-72z" />
    <glyph glyph-name="one.inferior" 
d="M601 950v-1200h-602v1200h602zM290 250l-120 -25v-70l90 15v-260h-90v-70h260v70h-90v340h-50z" />
    <glyph glyph-name="two.inferior" 
d="M601 950v-1200h-602v1200h602zM220 -65q0 16 17.5 27.5t43.5 22t56.5 21.5t56.5 28t43.5 41t17.5 59q0 27 -7 50t-25 40t-48 26.5t-75 9.5q-51 0 -81.5 -10t-47 -29.5t-21.5 -48.5t-5 -68h80q0 27 3 43.5t11.5 26t23 13t37.5 3.5q25 0 40 -4t23 -11.5t10 -18t2 -22.5
q0 -18 -17.5 -30t-43.5 -22t-56.5 -21t-56.5 -27t-43.5 -39.5t-17.5 -59.5v-95h320v127h-80v-57h-160v25z" />
    <glyph glyph-name="three.inferior" 
d="M601 950v-1200h-602v1200h602zM250 15h86q25 0 34.5 -18.5t9.5 -36.5q0 -32 -15.5 -46t-64.5 -14q-17 0 -31.5 3t-25.5 12t-17 26t-6 44h-80q0 -39 7.5 -68.5t26 -48.5t49.5 -28.5t77 -9.5t77 10.5t49.5 27t26 38t7.5 44.5q0 45 -17.5 68t-52.5 32v5q10 3 20.5 9
t19.5 16.5t14.5 25t5.5 34.5q0 63 -35 91.5t-115 28.5q-51 0 -82 -12t-47 -32.5t-21 -49t-5 -61.5h80q0 27 5 43.5t14.5 25.5t23.5 12.5t32 3.5q32 0 51 -10.5t19 -49.5q0 -21 -16 -33t-40 -12h-64v-70z" />
    <glyph glyph-name="four.inferior" 
d="M601 950v-1200h-602v1200h602zM460 0h-50v250h-80l-190 -250v-70h190v-90h80v90h50v70zM220 0l110 140v-140h-110z" />
    <glyph glyph-name="five.inferior" 
d="M601 950v-1200h-602v1200h602zM160 250v-215h135q23 0 39 -1.5t26.5 -7.5t15 -18t4.5 -33q0 -46 -18 -60.5t-62 -14.5q-23 0 -38.5 3.5t-24.5 12.5t-13 25.5t-4 43.5h-80q0 -39 6 -68t23 -48.5t48.5 -29t82.5 -9.5q45 0 76 10.5t49.5 30t26.5 46t8 58.5q0 30 -7 54.5
t-24 41t-46 25.5t-73 9h-70v75h185v70h-265z" />
    <glyph glyph-name="six.inferior" 
d="M601 950v-1200h-602v1200h602zM222 95q2 33 7 51.5t14 28.5t23 12.5t34 2.5q23 0 37.5 -3.5t23 -11.5t11.5 -21.5t3 -33.5h80q0 32 -4.5 58t-20.5 44t-47 28t-83 10q-48 0 -79 -9.5t-49 -33.5t-25 -66t-7 -106q0 -59 5 -100t21.5 -66.5t48 -37t85.5 -11.5q44 0 74.5 10.5
t49.5 29t27.5 43t8.5 52.5q0 35 -9.5 60t-26.5 40.5t-40 22.5t-49 7h-113zM305 25q39 0 57 -12.5t18 -47.5q0 -38 -19 -51.5t-61 -13.5q-27 0 -42 3.5t-23 16t-10.5 37.5t-2.5 68h83z" />
    <glyph glyph-name="seven.inferior" 
d="M601 950v-1200h-602v1200h602zM320 -160q0 54 10 98t27.5 84t41 78t51.5 80v70h-300v-130h80v60h140q-17 -24 -39 -61t-42.5 -81.5t-34.5 -95t-14 -102.5h80z" />
    <glyph glyph-name="eight.inferior" 
d="M601 950v-1200h-602v1200h602zM210 50q-35 -9 -52.5 -32t-17.5 -68q0 -23 7.5 -44.5t26 -38t49.5 -27t77 -10.5t77 10.5t49.5 27t26 38t7.5 44.5q0 45 -17.5 68t-52.5 32v5q10 3 20.5 9t19.5 16.5t14.5 25t5.5 34.5q0 63 -35 91.5t-115 28.5t-115 -28.5t-35 -91.5
q0 -20 5.5 -34.5t14.5 -25t19.5 -16.5t20.5 -9v-5zM286 85q-24 0 -40 12t-16 33q0 39 19 49.5t51 10.5t51 -10.5t19 -49.5q0 -21 -16 -33t-40 -12h-28zM336 15q25 0 34.5 -18.5t9.5 -36.5q0 -32 -15.5 -46t-64.5 -14t-64.5 14t-15.5 46q0 9 2 18.5t7 18t13.5 13.5t21.5 5h72
z" />
    <glyph glyph-name="nine.inferior" 
d="M601 950v-1200h-602v1200h602zM378 -5q-2 -33 -7 -51.5t-14 -28.5t-23 -12.5t-34 -2.5q-23 0 -38 3.5t-23 11.5t-11 21.5t-3 33.5h-80q0 -32 4.5 -58t20.5 -44t46.5 -28t83.5 -10q48 0 79 9.5t49 33.5t25 65.5t7 106.5q0 59 -5 100t-21.5 66.5t-48 37t-85.5 11.5
q-44 0 -74.5 -10.5t-49.5 -29t-27.5 -43t-8.5 -52.5q0 -35 9.5 -60t26.5 -40.5t40 -22.5t49 -7h113zM295 65q-39 0 -57 12.5t-18 47.5q0 38 19 51.5t61 13.5q27 0 42 -3.5t23 -16.5t10.5 -37.5t2.5 -67.5h-83z" />
    <glyph glyph-name="glyph325" 
d="M601 950v-1200h-602v1200h602zM300 -10q85 0 136.5 17.5t79 58.5t36 108t8.5 166q0 98 -8.5 165t-36 108t-79 59t-136.5 18t-136.5 -18t-79 -59t-36 -108t-8.5 -165q0 -99 8.5 -166t36 -108t79 -58.5t136.5 -17.5zM300 590q45 0 72.5 -7t42.5 -32.5t20 -75.5t5 -135
q0 -86 -5 -135.5t-20 -75t-42.5 -32.5t-72.5 -7t-72.5 7t-42.5 32.5t-20 75t-5 135.5q0 85 5 135t20 75.5t42.5 32.5t72.5 7zM240 280h120v120h-120v-120z" />
    <glyph glyph-name="glyph326" 
d="M601 950v-1200h-602v1200h602zM280 685l-190 -45v-100l150 30v-470h-150v-100h420v100h-150v585h-80z" />
    <glyph glyph-name="glyph327" 
d="M601 950v-1200h-602v1200h602zM160 150q0 30 17 50t44.5 35t63 26t73 23.5t73 28.5t63 39.5t44.5 56.5t17 81q0 42 -12 78.5t-41.5 63.5t-78.5 42.5t-123 15.5q-81 0 -131 -15t-77.5 -45.5t-37 -78t-9.5 -111.5h120q0 48 5 77t19.5 45.5t41 22t69.5 5.5q41 0 67.5 -5
t41.5 -16.5t20.5 -30.5t5.5 -48q0 -27 -17 -46t-44.5 -33t-63 -25.5t-73 -24.5t-73 -29t-63 -39.5t-44.5 -55.5t-17 -77v-160h520v200h-120v-100h-280v50z" />
    <glyph glyph-name="glyph328" 
d="M601 950v-1200h-602v1200h602zM220 300h130q29 0 47 -10t27.5 -26t12.5 -35.5t3 -38.5q0 -30 -5 -49t-20 -30.5t-42.5 -16t-72.5 -4.5t-72.5 5.5t-42.5 21.5t-20 45.5t-5 77.5h-120q0 -65 8.5 -112.5t36 -78t79 -45t136.5 -14.5t136.5 16t79 42.5t36 62t8.5 74.5
q0 72 -29 110.5t-95 53.5v10q20 5 38.5 15.5t33 27.5t23.5 41t9 57q0 99 -55.5 144.5t-184.5 45.5q-81 0 -130.5 -17.5t-76 -50.5t-35 -79t-8.5 -103h120q0 48 7 77t22.5 45.5t40 22t60.5 5.5q32 0 53 -5t34 -16.5t18 -30.5t5 -48q0 -19 -3 -35.5t-12.5 -28.5t-27.5 -19
t-47 -7h-100v-100z" />
    <glyph glyph-name="glyph329" 
d="M601 950v-1200h-602v1200h602zM571 245h-71v435h-120l-330 -435v-100h330v-145h120v145h71v100zM177 245l203 263v-263h-203z" />
    <glyph glyph-name="glyph330" 
d="M601 950v-1200h-602v1200h602zM80 680v-345h220q41 0 67.5 -4.5t41.5 -17.5t20.5 -36.5t5.5 -61.5t-5.5 -62.5t-20.5 -38.5t-41.5 -19t-67.5 -5q-43 0 -69.5 5.5t-41 22t-19.5 45.5t-5 77h-120q0 -65 9.5 -112t37 -77.5t77.5 -45.5t131 -15q74 0 123 16t78.5 45t41.5 71
t12 93t-10.5 93t-37 71t-72 45t-115.5 16h-120v140h310v100h-430z" />
    <glyph glyph-name="glyph331" 
d="M601 950v-1200h-602v1200h602zM161 410q3 67 12.5 103.5t26.5 53.5t41.5 20t58.5 3q43 0 69.5 -6t41 -21t19.5 -40t5 -63h120q0 55 -8.5 98t-35.5 72t-77.5 44.5t-133.5 15.5q-78 0 -128 -15t-79.5 -54t-41 -107t-11.5 -174q0 -99 8.5 -166t36 -108t79 -58.5t136.5 -17.5
q72 0 121.5 15.5t80.5 44t44.5 68t13.5 87.5q0 55 -14 94t-39.5 63.5t-61.5 36t-80 11.5h-204zM315 311q34 0 57.5 -5.5t38.5 -17.5t22 -32t7 -51q0 -35 -7 -57t-23.5 -35t-43.5 -18t-66 -5q-43 0 -70 6t-42.5 28.5t-21 66.5t-6.5 120h155z" />
    <glyph glyph-name="glyph332" 
d="M601 950v-1200h-602v1200h602zM325 0q0 90 20 166.5t52.5 146t75 134.5t87.5 133v100h-480v-200h120v100h240q-30 -43 -70.5 -106.5t-77 -139.5t-62 -161.5t-25.5 -172.5h120z" />
    <glyph glyph-name="glyph333" 
d="M601 950v-1200h-602v1200h602zM144 349q-51 -15 -77.5 -53.5t-26.5 -110.5q0 -39 8.5 -74.5t36 -62t79 -42.5t136.5 -16t136.5 16t79 42.5t36 62t8.5 74.5q0 72 -26.5 110.5t-77.5 53.5v10q16 5 31 15.5t27 27.5t19 41t7 57q0 99 -55.5 144.5t-184.5 45.5t-184.5 -45.5
t-55.5 -144.5q0 -33 7 -57t19 -41t27 -27.5t31 -15.5v-10zM280 400q-29 0 -47 7t-27.5 19t-12.5 28.5t-3 35.5q0 29 5 48t18 30.5t34 16.5t53 5t53 -5t34 -16.5t18 -30.5t5 -48q0 -19 -3 -35.5t-12.5 -28.5t-27.5 -19t-47 -7h-40zM350 300q29 0 47 -10t27.5 -26t12.5 -35.5
t3 -38.5q0 -30 -5 -49t-20 -30.5t-42.5 -16t-72.5 -4.5t-72.5 4.5t-42.5 16t-20 30.5t-5 49q0 19 3 38.5t12.5 35.5t27.5 26t47 10h100z" />
    <glyph glyph-name="glyph334" 
d="M601 950v-1200h-602v1200h602zM439 270q-3 -67 -12.5 -103.5t-26.5 -53.5t-41.5 -20t-58.5 -3q-43 0 -69.5 6t-41 21t-19.5 40t-5 63h-120q0 -55 8.5 -98t35.5 -72t77.5 -44.5t133.5 -15.5q78 0 128 15t79.5 54t41 107t11.5 174q0 99 -8.5 166t-36 108t-79 58.5
t-136.5 17.5q-72 0 -121.5 -15.5t-80.5 -44t-44.5 -68t-13.5 -87.5q0 -55 14 -94t39.5 -63.5t61.5 -36t80 -11.5h204zM285 369q-34 0 -57.5 5.5t-38.5 17.5t-22 32t-7 51q0 34 7 56.5t23.5 35.5t43.5 18t66 5q43 0 70 -6t42.5 -28.5t21 -66.5t6.5 -120h-155z" />
    <glyph glyph-name="zero.oldstyle" 
d="M601 950v-1200h-602v1200h602zM300 -10q75 0 125 15.5t80 47t42.5 80.5t12.5 117q0 67 -12.5 116.5t-42.5 81t-80 47t-125 15.5t-125 -15.5t-80 -47t-42.5 -81t-12.5 -116.5q0 -68 12.5 -117t42.5 -80.5t80 -47t125 -15.5zM300 90q-43 0 -70.5 8t-43 27t-21 49.5
t-5.5 75.5t5.5 75.5t21 49.5t43 27t70.5 8t70.5 -8t43 -27t21 -49.5t5.5 -75.5t-5.5 -75.5t-21 -49.5t-43 -27t-70.5 -8zM240 190h120v120h-120v-120z" />
    <glyph glyph-name="one.oldstyle" 
d="M601 950v-1200h-602v1200h602zM280 505l-190 -45v-100l150 30v-290h-150v-100h420v100h-150v405h-80z" />
    <glyph glyph-name="two.oldstyle" 
d="M601 950v-1200h-602v1200h602zM185 320q0 25 4.5 42.5t17.5 28t35 15t58 4.5q34 0 56 -4.5t35 -14t18.5 -25t5.5 -36.5q0 -24 -26.5 -34t-65.5 -16.5t-85.5 -14t-85.5 -25t-65.5 -50.5t-26.5 -90v-100h480v100h-360q0 26 15.5 41.5t40 24.5t56.5 13.5t65.5 10t65.5 13.5
t56.5 23t40 40t15.5 64q0 34 -12 66.5t-39.5 58t-72.5 40.5t-111 15q-74 0 -120 -15.5t-71.5 -41.5t-34.5 -60.5t-9 -72.5h120z" />
    <glyph glyph-name="three.oldstyle" 
d="M601 950v-1200h-602v1200h602zM220 110h130q29 0 47 -10t27.5 -26t12.5 -35.5t3 -38.5q0 -30 -5 -49t-20 -30.5t-42.5 -16t-72.5 -4.5t-72.5 5.5t-42.5 21.5t-20 45.5t-5 77.5h-120q0 -65 8.5 -112.5t36 -78t79 -45t136.5 -14.5t136.5 16t79 42.5t36 62t8.5 74.5
q0 72 -29 110.5t-95 53.5v10q20 5 38.5 15.5t33 28.5t23.5 44.5t9 62.5q0 99 -55.5 144.5t-184.5 45.5q-81 0 -130.5 -17.5t-76 -50.5t-35 -79t-8.5 -103h120q0 48 7 77t22.5 45.5t40 22t60.5 5.5q32 0 53 -5t34 -16.5t18 -30.5t5 -48q0 -23 -3 -41t-12.5 -31.5t-27.5 -20.5
t-47 -7h-100v-100z" />
    <glyph glyph-name="four.oldstyle" 
d="M601 950v-1200h-602v1200h602zM571 100h-71v400h-120l-330 -400v-100h330v-190h120v190h71v100zM188 100l192 232v-232h-192z" />
    <glyph glyph-name="five.oldstyle" 
d="M601 950v-1200h-602v1200h602zM80 500v-355h220q41 0 67.5 -4.5t41.5 -17.5t20.5 -36.5t5.5 -61.5t-5.5 -62.5t-20.5 -38.5t-41.5 -19t-67.5 -5q-43 0 -69.5 5.5t-41 22t-19.5 45.5t-5 77h-120q0 -65 9.5 -112t37 -77.5t77.5 -45.5t131 -15q74 0 123 16t78.5 45t41.5 71
t12 93t-10.5 93t-37 71t-72 45t-115.5 16h-120v150h310v100h-430z" />
    <glyph glyph-name="six.oldstyle" 
d="M601 950v-1200h-602v1200h602zM161 410q3 67 12.5 103.5t26.5 53.5t41.5 20t58.5 3q43 0 69.5 -6t41 -21t19.5 -40t5 -63h120q0 55 -8.5 98t-35.5 72t-77.5 44.5t-133.5 15.5q-78 0 -128 -15t-79.5 -54t-41 -107t-11.5 -174q0 -99 8.5 -166t36 -108t79 -58.5t136.5 -17.5
q72 0 121.5 15.5t80.5 44t44.5 68t13.5 87.5q0 55 -14 94t-39.5 63.5t-61.5 36t-80 11.5h-204zM315 311q34 0 57.5 -5.5t38.5 -17.5t22 -32t7 -51q0 -35 -7 -57t-23.5 -35t-43.5 -18t-66 -5q-43 0 -70 6t-42.5 28.5t-21 66.5t-6.5 120h155z" />
    <glyph glyph-name="seven.oldstyle" 
d="M601 950v-1200h-602v1200h602zM325 -190q0 90 20 168t52.5 149.5t75 138t87.5 134.5v100h-480v-200h120v100h240q-30 -43 -70.5 -108t-77 -143t-62 -165t-25.5 -174h120z" />
    <glyph glyph-name="eight.oldstyle" 
d="M601 950v-1200h-602v1200h602zM144 349q-51 -15 -77.5 -53.5t-26.5 -110.5q0 -39 8.5 -74.5t36 -62t79 -42.5t136.5 -16t136.5 16t79 42.5t36 62t8.5 74.5q0 72 -26.5 110.5t-77.5 53.5v10q16 5 31 15.5t27 27.5t19 41t7 57q0 99 -55.5 144.5t-184.5 45.5t-184.5 -45.5
t-55.5 -144.5q0 -33 7 -57t19 -41t27 -27.5t31 -15.5v-10zM280 400q-29 0 -47 7t-27.5 19t-12.5 28.5t-3 35.5q0 29 5 48t18 30.5t34 16.5t53 5t53 -5t34 -16.5t18 -30.5t5 -48q0 -19 -3 -35.5t-12.5 -28.5t-27.5 -19t-47 -7h-40zM350 300q29 0 47 -10t27.5 -26t12.5 -35.5
t3 -38.5q0 -30 -5 -49t-20 -30.5t-42.5 -16t-72.5 -4.5t-72.5 4.5t-42.5 16t-20 30.5t-5 49q0 19 3 38.5t12.5 35.5t27.5 26t47 10h100z" />
    <glyph glyph-name="nine.oldstyle" 
d="M601 950v-1200h-602v1200h602zM439 90q-3 -71 -12.5 -109.5t-26.5 -56.5t-41.5 -21t-58.5 -3q-43 0 -69.5 6t-41 21t-19.5 40t-5 63h-120q0 -55 8.5 -98t35.5 -72t77.5 -44.5t133.5 -15.5q78 0 128 15t79.5 55.5t41 110t11.5 179.5q0 99 -8.5 166t-36 108t-79 58.5
t-136.5 17.5q-72 0 -121.5 -15.5t-80.5 -44t-44.5 -68t-13.5 -87.5q0 -55 14 -94t39.5 -63.5t61.5 -36t80 -11.5h204zM285 189q-34 0 -57.5 5.5t-38.5 17.5t-22 32t-7 51q0 34 7 56.5t23.5 35.5t43.5 18t66 5q43 0 70 -6t42.5 -28.5t21 -66.5t6.5 -120h-155z" />
    <glyph glyph-name="zero.dnom" 
d="M601 950v-1200h-602v1200h602zM300 420q-54 0 -85.5 -11.5t-48 -37t-21.5 -66.5t-5 -100t5 -100t21.5 -66.5t48 -37t85.5 -11.5t85.5 11.5t48 37t21.5 66.5t5 100t-5 100t-21.5 66.5t-48 37t-85.5 11.5zM300 350q25 0 40.5 -4t24.5 -19t12 -44t3 -78q0 -50 -3 -79
t-12 -43.5t-24.5 -18.5t-40.5 -4q-24 0 -39.5 4t-24.5 18.5t-12.5 43.5t-3.5 79q0 49 3.5 78t12.5 44t24.5 19t39.5 4zM270 168h60v72h-60v-72z" />
    <glyph glyph-name="one.dnom" 
d="M601 950v-1200h-602v1200h602zM290 410l-120 -25v-70l90 15v-260h-90v-70h260v70h-90v340h-50z" />
    <glyph glyph-name="two.dnom" 
d="M601 950v-1200h-602v1200h602zM220 95q0 16 17.5 27.5t43.5 22t56.5 21.5t56.5 28t43.5 40.5t17.5 59.5q0 27 -7 50t-25 40t-48 26.5t-75 9.5q-51 0 -81.5 -10t-47 -29.5t-21.5 -48.5t-5 -68h80q0 27 3 43.5t11.5 26t23 13t37.5 3.5q25 0 40 -4t23 -11.5t10 -18t2 -22.5
q0 -18 -17.5 -30t-43.5 -22t-56.5 -21t-56.5 -27t-43.5 -39.5t-17.5 -59.5v-95h320v127h-80v-57h-160v25z" />
    <glyph glyph-name="three.dnom" 
d="M601 950v-1200h-602v1200h602zM250 175h86q25 0 34.5 -18.5t9.5 -36.5q0 -32 -15.5 -46t-64.5 -14q-17 0 -31.5 3t-25.5 12t-17 26t-6 44h-80q0 -39 7.5 -68.5t26 -48.5t49.5 -28.5t77 -9.5t77 10.5t49.5 27t26 38t7.5 44.5q0 45 -17.5 68t-52.5 32v5q10 3 20.5 9
t19.5 16.5t14.5 25t5.5 34.5q0 63 -35 91.5t-115 28.5q-51 0 -82 -12t-47 -32.5t-21 -49t-5 -61.5h80q0 27 5 43.5t14.5 25.5t23.5 12.5t32 3.5q32 0 51 -10.5t19 -49.5q0 -21 -16 -33t-40 -12h-64v-70z" />
    <glyph glyph-name="four.dnom" 
d="M601 950v-1200h-602v1200h602zM460 160h-50v250h-80l-190 -250v-70h190v-90h80v90h50v70zM220 160l110 140v-140h-110z" />
    <glyph glyph-name="five.dnom" 
d="M601 950v-1200h-602v1200h602zM160 410v-215h135q23 0 39 -1.5t26.5 -7.5t15 -18t4.5 -33q0 -46 -18 -60.5t-62 -14.5q-23 0 -38.5 3.5t-24.5 12.5t-13 25.5t-4 43.5h-80q0 -39 6 -68t23 -48.5t48.5 -29t82.5 -9.5q45 0 76 10.5t49.5 30t26.5 46t8 58.5q0 30 -7 54.5
t-24 41t-46 25.5t-73 9h-70v75h185v70h-265z" />
    <glyph glyph-name="six.dnom" 
d="M601 950v-1200h-602v1200h602zM222 255q2 33 7 51.5t14 28.5t23 12.5t34 2.5q23 0 37.5 -3.5t23 -11.5t11.5 -21.5t3 -33.5h80q0 32 -4.5 58t-20.5 44t-47 28t-83 10q-48 0 -79 -9.5t-49 -33.5t-25 -66t-7 -106q0 -59 5 -100t21.5 -66.5t48 -37t85.5 -11.5
q44 0 74.5 10.5t49.5 29t27.5 43t8.5 52.5q0 35 -9.5 60t-26.5 40.5t-40 22.5t-49 7h-113zM305 185q39 0 57 -12.5t18 -47.5q0 -38 -19 -51.5t-61 -13.5q-27 0 -42 3.5t-23 16t-10.5 37.5t-2.5 68h83z" />
    <glyph glyph-name="seven.dnom" 
d="M601 950v-1200h-602v1200h602zM320 0q0 54 10 98t27.5 84t41 78t51.5 80v70h-300v-130h80v60h140q-17 -24 -39 -61t-42.5 -81.5t-34.5 -95t-14 -102.5h80z" />
    <glyph glyph-name="eight.dnom" 
d="M601 950v-1200h-602v1200h602zM210 210q-35 -9 -52.5 -32t-17.5 -68q0 -23 7.5 -44.5t26 -38t49.5 -27t77 -10.5t77 10.5t49.5 27t26 38t7.5 44.5q0 45 -17.5 68t-52.5 32v5q10 3 20.5 9t19.5 16.5t14.5 25t5.5 34.5q0 63 -35 91.5t-115 28.5t-115 -28.5t-35 -91.5
q0 -20 5.5 -34.5t14.5 -25t19.5 -16.5t20.5 -9v-5zM286 245q-24 0 -40 12t-16 33q0 39 19 49.5t51 10.5t51 -10.5t19 -49.5q0 -21 -16 -33t-40 -12h-28zM336 175q25 0 34.5 -18.5t9.5 -36.5q0 -32 -15.5 -46t-64.5 -14t-64.5 14t-15.5 46q0 9 2 18.5t7 18t13.5 13.5t21.5 5
h72z" />
    <glyph glyph-name="nine.dnom" 
d="M601 950v-1200h-602v1200h602zM378 155q-2 -33 -7 -51.5t-14 -28.5t-23 -12.5t-34 -2.5q-23 0 -38 3.5t-23 11.5t-11 21.5t-3 33.5h-80q0 -32 4.5 -58t20.5 -44t46.5 -28t83.5 -10q48 0 79 9.5t49 33.5t25 65.5t7 106.5q0 59 -5 100t-21.5 66.5t-48 37t-85.5 11.5
q-44 0 -74.5 -10.5t-49.5 -29t-27.5 -43t-8.5 -52.5q0 -35 9.5 -60t26.5 -40.5t40 -22.5t49 -7h113zM295 225q-39 0 -57 12.5t-18 47.5q0 38 19 51.5t61 13.5q27 0 42 -3.5t23 -16.5t10.5 -37.5t2.5 -67.5h-83z" />
    <glyph glyph-name="zero.numr" 
d="M601 950v-1200h-602v1200h602zM300 690q-54 0 -85.5 -11.5t-48 -37t-21.5 -66.5t-5 -100t5 -100t21.5 -66.5t48 -37t85.5 -11.5t85.5 11.5t48 37t21.5 66.5t5 100t-5 100t-21.5 66.5t-48 37t-85.5 11.5zM300 620q25 0 40.5 -4t24.5 -19t12 -44t3 -78q0 -50 -3 -79
t-12 -43.5t-24.5 -18.5t-40.5 -4q-24 0 -39.5 4t-24.5 18.5t-12.5 43.5t-3.5 79q0 49 3.5 78t12.5 44t24.5 19t39.5 4zM270 438h60v72h-60v-72z" />
    <glyph glyph-name="one.numr" 
d="M601 950v-1200h-602v1200h602zM290 680l-120 -25v-70l90 15v-260h-90v-70h260v70h-90v340h-50z" />
    <glyph glyph-name="two.numr" 
d="M601 950v-1200h-602v1200h602zM220 365q0 16 17.5 27.5t43.5 22t56.5 21.5t56.5 28t43.5 40.5t17.5 59.5q0 27 -7 50t-25 40t-48 26.5t-75 9.5q-51 0 -81.5 -10t-47 -29.5t-21.5 -48.5t-5 -68h80q0 27 3 43.5t11.5 26t23 13t37.5 3.5q25 0 40 -4t23 -11.5t10 -18t2 -22.5
q0 -18 -17.5 -30t-43.5 -22t-56.5 -21t-56.5 -27t-43.5 -39.5t-17.5 -59.5v-95h320v127h-80v-57h-160v25z" />
    <glyph glyph-name="three.numr" 
d="M601 950v-1200h-602v1200h602zM250 445h86q25 0 34.5 -18.5t9.5 -36.5q0 -32 -15.5 -46t-64.5 -14q-17 0 -31.5 3t-25.5 12t-17 26t-6 44h-80q0 -39 7.5 -68.5t26 -48.5t49.5 -28.5t77 -9.5t77 10.5t49.5 27t26 38t7.5 44.5q0 45 -17.5 68t-52.5 32v5q10 3 20.5 9
t19.5 16.5t14.5 25t5.5 34.5q0 63 -35 91.5t-115 28.5q-51 0 -82 -12t-47 -32.5t-21 -49t-5 -61.5h80q0 27 5 43.5t14.5 25.5t23.5 12.5t32 3.5q32 0 51 -10.5t19 -49.5q0 -21 -16 -33t-40 -12h-64v-70z" />
    <glyph glyph-name="four.numr" 
d="M601 950v-1200h-602v1200h602zM460 430h-50v250h-80l-190 -250v-70h190v-90h80v90h50v70zM220 430l110 140v-140h-110z" />
    <glyph glyph-name="five.numr" 
d="M601 950v-1200h-602v1200h602zM160 680v-215h135q23 0 39 -1.5t26.5 -7.5t15 -18t4.5 -33q0 -46 -18 -60.5t-62 -14.5q-23 0 -38.5 3.5t-24.5 12.5t-13 25.5t-4 43.5h-80q0 -39 6 -68t23 -48.5t48.5 -29t82.5 -9.5q45 0 76 10.5t49.5 30t26.5 46t8 58.5q0 30 -7 54.5
t-24 41t-46 25.5t-73 9h-70v75h185v70h-265z" />
    <glyph glyph-name="six.numr" 
d="M601 950v-1200h-602v1200h602zM222 525q2 33 7 51.5t14 28.5t23 12.5t34 2.5q23 0 37.5 -3.5t23 -11.5t11.5 -21.5t3 -33.5h80q0 32 -4.5 58t-20.5 44t-47 28t-83 10q-48 0 -79 -9.5t-49 -33.5t-25 -66t-7 -106q0 -59 5 -100t21.5 -66.5t48 -37t85.5 -11.5
q44 0 74.5 10.5t49.5 29t27.5 43t8.5 52.5q0 35 -9.5 60t-26.5 40.5t-40 22.5t-49 7h-113zM305 455q39 0 57 -12.5t18 -47.5q0 -38 -19 -51.5t-61 -13.5q-27 0 -42 3.5t-23 16t-10.5 37.5t-2.5 68h83z" />
    <glyph glyph-name="seven.numr" 
d="M601 950v-1200h-602v1200h602zM320 270q0 54 10 98t27.5 84t41 78t51.5 80v70h-300v-130h80v60h140q-17 -24 -39 -61t-42.5 -81.5t-34.5 -95t-14 -102.5h80z" />
    <glyph glyph-name="eight.numr" 
d="M601 950v-1200h-602v1200h602zM210 480q-35 -9 -52.5 -32t-17.5 -68q0 -23 7.5 -44.5t26 -38t49.5 -27t77 -10.5t77 10.5t49.5 27t26 38t7.5 44.5q0 45 -17.5 68t-52.5 32v5q10 3 20.5 9t19.5 16.5t14.5 25t5.5 34.5q0 63 -35 91.5t-115 28.5t-115 -28.5t-35 -91.5
q0 -20 5.5 -34.5t14.5 -25t19.5 -16.5t20.5 -9v-5zM286 515q-24 0 -40 12t-16 33q0 39 19 49.5t51 10.5t51 -10.5t19 -49.5q0 -21 -16 -33t-40 -12h-28zM336 445q25 0 34.5 -18.5t9.5 -36.5q0 -32 -15.5 -46t-64.5 -14t-64.5 14t-15.5 46q0 9 2 18.5t7 18t13.5 13.5t21.5 5
h72z" />
    <glyph glyph-name="nine.numr" 
d="M601 950v-1200h-602v1200h602zM378 425q-2 -33 -7 -51.5t-14 -28.5t-23 -12.5t-34 -2.5q-23 0 -38 3.5t-23 11.5t-11 21.5t-3 33.5h-80q0 -32 4.5 -58t20.5 -44t46.5 -28t83.5 -10q48 0 79 9.5t49 33.5t25 65.5t7 106.5q0 59 -5 100t-21.5 66.5t-48 37t-85.5 11.5
q-44 0 -74.5 -10.5t-49.5 -29t-27.5 -43t-8.5 -52.5q0 -35 9.5 -60t26.5 -40.5t40 -22.5t49 -7h113zM295 495q-39 0 -57 12.5t-18 47.5q0 38 19 51.5t61 13.5q27 0 42 -3.5t23 -16.5t10.5 -37.5t2.5 -67.5h-83z" />
    <glyph glyph-name="space.calt" 
d="M601 950v-1200h-602v1200h602z" />
    <glyph glyph-name="glyph467" 
d="M601 950v-1200h-602v1200h602zM20 290h560v100h-560v-100z" />
    <glyph glyph-name="glyph468" 
d="M601 950v-1200h-602v1200h602zM20 290h560v100h-560v-100z" />
    <glyph glyph-name="glyph469" 
d="M601 950v-1200h-602v1200h602zM240 560h120v120h-120v-120zM240 0h120v500h-120v-500z" />
    <glyph glyph-name="glyph470" 
d="M601 950v-1200h-602v1200h602zM155 340l130 80v100l-210 -130v-100l210 -130v100zM395 340l130 80v100l-210 -130v-100l210 -130v100z" />
    <glyph glyph-name="glyph471" 
d="M601 950v-1200h-602v1200h602zM75 160l210 130v100l-210 130v-100l130 -80l-130 -80v-100zM315 160l210 130v100l-210 130v-100l130 -80l-130 -80v-100z" />
    <glyph glyph-name="glyph472" 
d="M601 950v-1200h-602v1200h602zM275 340l130 80v100l-210 -130v-100l210 -130v100z" />
    <glyph glyph-name="glyph473" 
d="M601 950v-1200h-602v1200h602zM195 160l210 130v100l-210 130v-100l130 -80l-130 -80v-100z" />
    <glyph glyph-name="glyph474" 
d="M601 950v-1200h-602v1200h602zM120 290h360v100h-360v-100z" />
    <glyph glyph-name="glyph475" 
d="M601 950v-1200h-602v1200h602zM370 678h-120v-120h120v120zM430 238q0 -48 -5 -77t-19 -45.5t-39.5 -22t-66.5 -5.5t-67.5 5t-41.5 16.5t-20.5 30.5t-5.5 48q0 36 15 55t38 31.5t49.5 24t49.5 33t38 57.5t15 99h-120q0 -40 -15 -60t-38 -32.5t-49.5 -22.5t-49.5 -30
t-38 -56t-15 -99q0 -42 12 -78.5t41.5 -63.5t78.5 -42.5t123 -15.5q79 0 128 15t76 45.5t36.5 77.5t9.5 112h-120z" />
    </font>
</defs>
</svg>
